<svg width="627" height="467" viewBox="0 0 627 467" fill="none" xmlns="http://www.w3.org/2000/svg">
<path d="M626.745 410.392H0V410.706H626.745V410.392Z" fill="#EBEBEB"/>
<path d="M563.945 430.561H522.429V430.874H563.945V430.561Z" fill="#EBEBEB"/>
<path d="M415.181 433.97H404.288V434.284H415.181V433.97Z" fill="#EBEBEB"/>
<path d="M521.176 418.929H461.422V419.242H521.176V418.929Z" fill="#EBEBEB"/>
<path d="M95.4407 421.034H65.7581V421.348H95.4407V421.034Z" fill="#EBEBEB"/>
<path d="M139 421.034H106.597V421.348H139V421.034Z" fill="#EBEBEB"/>
<path d="M245.822 426.324H164.796V426.638H245.822V426.324Z" fill="#EBEBEB"/>
<path d="M297.077 354.487H55.0408C53.1447 354.483 51.3274 353.728 49.9878 352.386C48.6482 351.044 47.8959 349.225 47.8959 347.329V7.09466C47.9124 5.20944 48.672 3.40687 50.0098 2.07847C51.3476 0.750069 53.1555 0.00313792 55.0408 -9.15527e-05H297.077C298.975 -9.15527e-05 300.796 0.753992 302.138 2.09627C303.48 3.43855 304.234 5.25906 304.234 7.15733V347.329C304.234 349.228 303.48 351.048 302.138 352.39C300.796 353.733 298.975 354.487 297.077 354.487ZM55.0408 0.250607C53.2278 0.253928 51.4902 0.976458 50.2094 2.25961C48.9286 3.54276 48.2092 5.28167 48.2092 7.09466V347.329C48.2092 349.142 48.9286 350.881 50.2094 352.164C51.4902 353.447 53.2278 354.17 55.0408 354.173H297.077C298.891 354.17 300.63 353.448 301.913 352.165C303.196 350.882 303.918 349.143 303.921 347.329V7.09466C303.918 5.28052 303.196 3.54163 301.913 2.25884C300.63 0.976051 298.891 0.253921 297.077 0.250607H55.0408Z" fill="#EBEBEB"/>
<path d="M568.219 354.487H326.17C324.273 354.483 322.455 353.728 321.113 352.387C319.772 351.045 319.016 349.227 319.013 347.329V7.09466C319.033 5.2083 319.795 3.40574 321.135 2.07768C322.475 0.749631 324.284 0.0031027 326.17 -9.15527e-05H568.219C570.102 0.00643223 571.907 0.754821 573.242 2.08287C574.577 3.41091 575.335 5.21161 575.352 7.09466V347.329C575.352 349.223 574.601 351.04 573.264 352.382C571.927 353.723 570.113 354.48 568.219 354.487ZM326.17 0.250607C324.356 0.253921 322.617 0.976051 321.335 2.25884C320.052 3.54163 319.33 5.28052 319.326 7.09466V347.329C319.33 349.143 320.052 350.882 321.335 352.165C322.617 353.448 324.356 354.17 326.17 354.173H568.219C570.033 354.17 571.772 353.448 573.055 352.165C574.338 350.882 575.06 349.143 575.063 347.329V7.09466C575.06 5.28052 574.338 3.54163 573.055 2.25884C571.772 0.976051 570.033 0.253921 568.219 0.250607H326.17Z" fill="#EBEBEB"/>
<path d="M553.303 32.5906H355.289V410.392H553.303V32.5906Z" fill="#EBEBEB"/>
<path d="M538.574 44.9124H370.018V410.392H538.574V44.9124Z" fill="#F5F5F5"/>
<path d="M478.006 75.2218H430.611V88.3208H478.006V75.2218Z" fill="white"/>
<path d="M499.353 205.347H525.062C526.125 205.347 527.146 205.769 527.898 206.521C528.65 207.274 529.073 208.294 529.073 209.358C529.073 210.422 528.65 211.442 527.898 212.194C527.146 212.946 526.125 213.369 525.062 213.369H499.353C498.289 213.369 497.268 212.946 496.516 212.194C495.764 211.442 495.341 210.422 495.341 209.358C495.341 208.294 495.764 207.274 496.516 206.521C497.268 205.769 498.289 205.347 499.353 205.347Z" fill="white"/>
<path d="M219.912 72.79H88.2206V178.923H219.912V72.79Z" fill="#EBEBEB"/>
<path d="M212.83 171.853V79.8597L95.2777 79.8597V171.853H212.83Z" fill="#FAFAFA"/>
<path d="M199.129 127.066V122.666H108.991V127.066H199.129Z" fill="#E0E0E0"/>
<path d="M199.129 137.082V132.682H108.991V137.082H199.129Z" fill="#E0E0E0"/>
<path d="M199.129 147.084V142.685H108.991V147.084H199.129Z" fill="#E0E0E0"/>
<path d="M176.529 157.1V152.7H131.591V157.1H176.529Z" fill="#E0E0E0"/>
<path d="M109.054 79.8597C109.054 81.6663 108.697 83.4551 108.003 85.123C107.309 86.791 106.291 88.3053 105.01 89.5787C103.728 90.852 102.208 91.8594 100.535 92.5427C98.8629 93.2261 97.0719 93.5719 95.2654 93.5603C92.7727 93.5665 90.3266 92.8855 88.1957 91.5924V72.79H106.998C108.315 74.9149 109.026 77.3597 109.054 79.8597Z" fill="#EBEBEB"/>
<path d="M219.912 72.79V91.5924C217.292 93.1686 214.219 93.8229 211.184 93.4509C208.148 93.079 205.325 91.7022 203.162 89.5398C201 87.3774 199.623 84.5538 199.251 81.5184C198.879 78.4831 199.534 75.4105 201.11 72.79H219.912Z" fill="#EBEBEB"/>
<path d="M109.054 171.866C109.058 174.353 108.382 176.793 107.098 178.923H88.2959V160.121C90.3756 158.875 92.7481 158.204 95.1719 158.174C97.5956 158.144 99.984 158.757 102.094 159.951C104.203 161.145 105.959 162.876 107.181 164.969C108.404 167.062 109.05 169.442 109.054 171.866Z" fill="#EBEBEB"/>
<path d="M219.912 160.108V178.91H201.11C199.817 176.784 199.135 174.342 199.142 171.853C199.145 169.426 199.791 167.043 201.015 164.947C202.239 162.851 203.996 161.117 206.109 159.922C208.222 158.726 210.613 158.113 213.04 158.143C215.467 158.174 217.843 158.848 219.925 160.096L219.912 160.108Z" fill="#EBEBEB"/>
<path d="M165.584 104.144C166.617 97.782 162.297 91.7875 155.935 90.7549C149.573 89.7222 143.578 94.0424 142.546 100.404C141.513 106.766 145.833 112.761 152.195 113.793C158.557 114.826 164.551 110.506 165.584 104.144Z" fill="#E0E0E0"/>
<path d="M326.333 259.66H65.7581V269.036H326.333V259.66Z" fill="#EBEBEB"/>
<path d="M324.077 269.036H239.417V410.392H324.077V269.036Z" fill="#F5F5F5"/>
<path d="M153.64 269.036H68.9796V410.392H153.64V269.036Z" fill="#F5F5F5"/>
<path d="M71.8752 269.036H68.9796V410.392H71.8752V269.036Z" fill="#EBEBEB"/>
<path d="M242.312 269.036H239.417V410.392H242.312V269.036Z" fill="#EBEBEB"/>
<path d="M113.441 237.06H97.8724L99.1259 259.66H112.187L113.441 237.06Z" fill="#F0F0F0"/>
<path d="M248.605 249.858H167.266V259.66H248.605V249.858Z" fill="#F0F0F0"/>
<path d="M248.617 251.011H211.113V258.519H248.617V251.011Z" fill="#FAFAFA"/>
<path d="M313.372 467C447.599 467 556.412 460.647 556.412 452.81C556.412 444.974 447.599 438.621 313.372 438.621C179.146 438.621 70.3334 444.974 70.3334 452.81C70.3334 460.647 179.146 467 313.372 467Z" fill="#F5F5F5"/>
<path d="M427.076 365.041C449.008 365.041 466.787 347.262 466.787 325.331C466.787 303.399 449.008 285.62 427.076 285.62C405.145 285.62 387.366 303.399 387.366 325.331C387.366 347.262 405.145 365.041 427.076 365.041Z" fill="white"/>
<path d="M427.076 365.53C419.125 365.532 411.352 363.177 404.739 358.761C398.127 354.346 392.973 348.068 389.928 340.723C386.883 333.378 386.086 325.294 387.635 317.496C389.185 309.697 393.013 302.533 398.634 296.91C404.256 291.286 411.418 287.457 419.217 285.904C427.015 284.352 435.098 285.148 442.445 288.19C449.791 291.232 456.07 296.385 460.488 302.996C464.905 309.607 467.263 317.379 467.263 325.331C467.253 335.987 463.016 346.204 455.483 353.74C447.949 361.277 437.733 365.517 427.076 365.53ZM427.076 286.121C419.318 286.121 411.735 288.422 405.285 292.732C398.834 297.043 393.807 303.169 390.839 310.336C387.871 317.504 387.095 325.391 388.609 332.999C390.124 340.608 393.86 347.597 399.347 353.081C404.833 358.566 411.823 362.301 419.432 363.813C427.041 365.325 434.928 364.546 442.095 361.576C449.261 358.605 455.386 353.576 459.694 347.124C464.002 340.673 466.3 333.088 466.298 325.331C466.288 314.933 462.152 304.963 454.798 297.612C447.445 290.261 437.474 286.128 427.076 286.121Z" fill="#407BFF"/>
<path d="M433.469 302.818H420.684V347.843H433.469V302.818Z" fill="#407BFF"/>
<path d="M449.589 331.736V318.95H404.564V331.736H449.589Z" fill="#407BFF"/>
<path d="M158.078 25.1574L157.225 24.2424C163.028 18.7571 170.39 15.2093 178.296 14.0891L178.472 15.3426C170.821 16.4216 163.694 19.8513 158.078 25.1574Z" fill="#407BFF"/>
<path d="M148.802 38.8581L147.636 38.4068C148.901 35.2136 150.588 32.2036 152.65 29.4569L153.653 30.209C151.664 32.8672 150.033 35.7751 148.802 38.8581Z" fill="#407BFF"/>
<path d="M183.774 86.8792C202.77 86.8792 218.17 71.4797 218.17 52.4834C218.17 33.4872 202.77 18.0877 183.774 18.0877C164.778 18.0877 149.378 33.4872 149.378 52.4834C149.378 71.4797 164.778 86.8792 183.774 86.8792Z" fill="#407BFF"/>
<path d="M204.319 36.9903C202.994 35.6151 201.408 34.5178 199.655 33.7625C197.901 33.0073 196.014 32.6093 194.105 32.5918C192.195 32.5743 190.302 32.9376 188.534 33.6606C186.767 34.3836 185.161 35.4516 183.812 36.8023C182.463 35.452 180.859 34.3842 179.092 33.6614C177.326 32.9386 175.433 32.5753 173.525 32.5928C171.617 32.6103 169.731 33.0083 167.978 33.7633C166.225 34.5184 164.641 35.6155 163.317 36.9903C160.723 39.7962 159.326 43.5031 159.422 47.3231C159.518 51.1432 161.099 54.7752 163.831 57.4473L180.126 73.7427C180.615 74.2316 181.196 74.6194 181.834 74.884C182.473 75.1486 183.158 75.2848 183.849 75.2848C184.541 75.2848 185.225 75.1486 185.864 74.884C186.503 74.6194 187.083 74.2316 187.572 73.7427L203.868 57.4473C206.59 54.7669 208.161 51.1303 208.245 47.3104C208.329 43.4905 206.921 39.7882 204.319 36.9903Z" fill="white"/>
<path d="M183.774 67.5128C183.521 67.5042 183.277 67.4194 183.074 67.2695C182.87 67.1196 182.717 66.9117 182.633 66.673L175.376 45.4514L172.342 54.3261C172.256 54.5728 172.095 54.7863 171.881 54.9369C171.668 55.0874 171.413 55.1675 171.151 55.166H159.005C158.673 55.166 158.354 55.0339 158.119 54.7988C157.884 54.5638 157.752 54.2449 157.752 53.9125C157.752 53.58 157.884 53.2612 158.119 53.0261C158.354 52.7911 158.673 52.659 159.005 52.659H170.287L174.223 41.1645C174.308 40.9182 174.468 40.7046 174.68 40.5534C174.892 40.4022 175.146 40.321 175.407 40.321C175.668 40.321 175.922 40.4022 176.134 40.5534C176.346 40.7046 176.506 40.9182 176.592 41.1645L183.975 62.7621L191.145 45.8776C191.235 45.6624 191.384 45.4768 191.575 45.3417C191.765 45.2066 191.99 45.1274 192.223 45.113C192.457 45.0995 192.691 45.1523 192.897 45.2653C193.103 45.3784 193.274 45.5471 193.388 45.7523L197.174 52.6465H208.593C208.926 52.6465 209.244 52.7785 209.48 53.0136C209.715 53.2487 209.847 53.5675 209.847 53.8999C209.847 54.2324 209.715 54.5512 209.48 54.7863C209.244 55.0214 208.926 55.1534 208.593 55.1534H196.447C196.223 55.1553 196.002 55.097 195.808 54.9845C195.614 54.8721 195.454 54.7096 195.344 54.5142L192.373 49.1994L184.927 66.7482C184.831 66.9748 184.671 67.1681 184.466 67.3041C184.261 67.44 184.02 67.5126 183.774 67.5128Z" fill="#407BFF"/>
<path d="M374.618 408.888H243.791C241.659 408.912 239.546 408.492 237.586 407.655C235.625 406.817 233.86 405.581 232.403 404.025C230.946 402.469 229.828 400.627 229.122 398.616C228.415 396.604 228.134 394.468 228.298 392.342L249.444 78.9699C249.814 74.4945 251.834 70.3162 255.112 67.2468C258.389 64.1774 262.691 62.4361 267.181 62.3611H398.033C400.17 62.3367 402.289 62.7585 404.255 63.5994C406.22 64.4404 407.988 65.6821 409.446 67.2452C410.904 68.8083 412.02 70.6584 412.723 72.6772C413.425 74.6961 413.699 76.8393 413.526 78.9699L392.342 392.342C391.961 396.805 389.937 400.968 386.663 404.025C383.389 407.082 379.097 408.815 374.618 408.888Z" fill="#263238"/>
<path d="M403.624 189.979H400.327C399.73 189.986 399.138 189.869 398.589 189.634C398.04 189.399 397.547 189.052 397.14 188.616C396.732 188.179 396.421 187.662 396.225 187.098C396.029 186.534 395.953 185.936 396.002 185.341L400.051 125.437C400.145 124.184 400.706 123.012 401.623 122.153C402.54 121.294 403.746 120.811 405.002 120.799H408.299C408.896 120.792 409.488 120.909 410.037 121.144C410.586 121.378 411.079 121.725 411.487 122.162C411.894 122.598 412.205 123.115 412.401 123.679C412.597 124.243 412.673 124.842 412.624 125.437L408.575 185.341C408.481 186.594 407.92 187.766 407.003 188.624C406.086 189.483 404.88 189.967 403.624 189.979Z" fill="#263238"/>
<path d="M247.539 150.018H244.255C243.769 150.024 243.287 149.93 242.84 149.74C242.392 149.55 241.989 149.27 241.655 148.917C241.322 148.563 241.065 148.144 240.902 147.686C240.739 147.229 240.673 146.742 240.708 146.257L242.174 124.622C242.267 123.606 242.731 122.661 243.479 121.966C244.226 121.272 245.203 120.879 246.223 120.861H249.52C250.004 120.859 250.484 120.956 250.929 121.147C251.374 121.338 251.775 121.618 252.107 121.971C252.438 122.324 252.694 122.742 252.857 123.198C253.02 123.654 253.087 124.139 253.054 124.622L251.588 146.257C251.498 147.274 251.034 148.221 250.286 148.916C249.539 149.61 248.56 150.003 247.539 150.018Z" fill="#407BFF"/>
<path d="M244.932 188.65H241.635C241.15 188.655 240.67 188.559 240.224 188.369C239.778 188.178 239.376 187.898 239.044 187.544C238.712 187.191 238.456 186.773 238.294 186.316C238.132 185.859 238.066 185.373 238.1 184.89L239.567 163.254C239.659 162.239 240.124 161.293 240.871 160.599C241.619 159.905 242.596 159.511 243.616 159.494H246.937C247.422 159.491 247.901 159.588 248.347 159.779C248.792 159.97 249.193 160.251 249.524 160.604C249.856 160.957 250.112 161.374 250.275 161.83C250.438 162.286 250.505 162.771 250.472 163.254L249.006 184.89C248.915 185.911 248.448 186.861 247.695 187.557C246.942 188.252 245.957 188.642 244.932 188.65Z" fill="#407BFF"/>
<path d="M371.848 408.888H241.021C238.889 408.912 236.776 408.492 234.815 407.655C232.855 406.817 231.09 405.581 229.633 404.025C228.175 402.469 227.058 400.627 226.351 398.615C225.645 396.604 225.364 394.468 225.528 392.342L246.687 78.9698C247.069 74.4928 249.103 70.3181 252.393 67.2576C255.683 64.1971 259.993 62.4696 264.486 62.4112H395.263C397.396 62.3874 399.51 62.8079 401.472 63.6458C403.433 64.4838 405.199 65.7209 406.656 67.2784C408.113 68.836 409.231 70.6798 409.936 72.6927C410.642 74.7055 410.921 76.8432 410.756 78.9698L389.584 392.342C389.203 396.807 387.178 400.972 383.901 404.029C380.624 407.086 376.328 408.818 371.848 408.888Z" fill="#407BFF"/>
<path opacity="0.3" d="M226.907 388.832L247.564 83.0311H409.339L388.682 388.832H226.907Z" fill="white"/>
<path opacity="0.1" d="M290.772 388.832L348.508 83.0311H384.746L327.01 388.832H290.772Z" fill="white"/>
<path opacity="0.1" d="M263.396 388.832L321.131 83.0311H339.495L281.759 388.832H263.396Z" fill="white"/>
<path d="M313.548 70.0951H345.098C345.361 70.0906 345.623 70.1415 345.865 70.2444C346.108 70.3474 346.326 70.5001 346.505 70.6928C346.685 70.8854 346.822 71.1136 346.908 71.3626C346.994 71.6117 347.026 71.8759 347.003 72.1383C346.96 72.6906 346.713 73.2069 346.309 73.5869C345.906 73.9669 345.376 74.1833 344.822 74.194H313.272C313.008 74.1968 312.746 74.1443 312.504 74.0399C312.262 73.9355 312.044 73.7816 311.864 73.588C311.685 73.3944 311.548 73.1654 311.462 72.9158C311.376 72.6661 311.344 72.4013 311.367 72.1383C311.41 71.5872 311.658 71.0723 312.062 70.6944C312.465 70.3165 312.995 70.1028 313.548 70.0951Z" fill="white"/>
<path d="M306.98 439.035L295.924 440.088L291.938 414.579L302.993 413.514L306.98 439.035Z" fill="#FFB573"/>
<path d="M294.658 434.685L306.24 431.088C306.44 431.018 306.658 431.029 306.85 431.118C307.042 431.207 307.192 431.367 307.268 431.564L311.028 440.752C311.122 440.998 311.163 441.261 311.15 441.524C311.137 441.787 311.069 442.045 310.951 442.28C310.833 442.516 310.668 442.724 310.466 442.893C310.263 443.061 310.028 443.186 309.775 443.259C305.588 444.512 301.602 444.801 296.551 447.019C290.647 449.526 288.177 452.886 281.822 452.886C277.272 452.886 276.244 448.712 278.174 448.135C286.949 445.478 285.796 443.297 292.163 436.44C292.826 435.645 293.686 435.04 294.658 434.685Z" fill="#263238"/>
<path opacity="0.2" d="M291.938 414.579L293.993 427.741L305.062 426.675L303.006 413.514L291.938 414.579Z" fill="black"/>
<path d="M299.935 92.2568C285.432 90.5521 271.004 91.6928 256.527 94.5006C254.114 94.9689 251.913 96.1933 250.243 97.9963C248.573 99.7992 247.521 102.087 247.238 104.528C245.671 118.392 243.879 149.466 250.873 195.82L310.138 190.806C310.251 182.395 304.272 144.076 309.211 104.315C309.413 102.912 309.332 101.482 308.972 100.11C308.613 98.7385 307.982 97.4527 307.117 96.3287C306.253 95.2047 305.172 94.2653 303.938 93.566C302.705 92.8666 301.343 92.4215 299.935 92.2568Z" fill="white"/>
<path d="M265.426 104.14L267.545 108.377C267.644 108.59 267.801 108.772 267.998 108.901C268.195 109.029 268.425 109.1 268.66 109.104L270.954 109.229C271.364 109.247 271.766 109.123 272.095 108.878L276.043 105.932L271.167 102.385L265.426 104.14Z" fill="#263238"/>
<path d="M271.029 108.013C270.193 107.626 269.246 107.55 268.36 107.8C266.492 114.381 264.449 133.271 264.236 141.644C269.901 158.153 271.756 159.82 271.756 159.82L274.627 139.952C274.627 139.952 271.405 119.633 271.029 108.013Z" fill="#263238"/>
<path d="M287.387 63.6773C286.034 71.8501 284.88 86.7791 290.747 92.0563C286.447 96.5689 280.819 101.796 271.167 102.385C261.515 102.974 263.007 96.2931 265.451 92.7207C274.464 90.314 274.025 83.5952 272.258 77.3153L287.387 63.6773Z" fill="#FFB573"/>
<path d="M293.204 91.3418C292.52 91.047 291.811 90.8162 291.085 90.6524C290.908 90.6054 290.72 90.6179 290.55 90.6881C290.38 90.7583 290.238 90.8823 290.145 91.041C289.218 92.6204 286.385 99.6775 271.167 102.385C273.674 103.864 276.996 108.452 278.425 110.658C282.988 108.289 294.858 101.207 293.73 92.0437C293.707 91.8924 293.647 91.7491 293.555 91.6266C293.463 91.5041 293.343 91.4063 293.204 91.3418Z" fill="#F5F5F5"/>
<path d="M265.539 93.0966C265.571 92.954 265.567 92.8056 265.527 92.665C265.488 92.5243 265.413 92.3958 265.311 92.2912C265.209 92.1866 265.082 92.1092 264.943 92.0659C264.803 92.0227 264.655 92.0151 264.511 92.0437C263.984 92.146 263.465 92.2842 262.957 92.4573C262.84 92.5033 262.73 92.5667 262.631 92.6454C261.465 93.7234 255.11 102.899 261.064 110.32C262.318 108.301 266.642 103.726 271.167 102.385C266.88 100.455 264.775 96.8571 265.539 93.0966Z" fill="#F5F5F5"/>
<path opacity="0.2" d="M281.22 69.2427L272.27 77.3152C272.702 78.7732 273.004 80.2665 273.173 81.7776C276.633 81.1885 281.283 77.2651 281.534 73.6299C281.703 72.1608 281.597 70.6729 281.22 69.2427Z" fill="black"/>
<path d="M269.262 38.971C261.541 41.9919 261.039 48.3346 261.741 55.2664C262.443 62.1982 269.989 57.6104 271.669 53.2733C273.348 48.9363 279.954 34.7844 269.262 38.971Z" fill="#263238"/>
<path d="M293.893 52.797C291.75 63.7149 291.035 70.1954 284.793 75.2219C275.379 82.7428 262.631 76.2498 261.503 64.9934C260.488 54.8527 264.16 38.6702 275.404 35.5114C277.856 34.7894 280.454 34.7198 282.942 35.3093C285.429 35.8988 287.719 37.1271 289.586 38.8727C291.454 40.6184 292.833 42.8211 293.588 45.2631C294.344 47.7051 294.449 50.3019 293.893 52.797Z" fill="#FFB573"/>
<path d="M293.442 61.8347C284.254 62.3235 286.197 57.109 287.864 54.1132C289.531 51.1173 286.134 46.166 288.353 43.5964C284.392 45.1758 280.218 43.8721 274.915 40.1869C270.804 37.3164 265.652 48.7858 260.638 43.0323C255.9 37.6047 260.3 29.4194 271.681 28.1032C283.063 26.7871 285.131 34.8345 292.602 34.12C300.073 33.4055 297.478 39.5601 296.012 40.8136C302.279 41.2273 305.701 47.219 293.442 61.8347Z" fill="#263238"/>
<path d="M294.57 41.5782C296.008 40.7898 297.208 39.6315 298.048 38.2232C298.888 36.815 299.336 35.208 299.346 33.5685C301.828 37.9181 301.565 42.8568 294.57 41.5782Z" fill="#263238"/>
<path d="M270.754 64.4544C271.752 64.6273 272.776 64.5965 273.762 64.3638C274.749 64.1312 275.678 63.7015 276.495 63.1006C276.519 63.0772 276.539 63.049 276.552 63.0178C276.566 62.9865 276.573 62.9529 276.573 62.9189C276.573 62.8849 276.566 62.8512 276.552 62.82C276.539 62.7887 276.519 62.7606 276.495 62.7371C276.446 62.6904 276.381 62.6643 276.313 62.6643C276.245 62.6643 276.18 62.6904 276.131 62.7371C275.217 63.3851 274.165 63.8119 273.058 63.9837C271.95 64.1556 270.818 64.0678 269.751 63.7274C269.683 63.7104 269.611 63.7189 269.549 63.7512C269.486 63.7835 269.438 63.8374 269.412 63.9029C269.393 63.9694 269.4 64.0409 269.433 64.1019C269.466 64.1629 269.522 64.2085 269.588 64.2288C269.969 64.3387 270.359 64.4142 270.754 64.4544Z" fill="#263238"/>
<path d="M296.112 65.1815C294.395 67.3933 291.879 68.8427 289.105 69.2177C285.457 69.694 284.241 66.2971 285.771 63.1258C287.162 60.2678 290.784 56.5825 294.144 57.5728C297.503 58.5631 298.218 62.4238 296.112 65.1815Z" fill="#FFB573"/>
<path d="M292.489 302.555C292.928 269.826 297.115 191.872 297.115 191.872L250.911 195.77C250.911 195.77 260.099 276.106 265.639 309.499C271.405 344.208 289.092 425.522 289.092 425.522L307.895 423.918C307.895 423.918 301.025 327.863 292.489 302.555Z" fill="#263238"/>
<path d="M287.964 426.036L310.264 424.143L309.386 416.948L286.147 418.502L287.964 426.036Z" fill="#407BFF"/>
<path d="M277.422 53.4488C277.309 54.3388 276.733 55.0156 276.169 54.953C275.605 54.8903 275.216 54.1131 275.342 53.2106C275.467 52.3081 276.031 51.6437 276.595 51.7064C277.159 51.7691 277.548 52.5588 277.422 53.4488Z" fill="#263238"/>
<path d="M267.194 52.6466C267.081 53.5491 266.504 54.2134 265.94 54.1507C265.376 54.0881 264.988 53.3109 265.113 52.4209C265.238 51.531 265.802 50.8541 266.366 50.9167C266.931 50.9794 267.319 51.7064 267.194 52.6466Z" fill="#263238"/>
<path d="M270.077 53.6995C268.567 56.0191 266.754 58.1268 264.687 59.9669C266.016 61.3583 268.761 60.9823 268.761 60.9823L270.077 53.6995Z" fill="#ED893E"/>
<path opacity="0.4" d="M260.726 52.8722C260.538 54.3012 261.979 55.492 263.972 55.7427C265.965 55.9934 267.808 54.9029 267.983 53.4739" fill="#407BFF"/>
<path opacity="0.4" d="M272.571 54.2009C272.295 55.6173 273.687 56.8959 275.642 57.272C277.598 57.648 279.516 56.6452 279.779 55.2413" fill="#407BFF"/>
<path d="M276.42 57.6605C276.194 57.673 275.968 57.673 275.743 57.6605C274.779 57.5453 273.874 57.1386 273.148 56.4948C272.831 56.224 272.584 55.8812 272.427 55.4952C272.27 55.1092 272.208 54.6911 272.245 54.2761C271.609 53.9991 270.931 53.8297 270.24 53.7747C269.544 53.6012 268.817 53.6012 268.121 53.7747C267.946 55.304 266.041 56.3569 263.91 56.0937C262.946 55.9883 262.039 55.5852 261.315 54.9405C261 54.6684 260.754 54.3254 260.597 53.9397C260.44 53.554 260.377 53.1366 260.412 52.7218L261.014 52.797C260.989 53.1175 261.04 53.4394 261.165 53.736C261.289 54.0325 261.482 54.295 261.729 54.5017C262.36 55.0575 263.148 55.4035 263.985 55.492C265.79 55.7301 267.394 54.8903 267.557 53.6368C267.645 52.9349 269.099 52.985 270.302 53.1354C271.506 53.2858 272.935 53.6243 272.809 54.3137C272.783 54.6343 272.834 54.9566 272.959 55.2533C273.083 55.55 273.277 55.8124 273.524 56.0185C274.163 56.5668 274.949 56.916 275.784 57.0229C276.62 57.1298 277.468 56.9898 278.225 56.6201C278.517 56.4842 278.771 56.28 278.968 56.0247C279.164 55.7694 279.296 55.4706 279.353 55.1535V54.8527L294.821 56.8458L294.746 57.4474L279.854 55.5296C279.746 55.8785 279.568 56.2018 279.331 56.4797C279.094 56.7577 278.803 56.9846 278.475 57.1466C277.842 57.4819 277.136 57.6582 276.42 57.6605Z" fill="#263238"/>
<path d="M281.358 49.5128C281.447 49.5131 281.535 49.4869 281.609 49.4376C281.731 49.3668 281.82 49.2509 281.858 49.115C281.895 48.9791 281.878 48.8339 281.809 48.7106C281.421 47.9816 280.858 47.3598 280.172 46.9005C279.485 46.4413 278.696 46.1589 277.874 46.0783C277.733 46.0714 277.595 46.12 277.489 46.2138C277.384 46.3075 277.319 46.4389 277.309 46.5797C277.303 46.7173 277.35 46.8521 277.441 46.9553C277.533 47.0584 277.661 47.1215 277.798 47.1312C278.449 47.2076 279.071 47.4416 279.61 47.813C280.15 48.1843 280.591 48.6818 280.894 49.2621C280.942 49.3419 281.01 49.4073 281.092 49.4515C281.173 49.4956 281.265 49.5168 281.358 49.5128Z" fill="#263238"/>
<path d="M263.885 48.0964C263.971 48.1049 264.059 48.0922 264.14 48.0594C264.22 48.0267 264.292 47.9748 264.348 47.9083C264.754 47.3776 265.278 46.9491 265.879 46.6574C266.479 46.3657 267.14 46.2189 267.808 46.2287C267.877 46.2356 267.947 46.2287 268.014 46.2085C268.08 46.1882 268.142 46.155 268.196 46.1107C268.249 46.0664 268.293 46.0119 268.326 45.9504C268.358 45.8889 268.378 45.8216 268.385 45.7523C268.393 45.6848 268.389 45.6161 268.371 45.5504C268.353 45.4847 268.322 45.4232 268.28 45.3696C268.238 45.3159 268.185 45.2712 268.126 45.2379C268.067 45.2046 268.001 45.1835 267.933 45.1757C267.091 45.1537 266.256 45.3293 265.494 45.6885C264.732 46.0477 264.065 46.5804 263.546 47.244C263.457 47.3506 263.413 47.4881 263.425 47.6267C263.437 47.7653 263.503 47.8935 263.609 47.9835C263.691 48.0423 263.785 48.081 263.885 48.0964Z" fill="#263238"/>
<path d="M330.984 297.278C321.395 247.99 319.239 209.446 310.138 190.731L265.376 195.745C265.376 195.745 292.038 269.187 305.062 300.537C318.587 333.127 345.286 388.807 345.286 388.807H367.648C367.648 388.807 346.778 319.728 330.984 297.278Z" fill="#263238"/>
<path d="M189.101 110.696L184.263 107.637C183.478 107.131 182.541 106.913 181.613 107.021C180.685 107.128 179.823 107.554 179.174 108.226L175.89 111.686C175.536 112.059 175.263 112.501 175.086 112.985C174.91 113.468 174.835 113.982 174.866 114.495C174.896 115.009 175.032 115.511 175.264 115.969C175.496 116.428 175.82 116.835 176.216 117.164L178.56 119.169C180.598 120.897 182.977 122.178 185.542 122.93L192.624 125.023L197.274 120.009C198.691 114.782 189.101 110.696 189.101 110.696Z" fill="#FFB573"/>
<path d="M260.726 108.352C258.971 112.639 257.254 116.625 255.386 120.698C253.518 124.772 251.625 128.796 249.532 132.795C247.439 136.793 245.208 140.767 242.676 144.753C241.422 146.733 240.031 148.714 238.451 150.707C236.753 152.905 234.82 154.91 232.685 156.686C231.276 157.838 229.721 158.799 228.06 159.544C227.533 159.745 227.045 159.945 226.468 160.121L225.591 160.359C225.149 160.467 224.701 160.547 224.249 160.597C222.721 160.769 221.175 160.659 219.687 160.271C217.826 159.75 216.058 158.943 214.447 157.877C213.24 157.124 212.088 156.286 211 155.37C207.382 152.212 204.048 148.743 201.035 145.004C198.114 141.494 195.356 137.972 192.711 134.374C190.067 130.777 187.522 127.242 184.915 123.469L198.778 114.519C203.153 121.581 207.994 128.344 213.269 134.763C215.693 137.736 218.364 140.499 221.253 143.023C221.813 143.481 222.404 143.9 223.021 144.277C223.485 144.59 223.948 144.715 223.623 144.603C223.182 144.481 222.72 144.456 222.269 144.527C222.086 144.544 221.906 144.578 221.73 144.628H221.629C221.567 144.628 221.567 144.628 221.554 144.628C221.839 144.441 222.112 144.236 222.369 144.013C223.513 142.975 224.55 141.824 225.465 140.579C226.531 139.15 227.596 137.545 228.611 135.878C230.687 132.412 232.578 128.839 234.277 125.173C236.032 121.413 237.724 117.652 239.291 113.742C240.858 109.831 242.35 105.857 243.616 102.059L260.726 108.352Z" fill="#407BFF"/>
<g opacity="0.6">
<path d="M260.726 108.352C258.971 112.639 257.254 116.625 255.386 120.698C253.518 124.772 251.625 128.796 249.532 132.795C247.439 136.793 245.208 140.767 242.676 144.753C241.422 146.733 240.031 148.714 238.451 150.707C236.753 152.905 234.82 154.91 232.685 156.686C231.276 157.838 229.721 158.799 228.06 159.544C227.533 159.745 227.045 159.945 226.468 160.121L225.591 160.359C225.149 160.467 224.701 160.547 224.249 160.597C222.721 160.769 221.175 160.659 219.687 160.271C217.826 159.75 216.058 158.943 214.447 157.877C213.24 157.124 212.088 156.286 211 155.37C207.382 152.212 204.048 148.743 201.035 145.004C198.114 141.494 195.356 137.972 192.711 134.374C190.067 130.777 187.522 127.242 184.915 123.469L198.778 114.519C203.153 121.581 207.994 128.344 213.269 134.763C215.693 137.736 218.364 140.499 221.253 143.023C221.813 143.481 222.404 143.9 223.021 144.277C223.485 144.59 223.948 144.715 223.623 144.603C223.182 144.481 222.72 144.456 222.269 144.527C222.086 144.544 221.906 144.578 221.73 144.628H221.629C221.567 144.628 221.567 144.628 221.554 144.628C221.839 144.441 222.112 144.236 222.369 144.013C223.513 142.975 224.55 141.824 225.465 140.579C226.531 139.15 227.596 137.545 228.611 135.878C230.687 132.412 232.578 128.839 234.277 125.173C236.032 121.413 237.724 117.652 239.291 113.742C240.858 109.831 242.35 105.857 243.616 102.059L260.726 108.352Z" fill="white"/>
</g>
<path d="M293.542 89.1106C288.842 97.885 272.107 131.316 270.077 151.948C262.669 133.146 264.286 91.5549 264.286 91.5549C259.006 92.0695 253.827 93.3358 248.905 95.3153C247.319 95.967 245.945 97.0451 244.933 98.4301C243.922 99.8151 243.314 101.453 243.177 103.162C241.734 124.682 242.414 146.292 245.208 167.679C250.41 208.167 255.235 271.13 255.235 271.13C255.235 271.13 296.663 269.4 328.627 262.656C324.729 231.708 311.392 179.838 311.266 165.949C311.116 148.075 311.53 113.127 312.094 98.5368C312.188 96.4768 311.543 94.451 310.274 92.8256C309.005 91.2002 307.196 90.0825 305.175 89.6746C301.34 88.9641 297.427 88.7743 293.542 89.1106Z" fill="#407BFF"/>
<path opacity="0.7" d="M293.542 89.1106C288.842 97.885 272.107 131.316 270.077 151.948C262.669 133.146 264.286 91.5549 264.286 91.5549C259.006 92.0695 253.827 93.3358 248.905 95.3154C247.319 95.9671 245.945 97.0451 244.933 98.4301C243.922 99.8151 243.314 101.453 243.177 103.162C241.734 124.682 242.414 146.292 245.208 167.679C250.41 208.167 255.235 271.13 255.235 271.13C255.235 271.13 296.663 269.4 328.627 262.656C324.729 231.708 311.392 179.838 311.266 165.949C311.116 148.075 311.53 113.115 312.094 98.5243C312.212 96.527 311.622 94.5519 310.428 92.9468C309.233 91.3418 307.51 90.2097 305.563 89.7499C301.606 88.9743 297.559 88.7591 293.542 89.1106Z" fill="white"/>
<path d="M283.777 264.411C276.582 224.713 270.879 166.463 270.415 159.456H271.055C271.518 166.463 277.234 224.638 284.417 264.336L283.777 264.411Z" fill="white"/>
<path d="M280.193 193.789H241.986C241.215 193.755 240.475 193.471 239.879 192.98C239.282 192.49 238.86 191.82 238.677 191.069L225.904 131.692C225.81 131.367 225.795 131.026 225.859 130.695C225.924 130.363 226.066 130.052 226.274 129.787C226.482 129.521 226.75 129.309 227.056 129.167C227.362 129.025 227.698 128.958 228.035 128.972H266.229C267.002 129.004 267.745 129.286 268.344 129.777C268.943 130.267 269.366 130.939 269.55 131.692L282.323 191.069C282.417 191.394 282.432 191.735 282.368 192.066C282.304 192.398 282.162 192.709 281.954 192.974C281.745 193.24 281.477 193.452 281.171 193.594C280.865 193.736 280.53 193.803 280.193 193.789Z" fill="white"/>
<path d="M279.002 194.291H240.144C239.358 194.254 238.605 193.965 237.998 193.466C237.39 192.966 236.96 192.284 236.772 191.521L223.773 131.14C223.68 130.809 223.666 130.461 223.733 130.124C223.8 129.787 223.946 129.47 224.159 129.2C224.372 128.93 224.645 128.714 224.957 128.57C225.269 128.426 225.611 128.357 225.954 128.37H264.812C265.598 128.406 266.35 128.696 266.958 129.195C267.566 129.694 267.996 130.377 268.184 131.14L281.17 191.521C281.266 191.851 281.282 192.199 281.216 192.536C281.151 192.873 281.007 193.19 280.795 193.461C280.583 193.731 280.31 193.948 279.998 194.092C279.687 194.236 279.345 194.304 279.002 194.291Z" fill="#407BFF"/>
<path d="M283.452 160.221L273.787 159.858C272.625 159.818 271.468 160.022 270.39 160.459L265.376 162.465C264.906 162.651 264.478 162.93 264.118 163.286C263.758 163.642 263.474 164.066 263.282 164.534C263.09 165.003 262.994 165.505 263.001 166.011C263.008 166.516 263.116 167.016 263.321 167.479L265.326 171.816C265.731 172.657 266.413 173.333 267.258 173.73C268.102 174.128 269.058 174.222 269.964 173.997L275.492 172.618C275.492 172.618 285.871 171.791 286.247 166.351L283.452 160.221Z" fill="#FFB573"/>
<path d="M310.138 94.488C312.533 98.2485 314.726 101.683 316.882 105.368C319.038 109.054 321.157 112.701 323.15 116.512C325.143 120.322 327.035 124.258 328.753 128.47C329.644 130.676 330.406 132.932 331.034 135.226C331.842 138.023 332.214 140.928 332.137 143.838V144.327C332.141 144.41 332.141 144.494 332.137 144.577C332.137 145.029 332.012 145.48 331.924 145.931C331.836 146.382 331.723 146.733 331.598 147.185C331.473 147.636 331.335 147.874 331.197 148.225C330.718 149.31 330.103 150.329 329.367 151.259C328.343 152.538 327.178 153.699 325.895 154.718C323.923 156.271 321.827 157.659 319.627 158.867C315.758 160.983 311.774 162.883 307.694 164.558C303.746 166.238 299.81 167.767 295.849 169.209C291.888 170.65 287.989 172.041 283.865 173.42L279.089 157.626C282.85 156.598 286.686 155.332 290.433 154.054C294.181 152.775 297.954 151.346 301.514 149.855C305.008 148.411 308.415 146.767 311.718 144.928C313.112 144.156 314.441 143.271 315.691 142.284C316.02 142.034 316.315 141.744 316.569 141.419C316.461 141.54 316.376 141.68 316.318 141.832C316.318 141.945 316.255 142.02 316.193 142.158C316.143 142.305 316.106 142.456 316.08 142.609C316.027 142.802 315.994 142.999 315.98 143.199C315.98 143.274 315.98 143.286 315.98 143.261V143.174C315.892 141.984 315.661 140.81 315.29 139.676C314.789 138.035 314.195 136.424 313.51 134.85C311.978 131.381 310.245 128.003 308.321 124.735C306.365 121.375 304.285 118.016 302.053 114.707C299.822 111.398 297.541 108.101 295.247 105.093L310.138 94.488Z" fill="#407BFF"/>
<g opacity="0.7">
<path d="M310.138 94.488C312.533 98.2485 314.726 101.683 316.882 105.368C319.038 109.054 321.157 112.701 323.15 116.512C325.143 120.322 327.035 124.258 328.753 128.47C329.644 130.676 330.406 132.932 331.034 135.226C331.842 138.023 332.214 140.928 332.137 143.838V144.327C332.141 144.41 332.141 144.494 332.137 144.577C332.137 145.029 332.012 145.48 331.924 145.931C331.836 146.382 331.723 146.733 331.598 147.185C331.473 147.636 331.335 147.874 331.197 148.225C330.718 149.31 330.103 150.329 329.367 151.259C328.343 152.538 327.178 153.699 325.895 154.718C323.923 156.271 321.827 157.659 319.627 158.867C315.758 160.983 311.774 162.883 307.694 164.558C303.746 166.238 299.81 167.767 295.849 169.209C291.888 170.65 287.989 172.041 283.865 173.42L279.089 157.626C282.85 156.598 286.686 155.332 290.433 154.054C294.181 152.775 297.954 151.346 301.514 149.855C305.008 148.411 308.415 146.767 311.718 144.928C313.112 144.156 314.441 143.271 315.691 142.284C316.02 142.034 316.315 141.744 316.569 141.419C316.461 141.54 316.376 141.68 316.318 141.832C316.318 141.945 316.255 142.02 316.193 142.158C316.143 142.305 316.106 142.456 316.08 142.609C316.027 142.802 315.994 142.999 315.98 143.199C315.98 143.274 315.98 143.286 315.98 143.261V143.174C315.892 141.984 315.661 140.81 315.29 139.676C314.789 138.035 314.195 136.424 313.51 134.85C311.978 131.381 310.245 128.003 308.321 124.735C306.365 121.375 304.285 118.016 302.053 114.707C299.822 111.398 297.541 108.101 295.247 105.093L310.138 94.488Z" fill="white"/>
</g>
<path d="M297.453 137.984C297.369 137.983 297.288 137.961 297.215 137.919C297.143 137.877 297.082 137.818 297.039 137.746C297.003 137.691 296.977 137.63 296.965 137.565C296.953 137.5 296.954 137.434 296.968 137.369C296.982 137.305 297.009 137.244 297.047 137.19C297.085 137.136 297.134 137.091 297.19 137.057L299.145 135.803C300.97 134.652 302.403 132.974 303.254 130.991C304.104 129.008 304.333 126.813 303.908 124.697L299.973 104.767C299.684 103.276 298.902 101.927 297.752 100.937C296.602 99.9461 295.151 99.3726 293.635 99.3088C292.118 99.245 290.625 99.6947 289.395 100.585C288.166 101.475 287.273 102.754 286.861 104.215L281.283 123.757C280.674 125.823 280.707 128.025 281.379 130.071C282.051 132.117 283.329 133.911 285.043 135.214L286.899 136.618C287.003 136.699 287.071 136.819 287.087 136.951C287.104 137.082 287.068 137.215 286.986 137.32C286.947 137.371 286.898 137.414 286.842 137.446C286.786 137.479 286.724 137.499 286.66 137.508C286.596 137.516 286.531 137.511 286.468 137.494C286.406 137.477 286.348 137.447 286.297 137.408L284.542 136.016C282.657 134.597 281.248 132.638 280.503 130.399C279.757 128.16 279.71 125.747 280.368 123.481L285.959 103.939C286.438 102.271 287.465 100.812 288.874 99.7963C290.282 98.781 291.991 98.2684 293.726 98.3407C295.461 98.413 297.121 99.066 298.44 100.195C299.759 101.324 300.661 102.863 301 104.566L304.936 124.509C305.401 126.821 305.152 129.219 304.223 131.385C303.294 133.552 301.729 135.386 299.734 136.643L297.766 137.896C297.723 137.931 297.673 137.957 297.619 137.972C297.565 137.987 297.508 137.991 297.453 137.984Z" fill="#263238"/>
<path d="M300.461 105.18L286.385 104.591C286.319 104.588 286.254 104.572 286.195 104.544C286.135 104.515 286.082 104.476 286.037 104.427C285.993 104.378 285.959 104.321 285.937 104.259C285.915 104.196 285.905 104.131 285.908 104.065C285.921 103.934 285.982 103.813 286.079 103.724C286.177 103.636 286.304 103.588 286.435 103.588L300.499 104.178C300.565 104.181 300.63 104.197 300.689 104.225C300.749 104.253 300.802 104.293 300.846 104.342C300.891 104.391 300.925 104.448 300.947 104.51C300.969 104.572 300.979 104.638 300.975 104.704C300.974 104.769 300.959 104.834 300.932 104.893C300.905 104.953 300.867 105.006 300.819 105.051C300.771 105.095 300.715 105.129 300.653 105.152C300.592 105.174 300.527 105.184 300.461 105.18Z" fill="#263238"/>
<path d="M293.617 99.339C293.487 99.336 293.364 99.2839 293.271 99.1932C293.177 99.1025 293.122 98.9799 293.116 98.8502C293.116 96.3432 292.339 91.9936 289.995 91.0409C289.93 91.0192 289.87 90.9843 289.819 90.9386C289.768 90.8929 289.727 90.8372 289.699 90.775C289.67 90.7128 289.655 90.6455 289.653 90.5771C289.652 90.5087 289.664 90.4407 289.69 90.3772C289.715 90.3138 289.754 90.2563 289.803 90.2083C289.851 90.1603 289.909 90.1228 289.973 90.0981C290.037 90.0733 290.105 90.062 290.174 90.0646C290.242 90.0672 290.309 90.0838 290.371 90.1134C293.843 91.5423 294.131 98.0855 294.131 98.8878C294.131 99.0198 294.081 99.1469 293.99 99.2426C293.899 99.3383 293.774 99.3953 293.642 99.4017L293.617 99.339Z" fill="#263238"/>
<path d="M250.56 116.374H250.46C250.33 116.347 250.217 116.27 250.144 116.159C250.071 116.049 250.045 115.914 250.071 115.785C251.726 107.549 258.57 94.5507 264.599 90.7151C264.654 90.6808 264.715 90.6579 264.779 90.6476C264.843 90.6373 264.909 90.6398 264.972 90.6549C265.035 90.6701 265.094 90.6976 265.146 90.7359C265.198 90.7742 265.243 90.8225 265.276 90.878C265.312 90.9317 265.338 90.9923 265.35 91.0561C265.362 91.1199 265.361 91.1855 265.347 91.2489C265.333 91.3123 265.306 91.3722 265.268 91.4248C265.23 91.4774 265.181 91.5217 265.126 91.5549C259.297 95.2401 252.653 107.85 251.049 115.96C251.028 116.075 250.968 116.18 250.879 116.255C250.79 116.331 250.677 116.373 250.56 116.374Z" fill="#263238"/>
<path d="M254.671 117.665C253.894 119.658 252.164 120.861 250.911 120.347C249.657 119.834 249.169 117.841 249.946 115.797C250.723 113.754 252.453 112.601 253.706 113.127C254.96 113.654 255.461 115.672 254.671 117.665Z" fill="white"/>
<path d="M287.764 137.082C287.764 138.009 287.187 138.749 286.573 138.724C285.959 138.699 285.482 137.921 285.52 136.981C285.557 136.041 286.096 135.302 286.711 135.339C287.325 135.377 287.801 136.141 287.764 137.082Z" fill="white"/>
<path d="M298.569 137.533C298.569 138.46 298.005 139.2 297.378 139.175C296.751 139.15 296.3 138.373 296.337 137.433C296.375 136.492 296.902 135.765 297.591 135.79C298.28 135.816 298.606 136.63 298.569 137.533Z" fill="white"/>
<path d="M511.135 120.147L509.882 120.072C510.09 117.403 509.742 114.72 508.859 112.193C507.975 109.666 506.577 107.35 504.751 105.393C502.925 103.435 500.713 101.878 498.253 100.821C495.794 99.7638 493.142 99.2292 490.465 99.2513V97.9978C493.314 97.9736 496.136 98.5416 498.753 99.6659C501.371 100.79 503.726 102.446 505.669 104.529C507.613 106.611 509.102 109.075 510.043 111.764C510.984 114.452 511.356 117.307 511.135 120.147Z" fill="#407BFF"/>
<path d="M511.797 125.403L511.07 135.781L512.323 135.869L513.05 125.49L511.797 125.403Z" fill="#407BFF"/>
<path d="M490.465 102.385H403.975C399.251 102.463 394.726 104.294 391.278 107.524C387.831 110.754 385.708 115.15 385.323 119.859L384.533 131.504C384.354 133.744 384.643 135.998 385.383 138.12C386.122 140.243 387.296 142.188 388.829 143.832C390.362 145.476 392.221 146.783 394.287 147.669C396.353 148.554 398.581 149 400.828 148.977H487.319L504.091 159.319L506.748 119.859C506.929 117.619 506.642 115.365 505.904 113.243C505.165 111.12 503.993 109.175 502.461 107.53C500.929 105.886 499.071 104.58 497.005 103.694C494.94 102.808 492.713 102.362 490.465 102.385Z" fill="#407BFF"/>
<path d="M486.078 119.069H405.968V121.977H486.078V119.069Z" fill="white"/>
<path d="M485.376 129.385H425.898V132.293H485.376V129.385Z" fill="white"/>
<path d="M360.353 164.683H448.749C451.047 164.659 453.326 165.113 455.438 166.018C457.551 166.923 459.452 168.259 461.019 169.939C462.587 171.62 463.787 173.609 464.542 175.78C465.298 177.95 465.593 180.255 465.408 182.546L464.606 194.454C464.209 199.265 462.038 203.757 458.515 207.058C454.991 210.359 450.367 212.233 445.54 212.316H357.132L338.555 222.908L341.288 182.546C341.682 177.733 343.852 173.239 347.376 169.938C350.9 166.637 355.525 164.764 360.353 164.683Z" fill="white"/>
<path opacity="0.15" d="M360.353 164.683H448.749C451.047 164.659 453.326 165.113 455.438 166.018C457.551 166.923 459.452 168.259 461.019 169.939C462.587 171.62 463.787 173.609 464.542 175.78C465.298 177.95 465.593 180.255 465.408 182.546L464.606 194.454C464.209 199.265 462.038 203.757 458.515 207.058C454.991 210.359 450.367 212.233 445.54 212.316H357.132L338.555 222.908L341.288 182.546C341.682 177.733 343.852 173.239 347.376 169.938C350.9 166.637 355.525 164.764 360.353 164.683Z" fill="#407BFF"/>
<path opacity="0.5" d="M444.262 181.743H362.334V184.727H444.262V181.743Z" fill="#407BFF"/>
<path opacity="0.5" d="M393.997 192.285H361.619V195.269H393.997V192.285Z" fill="#407BFF"/>
<path opacity="0.5" d="M422.614 192.285H401.931V195.269H422.614V192.285Z" fill="#407BFF"/>
</svg>
