<svg width="604" height="470" viewBox="0 0 604 470" fill="none" xmlns="http://www.w3.org/2000/svg">
<path d="M603.016 413.029H0V413.344H603.016V413.029Z" fill="#EBEBEB"/>
<path d="M542.593 433.327H502.65V433.642H542.593V433.327Z" fill="#EBEBEB"/>
<path d="M399.462 436.758H388.981V437.074H399.462V436.758Z" fill="#EBEBEB"/>
<path d="M501.444 421.62H478.3V421.935H501.444V421.62Z" fill="#EBEBEB"/>
<path d="M115.357 423.739H63.2684V424.055H115.357V423.739Z" fill="#EBEBEB"/>
<path d="M133.737 423.739H126.103V424.055H133.737V423.739Z" fill="#EBEBEB"/>
<path d="M271.538 429.063H158.557V429.378H271.538V429.063Z" fill="#EBEBEB"/>
<path d="M285.829 356.764H52.9569C51.1326 356.761 49.3841 356 48.0952 354.65C46.8064 353.299 46.0825 351.469 46.0825 349.561V7.14033C46.0984 5.243 46.8293 3.42884 48.1164 2.09191C49.4035 0.75498 51.143 0.00325022 52.9569 0H285.829C287.656 0 289.407 0.758928 290.699 2.10983C291.99 3.46073 292.716 5.29294 292.716 7.2034V349.561C292.716 351.471 291.99 353.303 290.699 354.654C289.407 356.005 287.656 356.764 285.829 356.764ZM52.9569 0.252309C51.2125 0.255651 49.5407 0.982823 48.3084 2.27422C47.0761 3.56561 46.384 5.31569 46.384 7.14033V349.561C46.384 351.385 47.0761 353.135 48.3084 354.427C49.5407 355.718 51.2125 356.445 52.9569 356.449H285.829C287.575 356.445 289.248 355.719 290.482 354.427C291.716 353.136 292.411 351.386 292.414 349.561V7.14033C292.411 5.31454 291.716 3.56448 290.482 2.27345C289.248 0.982413 287.575 0.255644 285.829 0.252309H52.9569Z" fill="#EBEBEB"/>
<path d="M546.706 356.764H313.821C311.996 356.761 310.246 356.001 308.955 354.651C307.665 353.3 306.938 351.47 306.935 349.561V7.14033C306.954 5.24185 307.688 3.42771 308.977 2.09112C310.266 0.754539 312.006 0.00321477 313.821 0H546.706C548.518 0.00656569 550.254 0.759763 551.539 2.09634C552.823 3.43292 553.552 5.24518 553.568 7.14033V349.561C553.568 351.467 552.846 353.295 551.56 354.645C550.274 355.995 548.528 356.757 546.706 356.764ZM313.821 0.252309C312.076 0.255644 310.403 0.982413 309.169 2.27345C307.934 3.56448 307.24 5.31454 307.236 7.14033V349.561C307.24 351.386 307.934 353.136 309.169 354.427C310.403 355.719 312.076 356.445 313.821 356.449H546.706C548.451 356.445 550.124 355.719 551.359 354.427C552.593 353.136 553.288 351.386 553.291 349.561V7.14033C553.288 5.31454 552.593 3.56448 551.359 2.27345C550.124 0.982413 548.451 0.255644 546.706 0.252309H313.821Z" fill="#EBEBEB"/>
<path d="M152.696 70.9365H80.7559V183.113H152.696V70.9365Z" fill="#E6E6E6"/>
<path d="M152.696 183.125H153.829V70.9492H152.696V183.125Z" fill="#E0E0E0"/>
<path d="M148.631 178.861V75.2005H84.8322V178.861H148.631Z" fill="#FAFAFA"/>
<path d="M128.794 118.522C135.454 111.556 135.454 100.261 128.794 93.2949C122.135 86.3287 111.337 86.3287 104.677 93.2949C98.0176 100.261 98.0176 111.556 104.677 118.522C111.337 125.488 122.135 125.488 128.794 118.522Z" fill="#F0F0F0"/>
<path d="M137.765 134.064H95.6865V138.568H137.765V134.064Z" fill="#EBEBEB"/>
<path d="M137.765 146.049H95.6865V150.552H137.765V146.049Z" fill="#EBEBEB"/>
<path d="M137.765 158.021H95.6865V162.524H137.765V158.021Z" fill="#EBEBEB"/>
<path d="M243.1 87.0968H171.16V199.273H243.1V87.0968Z" fill="#E6E6E6"/>
<path d="M243.1 199.26H244.233V87.0841H243.1V199.26Z" fill="#E0E0E0"/>
<path d="M239.035 195.022V91.3608H175.236V195.022H239.035Z" fill="#FAFAFA"/>
<path d="M223.715 126.141C225.878 116.552 220.201 106.945 211.035 104.682C201.868 102.419 192.684 108.357 190.52 117.945C188.357 127.534 194.034 137.141 203.2 139.404C212.367 141.667 221.551 135.729 223.715 126.141Z" fill="#F0F0F0"/>
<path d="M228.169 150.224H186.091V154.728H228.169V150.224Z" fill="#EBEBEB"/>
<path d="M228.169 162.196H186.091V166.7H228.169V162.196Z" fill="#EBEBEB"/>
<path d="M228.169 174.168H186.091V178.672H228.169V174.168Z" fill="#EBEBEB"/>
<path d="M496.8 246.001H182.4V249.508H496.8V246.001Z" fill="#EBEBEB"/>
<path d="M496.788 249.508H522.248V246.001H496.788V249.508Z" fill="#E0E0E0"/>
<path d="M496.788 249.508H186.706V413.029H496.788V249.508Z" fill="#F5F5F5"/>
<path d="M256.258 249.508H254.521V413.029H256.258V249.508Z" fill="#E6E6E6"/>
<path d="M338.268 282.762H336.531V413.029H338.268V282.762Z" fill="#E6E6E6"/>
<path d="M255.389 380.683V378.866H186.718V380.683H255.389Z" fill="#E6E6E6"/>
<path d="M255.389 348.337V346.52H186.718V348.337H255.389Z" fill="#E6E6E6"/>
<path d="M255.389 315.991V314.174H186.718V315.991H255.389Z" fill="#E6E6E6"/>
<path d="M496.8 283.67V281.854H186.718V283.67H496.8Z" fill="#E6E6E6"/>
<path d="M496.8 413.029H519.076V249.508H496.8V413.029Z" fill="#EBEBEB"/>
<path d="M502.035 27.3881H392.286V190.859H502.035V27.3881Z" fill="#FAFAFA"/>
<path d="M503.241 29.3561H391.08C390.833 29.3561 390.589 29.3051 390.362 29.2061C390.134 29.107 389.927 28.9618 389.754 28.7789C389.58 28.596 389.443 28.379 389.349 28.1403C389.256 27.9016 389.209 27.6459 389.21 27.3881C389.209 27.1309 389.256 26.8758 389.35 26.6378C389.443 26.3998 389.581 26.1836 389.754 26.0017C389.928 25.8198 390.135 25.6758 390.363 25.5782C390.59 25.4805 390.834 25.431 391.08 25.4327H503.241C503.487 25.4311 503.732 25.4804 503.96 25.5779C504.188 25.6754 504.396 25.8192 504.57 26.001C504.745 26.1827 504.884 26.3988 504.979 26.6369C505.073 26.875 505.122 27.1303 505.122 27.3881C505.122 27.9101 504.924 28.4106 504.571 28.7797C504.218 29.1488 503.74 29.3561 503.241 29.3561Z" fill="#EBEBEB"/>
<path d="M503.241 192.827H391.08C390.833 192.827 390.589 192.776 390.362 192.677C390.134 192.578 389.927 192.432 389.754 192.25C389.58 192.067 389.443 191.85 389.349 191.611C389.256 191.372 389.209 191.117 389.21 190.859C389.209 190.601 389.256 190.346 389.35 190.108C389.443 189.87 389.581 189.654 389.754 189.472C389.928 189.29 390.135 189.146 390.363 189.049C390.59 188.951 390.834 188.902 391.08 188.903H503.241C503.487 188.902 503.732 188.951 503.96 189.049C504.188 189.146 504.396 189.29 504.57 189.472C504.745 189.653 504.884 189.869 504.979 190.107C505.073 190.346 505.122 190.601 505.122 190.859C505.122 191.381 504.924 191.881 504.571 192.25C504.218 192.619 503.74 192.827 503.241 192.827Z" fill="#EBEBEB"/>
<path d="M451.273 67.7574H443.048C435.994 67.7574 430.276 73.7388 430.276 81.1171V108.013C430.276 115.392 435.994 121.373 443.048 121.373H451.273C458.326 121.373 464.045 115.392 464.045 108.013V81.1171C464.045 73.7388 458.326 67.7574 451.273 67.7574Z" fill="#F0F0F0"/>
<path d="M437.512 175.834C435.593 175.834 433.752 175.036 432.395 173.617C431.038 172.197 430.276 170.272 430.276 168.264V111.079C430.276 109.071 431.038 107.146 432.395 105.726C433.752 104.307 435.593 103.509 437.512 103.509C439.431 103.509 441.272 104.307 442.629 105.726C443.986 107.146 444.748 109.071 444.748 111.079V168.264C444.748 170.272 443.986 172.197 442.629 173.617C441.272 175.036 439.431 175.834 437.512 175.834Z" fill="#F0F0F0"/>
<path d="M423.401 74.2543H423.389C421.005 74.2543 419.072 76.2764 419.072 78.7707V112.933C419.072 115.428 421.005 117.45 423.389 117.45H423.401C425.786 117.45 427.719 115.428 427.719 112.933V78.7707C427.719 76.2764 425.786 74.2543 423.401 74.2543Z" fill="#F0F0F0"/>
<path d="M470.931 117.462C469.786 117.455 468.689 116.976 467.881 116.128C467.072 115.279 466.617 114.131 466.613 112.933V78.7833C466.617 77.5853 467.072 76.4372 467.881 75.5889C468.689 74.7407 469.786 74.261 470.931 74.2543C472.077 74.261 473.175 74.7402 473.986 75.5881C474.796 76.4361 475.254 77.5842 475.261 78.7833V112.933C475.254 114.132 474.796 115.28 473.986 116.128C473.175 116.976 472.077 117.456 470.931 117.462Z" fill="#F0F0F0"/>
<path d="M456.808 175.834C454.889 175.834 453.049 175.036 451.692 173.617C450.335 172.197 449.572 170.272 449.572 168.264V111.079C449.572 109.071 450.335 107.146 451.692 105.726C453.049 104.307 454.889 103.509 456.808 103.509C458.728 103.509 460.568 104.307 461.925 105.726C463.282 107.146 464.045 109.071 464.045 111.079V168.264C464.045 170.272 463.282 172.197 461.925 173.617C460.568 175.036 458.728 175.834 456.808 175.834Z" fill="#F0F0F0"/>
<path d="M454.692 59.4529C458.851 55.1027 458.851 48.0496 454.692 43.6994C450.533 39.3492 443.79 39.3492 439.632 43.6994C435.473 48.0496 435.473 55.1027 439.632 59.4529C443.79 63.8031 450.533 63.8031 454.692 59.4529Z" fill="#F0F0F0"/>
<path d="M459.691 214.046H409.17V246.001H459.691V214.046Z" fill="#F5F5F5"/>
<path d="M459.691 246.001H472.137V214.046H459.691V246.001Z" fill="#EBEBEB"/>
<path d="M444.085 226.964H437.343V219.925H431.518V226.964H424.788V233.07H431.518V240.109H437.343V233.07H444.085V226.964Z" fill="white"/>
<path d="M364.933 246.001H360.109V189.471C360.109 186.968 359.637 184.489 358.722 182.176C357.806 179.864 356.464 177.762 354.771 175.992C353.079 174.222 351.07 172.818 348.859 171.86C346.648 170.902 344.279 170.409 341.886 170.409C339.493 170.409 337.123 170.902 334.912 171.86C332.701 172.818 330.692 174.222 329 175.992C327.308 177.762 325.965 179.864 325.05 182.176C324.134 184.489 323.663 186.968 323.663 189.471H318.838C318.838 183.077 321.267 176.945 325.589 172.424C329.911 167.903 335.773 165.363 341.886 165.363C347.998 165.363 353.86 167.903 358.182 172.424C362.505 176.945 364.933 183.077 364.933 189.471V246.001Z" fill="#EBEBEB"/>
<path d="M373.918 237.725H369.094V246.001H373.918V237.725Z" fill="#EBEBEB"/>
<path d="M220.499 243.061H215.675V246.001H220.499V243.061Z" fill="#EBEBEB"/>
<path d="M211.948 243.061H207.124V246.001H211.948V243.061Z" fill="#EBEBEB"/>
<path d="M166.203 320.772H103.405V413.029H166.203V320.772Z" fill="#F5F5F5"/>
<path d="M163.755 318.464H105.841V320.785H163.755V318.464Z" fill="#E6E6E6"/>
<path d="M123.293 297.648H146.304C151.581 297.648 156.643 299.841 160.375 303.745C164.107 307.649 166.203 312.943 166.203 318.464H103.405C103.404 315.731 103.917 313.024 104.916 310.499C105.914 307.973 107.379 305.679 109.226 303.746C111.073 301.813 113.266 300.279 115.679 299.233C118.093 298.187 120.68 297.648 123.293 297.648Z" fill="#F5F5F5"/>
<path d="M111.751 402.911H105.106C102.547 402.911 100.093 403.974 98.2833 405.867C96.4739 407.76 95.4574 410.327 95.4574 413.004H121.459C121.459 411.673 121.208 410.355 120.719 409.127C120.231 407.898 119.515 406.783 118.612 405.845C117.71 404.907 116.639 404.165 115.462 403.661C114.284 403.158 113.023 402.903 111.751 402.911Z" fill="#E6E6E6"/>
<path d="M301.508 470C430.653 470 535.345 463.606 535.345 455.719C535.345 447.832 430.653 441.439 301.508 441.439C172.363 441.439 67.6704 447.832 67.6704 455.719C67.6704 463.606 172.363 470 301.508 470Z" fill="#F5F5F5"/>
<path d="M231.208 114.964L225.733 107.95L218.087 112.996C218.087 112.996 221.584 116.907 225.829 122.37L231.208 114.964Z" fill="#B55B52"/>
<path d="M299.482 115.532C299.168 116.238 298.951 116.667 298.686 117.21L297.926 118.724C297.407 119.72 296.901 120.704 296.358 121.676C295.297 123.61 294.183 125.511 293.017 127.378C290.673 131.201 288.087 134.855 285.275 138.315C282.295 142.009 278.938 145.35 275.265 148.282C273.232 149.853 271.069 151.229 268.8 152.394L266.979 153.239L265.062 153.984C264.422 154.223 263.735 154.4 263.06 154.602L262.553 154.753L261.829 154.917C261.299 155.031 260.78 155.107 260.274 155.17C258.428 155.359 256.566 155.257 254.75 154.867C253.261 154.561 251.804 154.109 250.396 153.517C248.049 152.512 245.803 151.265 243.691 149.795C240.036 147.217 236.594 144.323 233.403 141.141C230.304 138.126 227.433 135.01 224.684 131.831C223.309 130.229 221.946 128.639 220.619 126.999C219.293 125.359 218.026 123.782 216.651 121.953L229.99 111.129C231.027 112.504 232.27 114.081 233.464 115.532C234.658 116.983 235.876 118.471 237.154 119.897C239.687 122.735 242.28 125.473 244.945 127.983C247.456 130.395 250.164 132.573 253.037 134.493C254.18 135.258 255.392 135.905 256.656 136.423C257.693 136.839 258.465 136.827 258.235 136.764H258.115L258.32 136.701C258.585 136.587 258.838 136.524 259.116 136.411L259.924 136.045L260.768 135.603C261.974 134.904 263.12 134.098 264.193 133.194C266.658 131.048 268.88 128.615 270.814 125.94C272.93 123.059 274.852 120.028 276.567 116.869C277.452 115.254 278.284 113.614 279.064 111.949C279.462 111.129 279.848 110.297 280.27 109.426L280.8 108.165C280.957 107.786 281.162 107.294 281.247 107.067L299.482 115.532Z" fill="#407BFF"/>
<path opacity="0.8" d="M299.482 115.532C299.168 116.238 298.951 116.667 298.686 117.21L297.926 118.724C297.407 119.72 296.901 120.704 296.358 121.676C295.297 123.61 294.183 125.511 293.017 127.378C290.673 131.201 288.087 134.855 285.275 138.315C282.295 142.009 278.938 145.35 275.265 148.282C273.232 149.853 271.069 151.229 268.8 152.394L266.979 153.239L265.062 153.984C264.422 154.223 263.735 154.4 263.06 154.602L262.553 154.753L261.829 154.917C261.299 155.031 260.78 155.107 260.274 155.17C258.428 155.359 256.566 155.257 254.75 154.867C253.261 154.561 251.804 154.109 250.396 153.517C248.049 152.512 245.803 151.265 243.691 149.795C240.036 147.217 236.594 144.323 233.403 141.141C230.304 138.126 227.433 135.01 224.684 131.831C223.309 130.229 221.946 128.639 220.619 126.999C219.293 125.359 218.026 123.782 216.651 121.953L229.99 111.129C231.027 112.504 232.27 114.081 233.464 115.532C234.658 116.983 235.876 118.471 237.154 119.897C239.687 122.735 242.28 125.473 244.945 127.983C247.456 130.395 250.164 132.573 253.037 134.493C254.18 135.258 255.392 135.905 256.656 136.423C257.693 136.839 258.465 136.827 258.235 136.764H258.115L258.32 136.701C258.585 136.587 258.838 136.524 259.116 136.411L259.924 136.045L260.768 135.603C261.974 134.904 263.12 134.098 264.193 133.194C266.658 131.048 268.88 128.615 270.814 125.94C272.93 123.059 274.852 120.028 276.567 116.869C277.452 115.254 278.284 113.614 279.064 111.949C279.462 111.129 279.848 110.297 280.27 109.426L280.8 108.165C280.957 107.786 281.162 107.294 281.247 107.067L299.482 115.532Z" fill="white"/>
<path d="M296.804 317.152H335.735L320.973 239.97H301.906L296.804 317.152Z" fill="#407BFF"/>
<path opacity="0.6" d="M296.804 317.152H335.735L320.973 239.97H301.906L296.804 317.152Z" fill="white"/>
<path d="M305.15 444.189H295.224L294.802 420.156H304.728L305.15 444.189Z" fill="#B55B52"/>
<path d="M360.109 444.189H350.183L345.757 420.156H355.683L360.109 444.189Z" fill="#B55B52"/>
<path d="M349.508 442.99H360.603C360.799 442.989 360.989 443.059 361.14 443.188C361.292 443.317 361.396 443.496 361.436 443.697L363.172 452.919C363.211 453.146 363.202 453.38 363.145 453.603C363.087 453.826 362.983 454.033 362.84 454.209C362.697 454.385 362.519 454.526 362.318 454.621C362.117 454.717 361.898 454.764 361.677 454.761C357.793 454.697 355.912 454.458 351.003 454.458C347.988 454.458 341.765 454.786 337.604 454.786C333.444 454.786 332.997 450.484 334.71 450.093C342.392 448.339 345.335 445.93 347.832 443.621C348.299 443.206 348.895 442.982 349.508 442.99Z" fill="#263238"/>
<path d="M295.321 442.99H306.175C306.369 442.99 306.557 443.06 306.707 443.189C306.857 443.318 306.959 443.498 306.995 443.697L308.744 452.893C308.785 453.12 308.778 453.352 308.722 453.575C308.667 453.798 308.566 454.006 308.425 454.183C308.285 454.36 308.109 454.502 307.909 454.6C307.71 454.698 307.493 454.748 307.273 454.748C303.365 454.672 297.721 454.433 292.8 454.433C287.06 454.433 286.589 454.761 279.86 454.761C275.783 454.761 274.758 450.459 276.471 450.068C284.274 448.289 286.119 448.1 292.921 443.76C293.639 443.28 294.469 443.013 295.321 442.99Z" fill="#263238"/>
<path d="M222.03 105.553L215.614 105.452L214.408 114.106C218.493 114.887 222.706 114.45 226.565 112.845L226.457 110.032C226.407 108.834 225.921 107.702 225.097 106.869C224.274 106.036 223.176 105.565 222.03 105.553Z" fill="#B55B52"/>
<path d="M205.58 105.856L206.822 111.318L214.384 114.106L215.614 105.452L205.58 105.856Z" fill="#B55B52"/>
<path opacity="0.2" d="M294.802 420.169L295.019 432.558H304.945L304.728 420.169H294.802Z" fill="black"/>
<path opacity="0.2" d="M355.683 420.169H345.757L348.049 432.558H357.974L355.683 420.169Z" fill="black"/>
<path d="M283.092 109.086C280.342 120.086 275.409 147.84 280.8 191.981H333.865C334.384 184.248 331.007 149.266 336.977 112.845C337.228 111.362 337.187 109.841 336.855 108.376C336.522 106.911 335.907 105.532 335.046 104.325C334.185 103.119 333.096 102.109 331.848 101.359C330.6 100.609 329.218 100.134 327.787 99.9646C325.725 99.7249 323.542 99.5231 321.383 99.4095C313.966 99.1938 306.544 99.4466 299.156 100.166C296.005 100.481 292.886 101.08 289.833 101.958C288.209 102.419 286.73 103.321 285.546 104.573C284.362 105.825 283.515 107.381 283.092 109.086Z" fill="white"/>
<path d="M318.947 77.3451C317.343 84.9144 316.414 94.3381 321.359 99.4095C321.359 99.4095 318.26 107.105 304.776 107.105C292.451 107.105 298.746 99.4095 298.746 99.4095C306.887 97.391 306.718 86.9202 305.439 81.0162L318.947 77.3451Z" fill="#B55B52"/>
<path d="M304.161 106.058L301.243 109.426C301.139 109.543 301.068 109.686 301.036 109.842C301.004 109.997 301.013 110.159 301.062 110.309L301.99 113.286C302.042 113.453 302.141 113.6 302.275 113.706C302.409 113.812 302.57 113.872 302.738 113.879L305.886 114.043C306.035 114.05 306.183 114.016 306.316 113.946C306.449 113.875 306.563 113.77 306.646 113.64L308.527 110.751C308.64 110.595 308.702 110.404 308.702 110.208C308.702 110.012 308.64 109.822 308.527 109.666L305.488 106.045C305.408 105.941 305.306 105.857 305.191 105.8C305.076 105.743 304.949 105.713 304.822 105.715C304.694 105.716 304.568 105.747 304.454 105.807C304.339 105.866 304.239 105.952 304.161 106.058Z" fill="#407BFF"/>
<path d="M303.425 113.854C303.425 113.854 298.601 150.994 298.493 157.466C298.556 163.577 299.475 169.647 301.218 175.48C301.218 175.48 304.535 168.92 305.102 157.188C305.669 145.456 304.981 120.439 305.235 113.854H303.425Z" fill="#407BFF"/>
<path opacity="0.2" d="M305.512 81.0288C306.272 84.4855 306.633 89.5064 305.162 93.4929C306.127 93.9344 310.107 92.3322 311.759 91.2347C315.437 88.7873 316.861 86.3904 318.211 81.2811C318.428 79.9313 318.67 78.6193 318.947 77.3451L305.512 81.0288Z" fill="black"/>
<path d="M292.921 73.6488C293.365 74.8291 294.03 75.9046 294.877 76.8123C295.724 77.72 296.736 78.4416 297.853 78.9347C300.856 80.1962 302.798 77.4461 302.316 74.2291C301.894 71.3402 299.807 67.1771 296.623 67.2654C295.922 67.3069 295.24 67.5264 294.638 67.9049C294.036 68.2834 293.531 68.8095 293.166 69.4379C292.802 70.0663 292.589 70.778 292.546 71.5117C292.503 72.2453 292.632 72.9788 292.921 73.6488Z" fill="#B55B52"/>
<path opacity="0.2" d="M292.921 73.6488C293.365 74.8291 294.03 75.9046 294.877 76.8123C295.724 77.72 296.736 78.4416 297.853 78.9347C300.856 80.1962 302.798 77.4461 302.316 74.2291C301.894 71.3402 299.807 67.1771 296.623 67.2654C295.922 67.3069 295.24 67.5264 294.638 67.9049C294.036 68.2834 293.531 68.8095 293.166 69.4379C292.802 70.0663 292.589 70.778 292.546 71.5117C292.503 72.2453 292.632 72.9788 292.921 73.6488Z" fill="black"/>
<path d="M305.126 62.2823C304.559 66.723 301.906 70.0282 299.204 69.6497C296.503 69.2713 294.778 65.3605 295.357 60.9072C295.936 56.454 298.577 53.1488 301.279 53.5272C303.98 53.9057 305.729 57.8291 305.126 62.2823Z" fill="#263238"/>
<path d="M323.699 67.5051C321.287 77.5974 320.346 83.6024 314.545 87.9673C305.837 94.5399 294.802 87.7781 294.344 77.2063C293.922 67.6943 297.962 52.8081 308.093 50.4112C310.314 49.8737 312.631 49.9503 314.815 50.6335C317 51.3167 318.976 52.583 320.551 54.3077C322.126 56.0325 323.244 58.1564 323.796 60.4703C324.348 62.7843 324.314 65.2087 323.699 67.5051Z" fill="#B55B52"/>
<path d="M307.683 46.8915C301.906 48.153 295.514 53.0856 301.025 56.681C306.537 60.2764 318.947 60.8315 318.947 60.8315C318.947 60.8315 314.846 70.9238 320.455 76.134C322.324 75.1626 318.332 83.9682 318.332 83.9682C320.386 83.2282 322.105 81.7179 323.156 79.7294C326.509 78.8337 336.422 62.0678 329.813 57.3244C328.559 47.5475 315.437 45.1379 307.683 46.8915Z" fill="#263238"/>
<path d="M321.624 73.5857H321.492L312.808 69.4226C312.765 69.4097 312.725 69.3873 312.691 69.3567C312.657 69.3262 312.629 69.2884 312.61 69.2458C312.591 69.2032 312.581 69.1569 312.581 69.1099C312.581 69.0629 312.59 69.0164 312.608 68.9735C312.627 68.9306 312.653 68.8923 312.687 68.8612C312.721 68.8301 312.761 68.807 312.804 68.7934C312.847 68.7797 312.892 68.7759 312.936 68.7822C312.981 68.7885 313.024 68.8047 313.062 68.8297L321.757 72.9928C321.832 73.0286 321.89 73.0936 321.919 73.1738C321.949 73.254 321.947 73.343 321.914 73.4217C321.885 73.4744 321.842 73.5177 321.791 73.5466C321.74 73.5756 321.682 73.5891 321.624 73.5857Z" fill="white"/>
<path d="M326.026 79.4771C324.358 81.4092 322.034 82.582 319.55 82.7445C316.282 82.9211 315.437 79.6537 317.005 76.8026C318.416 74.2795 321.829 71.05 324.772 72.2232C327.715 73.3965 328.04 77.0928 326.026 79.4771Z" fill="#B55B52"/>
<path d="M280.8 191.981C280.8 191.981 277.616 269.566 277.954 301.218C278.304 334.132 291.389 430.148 291.389 430.148H308.189C308.189 430.148 306.682 336.05 308.189 303.729C309.829 268.481 315.691 191.981 315.691 191.981H280.8Z" fill="#407BFF"/>
<path d="M308.973 422.389C309.058 422.389 309.287 430.514 309.287 430.514H289.918L288.808 421.683L308.973 422.389Z" fill="#263238"/>
<path opacity="0.2" d="M303.534 212.519C302.955 251.022 304.619 274.411 308.732 293.258C309.745 274.89 311.397 250.605 312.856 230.433L303.534 212.519Z" fill="black"/>
<path d="M299.626 191.981C299.626 191.981 309.033 271.282 314.509 300.991C320.539 333.526 343.453 430.148 343.453 430.148H361.628C361.628 430.148 347.289 336.163 344.177 303.994C340.812 269.036 333.841 192.032 333.841 192.032L299.626 191.981Z" fill="#407BFF"/>
<path d="M361.194 422.818C361.279 422.818 362.545 430.514 362.545 430.514H342.573L340.378 422.036L361.194 422.818Z" fill="#263238"/>
<path d="M308.611 67.77C308.455 68.6026 307.924 69.1956 307.405 69.1072C306.887 69.0189 306.597 68.2746 306.742 67.442C306.887 66.6094 307.429 66.0165 307.948 66.1048C308.467 66.1931 308.744 66.9374 308.611 67.77Z" fill="#263238"/>
<path d="M298.879 65.3731C298.734 66.2057 298.191 66.7986 297.673 66.7103C297.154 66.622 296.865 65.8777 297.009 65.0451C297.154 64.2125 297.697 63.6196 298.215 63.7079C298.734 63.7962 299.023 64.5405 298.879 65.3731Z" fill="#263238"/>
<path d="M302.931 67.4546C301.28 69.6347 299.357 71.5737 297.214 73.2199C297.62 73.7723 298.137 74.2239 298.73 74.5424C299.322 74.8608 299.974 75.0382 300.64 75.0617L302.931 67.4546Z" fill="#A02724"/>
<path d="M302.955 77.6479C302.895 77.6328 302.843 77.5944 302.809 77.5404C302.776 77.4865 302.763 77.4211 302.774 77.3577C302.786 77.2928 302.822 77.2353 302.873 77.1975C302.925 77.1598 302.989 77.1448 303.051 77.1559C304.031 77.3437 305.038 77.2911 305.995 77.0021C306.951 76.7131 307.83 76.1957 308.563 75.4906C308.605 75.4438 308.662 75.4162 308.723 75.4138C308.784 75.4114 308.844 75.4345 308.889 75.478C308.933 75.5215 308.96 75.5819 308.962 75.6457C308.964 75.7096 308.942 75.7718 308.901 75.8186C308.12 76.5952 307.173 77.1662 306.139 77.4842C305.105 77.8023 304.014 77.8584 302.955 77.6479Z" fill="#263238"/>
<path d="M313.327 65.0703C313.256 65.0525 313.19 65.0167 313.136 64.9661C313.081 64.9155 313.039 64.8517 313.013 64.7802C312.822 64.2103 312.504 63.6965 312.084 63.2817C311.664 62.8669 311.156 62.5632 310.601 62.3959C310.48 62.3686 310.374 62.2923 310.306 62.1836C310.238 62.0749 310.214 61.9426 310.239 61.8156C310.266 61.688 310.338 61.576 310.442 61.5031C310.545 61.4302 310.671 61.402 310.794 61.4245C311.514 61.6094 312.178 61.9783 312.727 62.4979C313.276 63.0175 313.694 63.6717 313.942 64.4017C313.982 64.5258 313.976 64.6612 313.925 64.7806C313.873 64.9 313.78 64.9945 313.665 65.0451C313.559 65.0959 313.439 65.1049 313.327 65.0703Z" fill="#263238"/>
<path d="M296.382 61.3993C296.314 61.3839 296.251 61.3489 296.201 61.2983C296.116 61.2046 296.069 61.0805 296.069 60.9514C296.069 60.8224 296.116 60.6982 296.201 60.6045C296.668 59.99 297.265 59.4979 297.946 59.1672C298.626 58.8365 299.371 58.6764 300.121 58.6996C300.181 58.7073 300.24 58.7276 300.292 58.7592C300.345 58.7907 300.392 58.833 300.429 58.8835C300.466 58.934 300.493 58.9917 300.508 59.0533C300.524 59.1148 300.527 59.179 300.519 59.242C300.513 59.3068 300.495 59.3696 300.465 59.4269C300.436 59.4843 300.396 59.5349 300.348 59.576C300.299 59.617 300.244 59.6477 300.184 59.6662C300.125 59.6846 300.062 59.6905 300 59.6836C299.407 59.6702 298.819 59.8038 298.285 60.0735C297.75 60.3432 297.284 60.7413 296.925 61.2353C296.861 61.3173 296.775 61.377 296.678 61.4063C296.581 61.4356 296.478 61.4332 296.382 61.3993Z" fill="#263238"/>
<path d="M308.43 73.674C308.192 73.6714 307.954 73.6503 307.719 73.611C307.154 73.4985 306.615 73.2701 306.135 72.9388C305.655 72.6075 305.242 72.1799 304.921 71.6808C304.51 71.039 304.223 70.3186 304.079 69.561C303.934 68.8034 303.933 68.0233 304.077 67.2654C304.24 65.8853 304.913 64.6269 305.952 63.7593C306.991 62.8917 308.314 62.4839 309.636 62.6229C310.776 62.8539 311.782 63.5479 312.434 64.5531C313.26 65.8515 313.563 67.4378 313.279 68.9685C313.114 70.2176 312.541 71.3687 311.657 72.2264C310.774 73.0841 309.634 73.5956 308.43 73.674ZM308.913 63.2159C307.858 63.2939 306.862 63.7511 306.092 64.5098C305.323 65.2685 304.828 66.2822 304.692 67.3789C304.433 68.7411 304.697 70.155 305.427 71.3149C305.705 71.7432 306.062 72.1098 306.476 72.3934C306.889 72.677 307.353 72.8722 307.839 72.9676C308.998 73.0775 310.151 72.7086 311.053 71.94C311.955 71.1713 312.533 70.0639 312.664 68.8549C312.919 67.4911 312.65 66.0771 311.916 64.9189C311.639 64.4897 311.283 64.1225 310.869 63.8387C310.455 63.555 309.991 63.3604 309.504 63.2663C309.308 63.2321 309.111 63.2153 308.913 63.2159Z" fill="white"/>
<path d="M304.378 67.6439C304.328 67.6434 304.28 67.6305 304.236 67.6064C304.191 67.5823 304.154 67.5476 304.125 67.5051C303.929 67.0914 303.595 66.7668 303.187 66.5925C302.778 66.4183 302.322 66.4063 301.906 66.5589C301.829 66.5891 301.744 66.5877 301.668 66.5549C301.592 66.5221 301.53 66.4605 301.496 66.3823C301.463 66.3036 301.461 66.2145 301.49 66.1344C301.52 66.0542 301.578 65.9892 301.653 65.9534C302.205 65.7484 302.808 65.755 303.356 65.9722C303.904 66.1894 304.36 66.603 304.643 67.1392C304.666 67.1756 304.681 67.2163 304.688 67.2589C304.695 67.3014 304.695 67.3451 304.686 67.3873C304.677 67.4295 304.66 67.4694 304.636 67.5048C304.612 67.5402 304.582 67.5703 304.547 67.5934C304.497 67.6289 304.438 67.6466 304.378 67.6439Z" fill="white"/>
<path d="M297.251 71.0122C297.008 71.0102 296.766 70.9891 296.527 70.9491C295.962 70.8367 295.423 70.6083 294.943 70.277C294.463 69.9457 294.05 69.5181 293.729 69.019C292.903 67.7206 292.6 66.1342 292.885 64.6036C293.048 63.2244 293.722 61.9672 294.761 61.1016C295.801 60.2361 297.123 59.8311 298.444 59.9737C299.01 60.0812 299.549 60.3064 300.029 60.6357C300.51 60.9651 300.922 61.3921 301.242 61.8913C302.069 63.1941 302.372 64.7846 302.087 66.3193C301.922 67.5651 301.351 68.713 300.469 69.5684C299.588 70.4237 298.45 70.9338 297.251 71.0122ZM297.721 60.554C296.666 60.6321 295.67 61.0892 294.9 61.848C294.131 62.6067 293.636 63.6204 293.5 64.7171C293.371 65.3924 293.37 66.0876 293.499 66.763C293.627 67.4384 293.882 68.0807 294.247 68.6531C294.524 69.0824 294.88 69.4496 295.295 69.7333C295.709 70.0171 296.173 70.2117 296.66 70.3058C297.818 70.4157 298.971 70.0468 299.873 69.2782C300.775 68.5095 301.353 67.4021 301.484 66.1931C301.743 64.8293 301.474 63.4137 300.736 62.2571C300.173 61.3941 299.305 60.7998 298.324 60.6045C298.125 60.5696 297.923 60.5527 297.721 60.554Z" fill="white"/>
<path d="M346.131 444.794C345.462 444.85 344.795 444.668 344.238 444.277C344.071 444.12 343.942 443.924 343.862 443.704C343.783 443.485 343.754 443.249 343.779 443.016C343.785 442.87 343.827 442.728 343.901 442.604C343.975 442.48 344.079 442.379 344.201 442.309C345.299 441.729 348.459 443.785 348.82 444.012C348.86 444.038 348.891 444.076 348.909 444.122C348.926 444.167 348.929 444.217 348.917 444.264C348.91 444.314 348.89 444.359 348.857 444.395C348.825 444.432 348.782 444.456 348.736 444.466C347.882 444.678 347.008 444.788 346.131 444.794ZM344.708 442.65C344.604 442.649 344.502 442.67 344.406 442.713C344.357 442.741 344.316 442.783 344.288 442.834C344.261 442.886 344.247 442.944 344.25 443.003C344.225 443.167 344.239 443.334 344.292 443.491C344.344 443.647 344.434 443.787 344.551 443.899C345.082 444.378 346.372 444.441 348.073 444.088C347.067 443.388 345.94 442.9 344.756 442.65H344.708Z" fill="#407BFF"/>
<path d="M348.736 444.441C348.701 444.454 348.663 444.454 348.627 444.441C347.614 443.861 345.673 441.59 345.914 440.429C345.954 440.249 346.051 440.088 346.188 439.971C346.326 439.855 346.497 439.79 346.674 439.786C346.852 439.762 347.034 439.777 347.206 439.832C347.379 439.886 347.538 439.978 347.675 440.101C348.796 441.085 348.965 444.075 348.977 444.214C348.97 444.28 348.943 444.341 348.899 444.389C348.856 444.437 348.798 444.468 348.736 444.479V444.441ZM346.83 440.278H346.722C346.42 440.278 346.384 440.455 346.372 440.518C346.239 441.199 347.457 442.927 348.459 443.735C348.416 442.559 348.033 441.424 347.361 440.48C347.213 440.348 347.025 440.276 346.83 440.278Z" fill="#407BFF"/>
<path d="M291.16 444.807C290.309 444.891 289.457 444.664 288.748 444.164C288.589 444.016 288.468 443.829 288.396 443.619C288.325 443.41 288.305 443.185 288.338 442.965C288.346 442.831 288.387 442.702 288.457 442.589C288.526 442.476 288.623 442.384 288.736 442.322C289.942 441.603 293.898 443.722 294.344 443.974C294.389 443.997 294.425 444.034 294.448 444.08C294.471 444.126 294.479 444.179 294.471 444.23C294.463 444.281 294.439 444.328 294.403 444.364C294.367 444.4 294.321 444.423 294.272 444.429C293.248 444.655 292.206 444.782 291.16 444.807ZM289.448 442.65C289.295 442.647 289.143 442.678 289.001 442.738C288.957 442.765 288.92 442.804 288.895 442.85C288.869 442.897 288.856 442.949 288.857 443.003C288.832 443.148 288.843 443.298 288.89 443.437C288.936 443.576 289.016 443.7 289.122 443.798C289.713 444.366 291.341 444.466 293.548 444.075C292.269 443.36 290.882 442.878 289.448 442.65Z" fill="#407BFF"/>
<path d="M294.272 444.441H294.175C292.969 443.873 290.678 441.641 290.883 440.455C290.883 440.19 291.124 439.837 291.775 439.773C292.006 439.744 292.24 439.766 292.463 439.837C292.685 439.909 292.891 440.029 293.066 440.19C294.272 441.275 294.501 444.075 294.513 444.189C294.514 444.232 294.506 444.274 294.489 444.314C294.472 444.353 294.447 444.388 294.416 444.416C294.37 444.435 294.321 444.444 294.272 444.441ZM291.92 440.278H291.775C291.353 440.278 291.317 440.493 291.305 440.556C291.184 441.249 292.752 443.016 293.958 443.785C293.883 442.612 293.461 441.493 292.752 440.581C292.521 440.374 292.224 440.266 291.92 440.278Z" fill="#407BFF"/>
<path d="M322.01 98.7156L333.468 100.154C335.368 100.39 337.114 101.364 338.36 102.882C339.606 104.401 340.262 106.354 340.197 108.354C339.618 127.037 337.255 152.71 339.148 191.981C340.101 211.788 353.331 319.334 353.331 319.334L327.269 324.115C314.823 282.788 306.102 240.332 301.218 197.305C299.324 178.606 299.259 159.753 301.025 141.04L322.01 98.7156Z" fill="#407BFF"/>
<path opacity="0.8" d="M322.01 98.7156L333.468 100.154C335.368 100.39 337.114 101.364 338.36 102.882C339.606 104.401 340.262 106.354 340.197 108.354C339.618 127.037 337.255 152.71 339.148 191.981C340.101 211.788 353.331 319.334 353.331 319.334L327.269 324.115C314.823 282.788 306.102 240.332 301.218 197.305C299.324 178.606 299.259 159.753 301.025 141.04L322.01 98.7156Z" fill="white"/>
<path opacity="0.2" d="M331.369 122.559C331.369 125.359 333.419 139.615 338.497 149.455C338.642 142.743 338.871 136.612 339.136 130.986L331.369 122.559Z" fill="#407BFF"/>
<path opacity="0.2" d="M282.054 120.061C280.583 123 276.338 135.464 274.179 149.076C275.168 148.357 276.109 147.613 277.013 146.856C280.347 143.96 283.409 140.737 286.155 137.23L286.686 136.549L282.054 120.061Z" fill="#407BFF"/>
<path d="M297.805 99.9393L291.039 100.797C287.796 101.215 284.802 102.826 282.592 105.344C280.382 107.861 279.101 111.12 278.979 114.535C278.207 135.502 276.639 177.385 275.783 191.981C274.577 211.775 275.433 319.334 275.433 319.334L291.679 322.311C291.679 322.311 295.803 263.095 301.267 197.305C302.668 177.779 303.002 158.184 302.268 138.618L297.805 99.9393Z" fill="#407BFF"/>
<path opacity="0.8" d="M297.805 99.9393L291.039 100.797C287.796 101.215 284.802 102.826 282.592 105.344C280.382 107.861 279.101 111.12 278.979 114.535C278.207 135.502 276.639 177.385 275.783 191.981C274.577 211.775 275.433 319.334 275.433 319.334L291.679 322.311C291.679 322.311 295.803 263.095 301.267 197.305C302.668 177.779 303.002 158.184 302.268 138.618L297.805 99.9393Z" fill="white"/>
<path d="M304.8 105.755C306.312 108.293 307.527 111.012 308.418 113.854C308.418 113.854 324.254 108.165 323.687 99.0436C323.687 99.0436 321.275 97.555 319.827 96.3439C319.815 96.3439 319.104 102.097 304.8 105.755Z" fill="#F5F5F5"/>
<path d="M304.8 105.755C302.995 107.936 301.482 110.364 300.302 112.971C298.354 111.44 296.92 109.303 296.203 106.868C295.486 104.432 295.523 101.822 296.31 99.4095C297.723 98.8129 299.179 98.3321 300.664 97.9713C300.664 97.9713 299.518 103.8 304.8 105.755Z" fill="#F5F5F5"/>
<path opacity="0.2" d="M321.25 197.494L339.401 213.806L327.003 207.46L321.25 197.494Z" fill="#407BFF"/>
<path d="M339.474 104.935C340.246 106.058 340.824 106.941 341.476 107.938L343.321 110.852C344.527 112.803 345.697 114.775 346.83 116.768C349.11 120.767 351.257 124.855 353.235 129.131C355.278 133.506 357.015 138.03 358.433 142.668C359.187 145.147 359.783 147.675 360.217 150.237C360.677 153.011 360.883 155.824 360.833 158.639C360.608 163.95 359.628 169.197 357.926 174.206C356.384 178.816 354.48 183.285 352.234 187.566C350.095 191.706 347.739 195.72 345.178 199.589C343.924 201.514 342.629 203.407 341.295 205.265C340.631 206.199 339.944 207.133 339.245 208.053C338.545 208.974 337.882 209.832 337.013 210.892L324.266 199.324C324.748 198.718 325.472 197.86 326.002 197.078L327.787 194.656C328.993 193.016 330.103 191.351 331.2 189.61C333.366 186.246 335.351 182.759 337.146 179.164C338.868 175.728 340.308 172.145 341.452 168.454C342.507 165.2 343.08 161.796 343.152 158.361C343.008 155.015 342.353 151.714 341.21 148.584C339.944 144.924 338.408 141.373 336.615 137.962C334.782 134.43 332.744 130.923 330.585 127.504C329.488 125.801 328.354 124.11 327.196 122.458L325.435 119.998C324.857 119.216 324.229 118.333 323.711 117.714L339.474 104.935Z" fill="#407BFF"/>
<path opacity="0.8" d="M339.474 104.935C340.246 106.058 340.824 106.941 341.476 107.938L343.321 110.852C344.527 112.803 345.697 114.775 346.83 116.768C349.11 120.767 351.257 124.855 353.235 129.131C355.278 133.506 357.015 138.03 358.433 142.668C359.187 145.147 359.783 147.675 360.217 150.237C360.677 153.011 360.883 155.824 360.833 158.639C360.608 163.95 359.628 169.197 357.926 174.206C356.384 178.816 354.48 183.285 352.234 187.566C350.095 191.706 347.739 195.72 345.178 199.589C343.924 201.514 342.629 203.407 341.295 205.265C340.631 206.199 339.944 207.133 339.245 208.053C338.545 208.974 337.882 209.832 337.013 210.892L324.266 199.324C324.748 198.718 325.472 197.86 326.002 197.078L327.787 194.656C328.993 193.016 330.103 191.351 331.2 189.61C333.366 186.246 335.351 182.759 337.146 179.164C338.868 175.728 340.308 172.145 341.452 168.454C342.507 165.2 343.08 161.796 343.152 158.361C343.008 155.015 342.353 151.714 341.21 148.584C339.944 144.924 338.408 141.373 336.615 137.962C334.782 134.43 332.744 130.923 330.585 127.504C329.488 125.801 328.354 124.11 327.196 122.458L325.435 119.998C324.857 119.216 324.229 118.333 323.711 117.714L339.474 104.935Z" fill="white"/>
<path d="M323.216 126.81C322.827 127.763 322.132 128.543 321.251 129.018C320.371 129.492 319.36 129.63 318.392 129.409C317.951 129.308 317.537 129.106 317.181 128.816C316.824 128.526 316.534 128.157 316.332 127.735C316.13 127.313 316.02 126.848 316.011 126.376C316.003 125.904 316.095 125.436 316.282 125.006C316.671 124.054 317.367 123.275 318.248 122.803C319.129 122.331 320.14 122.195 321.106 122.42C321.546 122.519 321.96 122.72 322.317 123.009C322.673 123.297 322.963 123.665 323.166 124.087C323.368 124.508 323.478 124.971 323.487 125.442C323.495 125.914 323.403 126.381 323.216 126.81Z" fill="#263238"/>
<path opacity="0.2" d="M323.216 126.81C322.827 127.763 322.132 128.543 321.251 129.018C320.371 129.492 319.36 129.63 318.392 129.409C317.951 129.308 317.537 129.106 317.181 128.816C316.824 128.526 316.534 128.157 316.332 127.735C316.13 127.313 316.02 126.848 316.011 126.376C316.003 125.904 316.095 125.436 316.282 125.006C316.671 124.054 317.367 123.275 318.248 122.803C319.129 122.331 320.14 122.195 321.106 122.42C321.546 122.519 321.96 122.72 322.317 123.009C322.673 123.297 322.963 123.665 323.166 124.087C323.368 124.508 323.478 124.971 323.487 125.442C323.495 125.914 323.403 126.381 323.216 126.81Z" fill="white"/>
<path d="M319.249 124.893C319.15 124.894 319.052 124.864 318.971 124.804C318.871 124.728 318.804 124.614 318.783 124.487C318.763 124.36 318.792 124.229 318.863 124.123C327.836 111.066 325.327 99.46 325.303 99.3464C325.277 99.2808 325.266 99.2102 325.269 99.1395C325.272 99.0687 325.29 98.9995 325.32 98.9366C325.351 98.8736 325.395 98.8184 325.448 98.7746C325.502 98.7309 325.563 98.6997 325.629 98.6832C325.695 98.6667 325.763 98.6652 325.83 98.6789C325.896 98.6926 325.959 98.7211 326.014 98.7625C326.069 98.8039 326.114 98.8572 326.148 98.9188C326.181 98.9804 326.202 99.0488 326.207 99.1194C326.207 99.2329 328.861 111.255 319.622 124.691C319.582 124.755 319.526 124.807 319.46 124.842C319.395 124.878 319.322 124.895 319.249 124.893Z" fill="#263238"/>
<path d="M287.964 118.27C287.846 118.267 287.733 118.219 287.647 118.136C287.56 118.052 287.506 117.938 287.494 117.815C286.517 104.998 293.005 100.267 293.283 100.078C293.386 100.008 293.511 99.9823 293.632 100.006C293.753 100.029 293.861 100.1 293.934 100.204C294.003 100.313 294.027 100.446 294.002 100.574C293.978 100.701 293.905 100.813 293.801 100.885C293.741 100.885 287.494 105.528 288.435 117.74C288.441 117.868 288.399 117.994 288.318 118.091C288.237 118.188 288.123 118.247 288 118.257L287.964 118.27Z" fill="#263238"/>
<path d="M321.902 126.47C321.51 127.42 320.815 128.2 319.935 128.674C319.055 129.148 318.045 129.287 317.078 129.068C316.635 128.97 316.22 128.768 315.862 128.479C315.505 128.19 315.214 127.82 315.011 127.397C314.808 126.975 314.699 126.51 314.691 126.037C314.684 125.564 314.778 125.095 314.967 124.666C315.367 123.725 316.067 122.96 316.947 122.5C317.827 122.039 318.832 121.913 319.791 122.142C320.223 122.246 320.628 122.447 320.977 122.731C321.326 123.016 321.612 123.378 321.813 123.79C322.014 124.203 322.126 124.657 322.142 125.12C322.157 125.582 322.075 126.043 321.902 126.47Z" fill="#263238"/>
<path opacity="0.4" d="M321.902 126.47C321.51 127.42 320.815 128.2 319.935 128.674C319.055 129.148 318.045 129.287 317.078 129.068C316.635 128.97 316.22 128.768 315.862 128.479C315.505 128.19 315.214 127.82 315.011 127.397C314.808 126.975 314.699 126.51 314.691 126.037C314.684 125.564 314.778 125.095 314.967 124.666C315.367 123.725 316.067 122.96 316.947 122.5C317.827 122.039 318.832 121.913 319.791 122.142C320.223 122.246 320.628 122.447 320.977 122.731C321.326 123.016 321.612 123.378 321.813 123.79C322.014 124.203 322.126 124.657 322.142 125.12C322.157 125.582 322.075 126.043 321.902 126.47Z" fill="white"/>
<path opacity="0.4" d="M319.876 125.788C319.669 126.29 319.302 126.7 318.838 126.948C318.373 127.197 317.84 127.269 317.331 127.151C317.1 127.098 316.883 126.991 316.696 126.839C316.51 126.687 316.358 126.494 316.251 126.273C316.145 126.051 316.087 125.808 316.082 125.561C316.077 125.313 316.124 125.068 316.221 124.842C316.43 124.342 316.797 123.934 317.261 123.685C317.725 123.437 318.257 123.364 318.766 123.48C318.997 123.533 319.214 123.639 319.401 123.791C319.588 123.943 319.74 124.137 319.846 124.358C319.952 124.579 320.01 124.822 320.015 125.07C320.02 125.317 319.973 125.563 319.876 125.788Z" fill="white"/>
<path d="M291.63 148.092C291.508 148.089 291.391 148.036 291.306 147.944C291.22 147.852 291.172 147.729 291.172 147.6C291.171 147.536 291.181 147.473 291.203 147.413C291.226 147.353 291.259 147.299 291.302 147.253C291.345 147.207 291.396 147.171 291.452 147.146C291.509 147.121 291.569 147.108 291.63 147.108C292.515 147.081 293.36 146.716 294.004 146.081C294.649 145.446 295.049 144.587 295.128 143.664L296.02 127.264C296.095 126.114 295.942 124.96 295.57 123.874C295.198 122.788 294.615 121.795 293.859 120.956C293.102 120.118 292.188 119.452 291.174 119C290.159 118.548 289.066 118.321 287.964 118.333C285.645 118.362 283.422 119.304 281.736 120.971C280.051 122.637 279.028 124.907 278.871 127.327L277.966 143.727C277.934 144.166 277.99 144.606 278.13 145.02C278.27 145.434 278.492 145.813 278.78 146.133C279.069 146.452 279.418 146.705 279.805 146.876C280.192 147.046 280.609 147.129 281.029 147.121C281.154 147.121 281.274 147.173 281.362 147.265C281.45 147.357 281.5 147.483 281.5 147.613C281.497 147.742 281.446 147.866 281.359 147.957C281.271 148.049 281.153 148.102 281.029 148.105C280.483 148.11 279.942 147.996 279.44 147.772C278.937 147.548 278.484 147.218 278.11 146.802C277.735 146.387 277.446 145.894 277.262 145.357C277.077 144.819 277.001 144.247 277.037 143.677L277.942 127.277C278.115 124.609 279.242 122.107 281.099 120.269C282.957 118.431 285.408 117.393 287.964 117.361C289.195 117.349 290.414 117.604 291.547 118.109C292.679 118.614 293.699 119.359 294.542 120.296C295.386 121.233 296.036 122.342 296.45 123.555C296.864 124.767 297.034 126.056 296.949 127.34L296.057 143.74C295.975 144.914 295.475 146.013 294.655 146.819C293.835 147.625 292.756 148.08 291.63 148.092Z" fill="#263238"/>
<path d="M281.801 147.6C281.801 148.383 281.379 149.026 280.957 149.026C280.535 149.026 280.209 148.383 280.258 147.6C280.306 146.818 280.68 146.162 281.114 146.162C281.548 146.162 281.85 146.806 281.801 147.6Z" fill="#263238"/>
<path d="M292.414 147.6C292.414 148.383 291.992 149.026 291.558 149.026C291.124 149.026 290.81 148.383 290.859 147.6C290.907 146.818 291.281 146.162 291.715 146.162C292.149 146.162 292.451 146.806 292.414 147.6Z" fill="#263238"/>
<path d="M195.305 47.9386L194.448 47.2952C196.969 43.6851 200.512 40.9973 204.576 39.6136C208.64 38.2299 213.017 38.2207 217.086 39.5872L216.76 40.6469C212.905 39.3542 208.758 39.3628 204.908 40.6715C201.057 41.9801 197.698 44.5224 195.305 47.9386Z" fill="#407BFF"/>
<path d="M191.663 59.2925H190.601C190.656 57.2775 190.985 55.281 191.578 53.3632L192.591 53.7038C192.029 55.5109 191.716 57.3928 191.663 59.2925Z" fill="#407BFF"/>
<path d="M248.358 60.1755C247.431 58.0346 246.098 56.1127 244.441 54.5266C242.783 52.9404 240.834 51.7229 238.713 50.9479C236.592 50.1729 234.342 49.8566 232.101 50.018C229.859 50.1795 227.672 50.8154 225.673 51.8872C224.667 49.8341 223.28 48.0113 221.593 46.5254C219.905 45.0395 217.952 43.9203 215.847 43.2332C213.741 42.546 211.526 42.3048 209.33 42.5236C207.135 42.7423 205.003 43.4167 203.06 44.5072C195.015 49.0235 192.205 59.7214 196.39 68.2368L207.244 90.4021C207.771 91.4809 208.497 92.4404 209.379 93.2256C210.261 94.0107 211.282 94.6061 212.385 94.9776C213.487 95.3491 214.649 95.4894 215.803 95.3905C216.958 95.2916 218.082 94.9554 219.112 94.4012L240.386 83.0473C244.266 81.0324 247.257 77.5347 248.741 73.2776C250.225 69.0206 250.088 64.3298 248.358 60.1755Z" fill="#407BFF"/>
</svg>
