<svg width="647" height="478" viewBox="0 0 647 478" fill="none" xmlns="http://www.w3.org/2000/svg">
<path d="M582.138 444.451H539.283V444.775H582.138V444.451Z" fill="#EBEBEB"/>
<path d="M428.574 447.971H417.33V448.294H428.574V447.971Z" fill="#EBEBEB"/>
<path d="M537.989 432.444H513.159V432.767H537.989V432.444Z" fill="#EBEBEB"/>
<path d="M123.764 434.617H67.8794V434.941H123.764V434.617Z" fill="#EBEBEB"/>
<path d="M143.484 434.617H135.293V434.941H143.484V434.617Z" fill="#EBEBEB"/>
<path d="M291.328 440.078H170.113V440.401H291.328V440.078Z" fill="#EBEBEB"/>
<path d="M306.661 365.923H56.829C54.8695 365.923 52.9902 365.144 51.6047 363.759C50.2191 362.373 49.4407 360.494 49.4407 358.535V7.32363C49.4577 5.37536 50.2437 3.51269 51.6274 2.14107C53.0111 0.76945 54.8807 -7.46932e-05 56.829 5.43779e-09H306.661C308.62 5.43781e-09 310.499 0.778411 311.885 2.16399C313.271 3.54957 314.049 5.42882 314.049 7.38833V358.535C314.049 360.494 313.271 362.373 311.885 363.759C310.499 365.144 308.62 365.923 306.661 365.923ZM56.829 0.258787C54.9563 0.262207 53.1614 1.00763 51.8372 2.33181C50.513 3.65598 49.7676 5.45097 49.7642 7.32363V358.535C49.7676 360.407 50.513 362.202 51.8372 363.526C53.1614 364.85 54.9563 365.596 56.829 365.599H306.661C308.533 365.596 310.328 364.85 311.652 363.526C312.977 362.202 313.722 360.407 313.725 358.535V7.32363C313.722 5.45097 312.977 3.65598 311.652 2.33181C310.328 1.00763 308.533 0.262207 306.661 0.258787H56.829Z" fill="#EBEBEB"/>
<path d="M586.55 365.923H336.693C334.734 365.919 332.857 365.14 331.472 363.755C330.088 362.37 329.308 360.493 329.305 358.535V7.32363C329.325 5.37642 330.112 3.5157 331.495 2.14481C332.878 0.77391 334.746 0.0032973 336.693 0H586.55C588.494 0.00673424 590.357 0.779267 591.735 2.15016C593.113 3.52105 593.896 5.37983 593.913 7.32363V358.535C593.913 360.49 593.138 362.365 591.758 363.75C590.378 365.135 588.505 365.916 586.55 365.923ZM336.693 0.258787C334.82 0.262207 333.025 1.00763 331.701 2.33181C330.377 3.65598 329.631 5.45097 329.628 7.32363V358.535C329.631 360.407 330.377 362.202 331.701 363.526C333.025 364.85 334.82 365.596 336.693 365.599H586.55C588.423 365.596 590.218 364.85 591.542 363.526C592.866 362.202 593.612 360.407 593.615 358.535V7.32363C593.612 5.45097 592.866 3.65598 591.542 2.33181C590.218 1.00763 588.423 0.262207 586.55 0.258787H336.693Z" fill="#EBEBEB"/>
<path d="M646.964 423.632H-0.000244141V423.955H646.964V423.632Z" fill="#EBEBEB"/>
<path d="M321.722 265.708H317.84V219.256C317.904 214.289 316.062 209.487 312.692 205.838C309.322 202.189 304.681 199.971 299.725 199.64C297.221 199.515 294.717 199.884 292.356 200.726C289.995 201.569 287.823 202.868 285.964 204.551C284.105 206.233 282.596 208.265 281.522 210.531C280.449 212.796 279.833 215.251 279.708 217.755C279.698 218 279.595 218.232 279.419 218.403C279.243 218.574 279.009 218.671 278.764 218.674H276.771C276.644 218.674 276.519 218.649 276.402 218.6C276.285 218.551 276.178 218.479 276.089 218.389C276 218.299 275.93 218.191 275.883 218.074C275.835 217.956 275.812 217.83 275.814 217.703C276.073 211.855 278.55 206.325 282.742 202.238C286.935 198.152 292.526 195.816 298.38 195.707C311.215 195.487 321.67 206.433 321.67 219.282L321.722 265.708Z" fill="#F0F0F0"/>
<path d="M572.809 270.78H545.222V423.58H572.809V270.78Z" fill="#E6E6E6"/>
<path d="M552.753 270.78H253.856V423.58H552.753V270.78Z" fill="#F5F5F5"/>
<path d="M552.753 302.598H253.856V305.186H327.286V423.58H329.874V305.186H401.299V423.58H403.887V305.186H475.324V423.58H477.912V305.186H552.753V302.598Z" fill="#E0E0E0"/>
<path d="M319.846 370.529C319.16 370.529 318.501 370.257 318.016 369.771C317.531 369.286 317.258 368.628 317.258 367.941V356.296C317.258 355.61 317.531 354.951 318.016 354.466C318.501 353.981 319.16 353.708 319.846 353.708C320.532 353.708 321.19 353.981 321.676 354.466C322.161 354.951 322.434 355.61 322.434 356.296V367.941C322.434 368.628 322.161 369.286 321.676 369.771C321.19 370.257 320.532 370.529 319.846 370.529Z" fill="#E6E6E6"/>
<path d="M337.314 370.529C336.628 370.529 335.969 370.257 335.484 369.771C334.999 369.286 334.726 368.628 334.726 367.941V356.296C334.726 355.61 334.999 354.951 335.484 354.466C335.969 353.981 336.628 353.708 337.314 353.708C338 353.708 338.659 353.981 339.144 354.466C339.629 354.951 339.902 355.61 339.902 356.296V367.941C339.902 368.628 339.629 369.286 339.144 369.771C338.659 370.257 338 370.529 337.314 370.529Z" fill="#E6E6E6"/>
<path d="M467.884 370.529C467.198 370.529 466.539 370.257 466.054 369.771C465.569 369.286 465.296 368.628 465.296 367.941V356.296C465.296 355.61 465.569 354.951 466.054 354.466C466.539 353.981 467.198 353.708 467.884 353.708C468.57 353.708 469.228 353.981 469.714 354.466C470.199 354.951 470.472 355.61 470.472 356.296V367.941C470.472 368.628 470.199 369.286 469.714 369.771C469.228 370.257 468.57 370.529 467.884 370.529Z" fill="#E6E6E6"/>
<path d="M485.352 370.529C484.666 370.529 484.008 370.257 483.522 369.771C483.037 369.286 482.764 368.628 482.764 367.941V356.296C482.764 355.61 483.037 354.951 483.522 354.466C484.008 353.981 484.666 353.708 485.352 353.708C486.039 353.708 486.697 353.981 487.182 354.466C487.667 354.951 487.94 355.61 487.94 356.296V367.941C487.94 368.628 487.667 369.286 487.182 369.771C486.697 370.257 486.039 370.529 485.352 370.529Z" fill="#E6E6E6"/>
<path d="M579.279 267.429H544.99V274.119H579.279V267.429Z" fill="#E0E0E0"/>
<path d="M555.341 267.429H247.386V274.119H555.341V267.429Z" fill="#EBEBEB"/>
<path d="M357.409 268.192H255.331C254.672 268.192 254.04 267.931 253.574 267.465C253.108 266.999 252.846 266.367 252.846 265.708C252.846 265.049 253.108 264.417 253.574 263.951C254.04 263.485 254.672 263.224 255.331 263.224H357.409C358.067 263.224 358.699 263.485 359.165 263.951C359.631 264.417 359.893 265.049 359.893 265.708C359.893 266.367 359.631 266.999 359.165 267.465C358.699 267.931 358.067 268.192 357.409 268.192Z" fill="#E6E6E6"/>
<path d="M331.478 259.044H327.609V263.961H331.478V259.044Z" fill="#E0E0E0"/>
<path d="M333.134 260.274H325.94L327.338 251.669H331.737L333.134 260.274Z" fill="#F0F0F0"/>
<path d="M311.901 259.044H308.032V263.961H311.901V259.044Z" fill="#E0E0E0"/>
<path d="M313.57 260.274H306.363L307.774 251.669H312.16L313.57 260.274Z" fill="#F0F0F0"/>
<path d="M393.962 22.5273H391.633V204.156H393.962V22.5273Z" fill="#E0E0E0"/>
<path d="M538.947 22.5273H536.618V204.156H538.947V22.5273Z" fill="#E0E0E0"/>
<path d="M548.069 33.9526H382.511L379.017 25.8009H551.563L548.069 33.9526Z" fill="#EBEBEB"/>
<path d="M548.069 45.1451H382.511L379.017 36.9934H551.563L548.069 45.1451Z" fill="#EBEBEB"/>
<path d="M548.069 56.3376H382.511L379.017 48.1859H551.563L548.069 56.3376Z" fill="#EBEBEB"/>
<path d="M548.069 67.5301H382.511L379.017 59.3784H551.563L548.069 67.5301Z" fill="#EBEBEB"/>
<path d="M548.069 78.7226H382.511L379.017 70.5708H551.563L548.069 78.7226Z" fill="#EBEBEB"/>
<path d="M548.069 89.915H382.511L379.017 81.7633H551.563L548.069 89.915Z" fill="#EBEBEB"/>
<path d="M548.069 101.108H382.511L379.017 92.9558H551.563L548.069 101.108Z" fill="#EBEBEB"/>
<path d="M548.069 112.287H382.511L379.017 104.148H551.563L548.069 112.287Z" fill="#EBEBEB"/>
<path d="M548.069 123.492H382.511L379.017 115.328H551.563L548.069 123.492Z" fill="#EBEBEB"/>
<path d="M548.069 134.672H382.511L379.017 126.52H551.563L548.069 134.672Z" fill="#EBEBEB"/>
<path d="M548.069 145.864H382.511L379.017 137.713H551.563L548.069 145.864Z" fill="#EBEBEB"/>
<path d="M548.069 157.057H382.511L379.017 148.905H551.563L548.069 157.057Z" fill="#EBEBEB"/>
<path d="M548.069 168.249H382.511L379.017 160.098H551.563L548.069 168.249Z" fill="#EBEBEB"/>
<path d="M548.069 179.442H382.511L379.017 171.29H551.563L548.069 179.442Z" fill="#EBEBEB"/>
<path d="M548.069 190.634H382.511L379.017 182.483H551.563L548.069 190.634Z" fill="#EBEBEB"/>
<path d="M548.069 201.827H382.511L379.017 193.675H551.563L548.069 201.827Z" fill="#EBEBEB"/>
<path d="M551.563 201.827H379.017V206.485H551.563V201.827Z" fill="#E0E0E0"/>
<path d="M557.579 15.5918H373V26.4608H557.579V15.5918Z" fill="#E0E0E0"/>
<path d="M374.902 125.006C374.405 125.006 373.928 124.809 373.576 124.457C373.224 124.105 373.026 123.628 373.026 123.13V59.7277C373.026 59.2301 373.224 58.7529 373.576 58.4011C373.928 58.0492 374.405 57.8515 374.902 57.8515C375.4 57.8515 375.877 58.0492 376.229 58.4011C376.581 58.7529 376.779 59.2301 376.779 59.7277V123.13C376.779 123.628 376.581 124.105 376.229 124.457C375.877 124.809 375.4 125.006 374.902 125.006Z" fill="#E0E0E0"/>
<path d="M375.575 24.287H374.217V61.9403H375.575V24.287Z" fill="#E0E0E0"/>
<path d="M157.885 340.432H212.553V332.022H157.885V340.432Z" fill="#E0E0E0"/>
<path d="M215.788 423.568H156.268V341.105C156.268 339.983 156.713 338.907 157.507 338.114C158.3 337.32 159.377 336.874 160.499 336.874H211.609C212.731 336.874 213.807 337.32 214.601 338.114C215.394 338.907 215.84 339.983 215.84 341.105V423.568H215.788Z" fill="#F0F0F0"/>
<path d="M160.939 334.61H211.117C213.697 334.61 215.788 332.518 215.788 329.939V326.341C215.788 323.762 213.697 321.67 211.117 321.67H160.939C158.359 321.67 156.268 323.762 156.268 326.341V329.939C156.268 332.518 158.359 334.61 160.939 334.61Z" fill="#F0F0F0"/>
<path d="M198.32 423.58H226.14V419.698L198.32 417.111V423.58Z" fill="#E0E0E0"/>
<path d="M528.065 216.241H503.985C501.622 216.245 499.356 217.185 497.685 218.856C496.014 220.527 495.073 222.793 495.07 225.156V228.132H499.87V225.144C499.869 224.602 499.974 224.066 500.18 223.565C500.386 223.064 500.689 222.609 501.071 222.226C501.453 221.842 501.907 221.538 502.407 221.33C502.907 221.123 503.444 221.016 503.985 221.016H528.065C529.157 221.019 530.204 221.456 530.975 222.229C531.747 223.003 532.18 224.051 532.18 225.144V228.12H536.98V225.144C536.977 222.781 536.036 220.517 534.364 218.848C532.693 217.179 530.427 216.241 528.065 216.241Z" fill="#E0E0E0"/>
<path d="M556.596 234.641V261.619C556.596 263.335 555.914 264.981 554.701 266.194C553.488 267.407 551.842 268.089 550.126 268.089H491.537C489.822 268.089 488.176 267.407 486.963 266.194C485.749 264.981 485.068 263.335 485.068 261.619V234.641C485.068 232.925 485.749 231.28 486.963 230.066C488.176 228.853 489.822 228.171 491.537 228.171H550.075C550.929 228.165 551.776 228.327 552.566 228.649C553.357 228.971 554.077 229.446 554.683 230.048C555.289 230.649 555.77 231.365 556.099 232.153C556.427 232.941 556.596 233.787 556.596 234.641Z" fill="#E6E6E6"/>
<path d="M547.474 234.641V261.619C547.474 263.335 546.792 264.981 545.579 266.194C544.366 267.407 542.72 268.089 541.004 268.089H482.415C480.699 268.089 479.054 267.407 477.841 266.194C476.627 264.981 475.946 263.335 475.946 261.619V234.641C475.946 232.925 476.627 231.28 477.841 230.066C479.054 228.853 480.699 228.171 482.415 228.171H540.953C541.807 228.165 542.653 228.327 543.444 228.649C544.235 228.971 544.955 229.446 545.561 230.048C546.167 230.649 546.648 231.365 546.977 232.153C547.305 232.941 547.474 233.787 547.474 234.641Z" fill="#F5F5F5"/>
<path d="M527.185 232.765H496.635V263.314H527.185V232.765Z" fill="white"/>
<path d="M514.518 239.636H509.355V257.401H514.518V239.636Z" fill="#E0E0E0"/>
<path d="M503.053 245.924V251.087H520.819V245.924H503.053Z" fill="#E0E0E0"/>
<path d="M317.245 477.084C455.802 477.084 568.125 470.527 568.125 462.437C568.125 454.348 455.802 447.79 317.245 447.79C178.688 447.79 66.3652 454.348 66.3652 462.437C66.3652 470.527 178.688 477.084 317.245 477.084Z" fill="#F5F5F5"/>
<path d="M448.695 235.637C449.549 235.534 474.289 237.979 475.868 264.492L471.637 282.865C451.639 275.439 429.591 275.734 409.8 283.694L409.502 283.823L411.223 262.836C411.223 262.836 417.563 239.286 448.695 235.637Z" fill="#263238"/>
<path d="M396.744 363.684L401.713 364.111C403.528 332.56 407.091 301.134 412.388 269.978C413.341 264.943 415.285 260.148 418.106 255.87C420.926 251.592 424.568 247.917 428.821 245.057C430.617 243.761 432.574 242.704 434.643 241.913C438.446 240.284 442.528 239.405 446.664 239.325C448.343 239.325 450.021 239.442 451.684 239.674C455.438 240.25 459.02 241.642 462.178 243.75C463.658 244.883 465.075 246.097 466.422 247.386C467.134 248.122 467.795 248.904 468.402 249.728C470.584 252.859 472.088 256.41 472.819 260.156C473.55 263.901 473.491 267.758 472.646 271.479C467.379 299.96 463.703 328.713 461.635 357.603L466.603 357.939C468.635 329.276 472.259 300.749 477.459 272.488C478.452 268.085 478.513 263.523 477.637 259.095C476.761 254.667 474.969 250.471 472.374 246.778C469.816 243.175 466.496 240.181 462.649 238.007C458.803 235.833 454.524 234.534 450.119 234.201C430.71 232.907 410.511 248.68 407.522 268.917C402.185 300.283 398.587 331.921 396.744 363.684Z" fill="#263238"/>
<path opacity="0.3" d="M396.744 363.684L401.713 364.111C403.528 332.56 407.091 301.134 412.388 269.978C413.341 264.943 415.285 260.148 418.106 255.87C420.926 251.592 424.568 247.917 428.821 245.057C430.617 243.761 432.574 242.704 434.643 241.913C438.446 240.284 442.528 239.405 446.664 239.325C448.343 239.325 450.021 239.442 451.684 239.674C455.438 240.25 459.02 241.642 462.178 243.75C463.658 244.883 465.075 246.097 466.422 247.386C467.134 248.122 467.795 248.904 468.402 249.728C470.584 252.859 472.088 256.41 472.819 260.156C473.55 263.901 473.491 267.758 472.646 271.479C467.379 299.96 463.703 328.713 461.635 357.603L466.603 357.939C468.635 329.276 472.259 300.749 477.459 272.488C478.452 268.085 478.513 263.523 477.637 259.095C476.761 254.667 474.969 250.471 472.374 246.778C469.816 243.175 466.496 240.181 462.649 238.007C458.803 235.833 454.524 234.534 450.119 234.201C430.71 232.907 410.511 248.68 407.522 268.917C402.185 300.283 398.587 331.921 396.744 363.684Z" fill="white"/>
<path d="M466.694 360.682H352.388V358.03C352.388 355.514 353.387 353.102 355.166 351.323C356.945 349.545 359.357 348.545 361.873 348.545H457.196C459.712 348.545 462.124 349.545 463.903 351.323C465.682 353.102 466.681 355.514 466.681 358.03V360.682H466.694Z" fill="#263238"/>
<path d="M462.825 460.535H468.893L463.925 360.695H456.187L462.825 460.535Z" fill="#263238"/>
<path opacity="0.3" d="M462.825 460.535H468.893L463.925 360.695H456.187L462.825 460.535Z" fill="white"/>
<path d="M422.234 460.535H428.303L424.99 360.695H417.266L422.234 460.535Z" fill="#263238"/>
<path opacity="0.3" d="M422.234 460.535H428.303L424.99 360.695H417.266L422.234 460.535Z" fill="white"/>
<path d="M390.766 460.535H396.835L401.803 360.695H394.079L390.766 460.535Z" fill="#263238"/>
<path opacity="0.3" d="M390.766 460.535H396.835L401.803 360.695H394.079L390.766 460.535Z" fill="white"/>
<path d="M350.176 460.535H356.257L362.882 360.695H355.144L350.176 460.535Z" fill="#263238"/>
<path opacity="0.3" d="M350.176 460.535H356.257L362.882 360.695H355.144L350.176 460.535Z" fill="white"/>
<path d="M347.407 365.108H415.325V356.27H347.407V365.108Z" fill="#263238"/>
<path opacity="0.7" d="M347.407 365.108H415.325V356.27H347.407V365.108Z" fill="white"/>
<path d="M415.325 365.108H471.676V356.27H415.325V365.108Z" fill="#263238"/>
<path opacity="0.4" d="M415.325 365.108H471.676V356.27H415.325V365.108Z" fill="white"/>
<path d="M394.907 219.799C382.563 222.232 358.107 232.739 357.952 232.169C357.952 232.169 337.366 227.291 328.903 217.936C328.903 217.936 320.816 216.94 316.585 216.099C319.652 223.332 325.643 232.105 332.293 236.284C340.743 241.589 343.046 243.194 351.405 246.377C361.86 250.362 377.866 246.131 388.23 241.887C392.047 240.321 395.994 238.328 398.206 234.861C400.419 231.393 398.336 222.116 394.907 219.799Z" fill="#407BFF"/>
<path opacity="0.7" d="M394.907 219.799C382.563 222.232 358.107 232.739 357.952 232.169C357.952 232.169 337.366 227.291 328.903 217.936C328.903 217.936 320.816 216.94 316.585 216.099C319.652 223.332 325.643 232.105 332.293 236.284C340.743 241.589 343.046 243.194 351.405 246.377C361.86 250.362 377.866 246.131 388.23 241.887C392.047 240.321 395.994 238.328 398.206 234.861C400.419 231.393 398.336 222.116 394.907 219.799Z" fill="white"/>
<path d="M362.118 219.191H331.362C327.066 203.664 335.671 188.047 331.362 172.481H362.118C366.427 188.047 357.81 203.625 362.118 219.191Z" fill="#407BFF"/>
<g opacity="0.7">
<path d="M362.118 219.191H331.362C327.066 203.664 335.671 188.047 331.362 172.481H362.118C366.427 188.047 357.81 203.625 362.118 219.191Z" fill="white"/>
</g>
<path d="M336.175 210.91L331.245 213.278C330.698 214.891 329.657 216.29 328.269 217.276C326.886 218.057 325.419 218.677 323.896 219.127C322.805 219.47 321.638 219.49 320.536 219.184C319.434 218.879 318.444 218.261 317.685 217.406C317.355 217.073 317.131 216.648 317.044 216.187C316.956 215.726 317.008 215.249 317.193 214.818L321.916 205.993C322.183 205.496 322.561 205.068 323.021 204.742C323.482 204.417 324.011 204.203 324.569 204.117L332.332 202.888C332.816 202.806 333.313 202.858 333.769 203.039C334.225 203.219 334.623 203.52 334.92 203.91L337.198 206.899C337.432 207.218 337.593 207.585 337.668 207.974C337.744 208.362 337.732 208.763 337.634 209.146C337.537 209.53 337.355 209.887 337.103 210.192C336.851 210.497 336.534 210.742 336.175 210.91Z" fill="#CE7A63"/>
<path d="M439.703 292.829L446.987 319.406L406.979 327.985L382.821 315.188L389.576 292.324L439.703 292.829Z" fill="#407BFF"/>
<path opacity="0.1" d="M439.703 292.829L446.987 319.406L406.979 327.985L382.821 315.188L389.576 292.324L439.703 292.829Z" fill="black"/>
<path d="M385.681 235.081C384.953 241.892 384.923 248.759 385.59 255.577C385.966 264.738 387.958 274.364 390.456 289.219C395.463 292.156 420.837 290.94 437.037 288.843C436.054 275.904 437.671 260.998 446.47 231.768C448.514 224.988 443.96 218.48 436.688 217.794C434.747 217.6 432.677 217.445 430.567 217.354C423.157 216.862 415.722 216.862 408.312 217.354C405.944 217.574 403.382 217.859 400.988 218.156C392.358 219.256 387.273 225.907 385.681 235.081Z" fill="#407BFF"/>
<path d="M389.576 292.324C405.94 294.127 422.454 294.092 438.81 292.221C438.961 292.187 439.105 292.124 439.232 292.035C439.358 291.945 439.466 291.832 439.549 291.701C439.632 291.57 439.689 291.424 439.715 291.271C439.741 291.118 439.737 290.961 439.703 290.81V290.655C439.302 289.71 438.888 288.766 438.512 287.821C438.429 287.613 438.281 287.437 438.09 287.321C437.898 287.204 437.674 287.153 437.451 287.174C421.721 288.895 405.85 288.895 390.119 287.174C389.983 287.156 389.843 287.165 389.71 287.201C389.577 287.237 389.452 287.298 389.342 287.382C389.233 287.467 389.141 287.572 389.073 287.691C389.004 287.811 388.959 287.943 388.942 288.08C388.948 288.106 388.948 288.132 388.942 288.158C388.838 289.141 388.748 290.111 388.657 291.095C388.639 291.239 388.65 291.386 388.689 291.527C388.728 291.667 388.795 291.798 388.885 291.912C388.976 292.027 389.088 292.122 389.215 292.193C389.343 292.263 389.483 292.308 389.628 292.324H389.576Z" fill="#407BFF"/>
<path d="M407.729 216.953C395.631 232.48 394.79 270.858 397.831 346.242C398.103 352.815 391.801 352.337 385.629 351.069C376.442 349.166 372.793 349.852 372.793 349.852C372.793 349.852 387.454 311.358 385.073 276.836C382.692 242.314 384.348 230.112 389.951 223.785C395.554 217.458 407.729 216.953 407.729 216.953Z" fill="#407BFF"/>
<path opacity="0.7" d="M407.729 216.953C395.631 232.48 394.79 270.858 397.831 346.242C398.09 352.815 392.112 352.104 385.616 351.069C381.385 350.297 377.095 349.89 372.793 349.852C372.793 349.852 387.454 311.358 385.073 276.836C382.692 242.314 384.348 230.112 389.951 223.785C395.554 217.458 407.729 216.953 407.729 216.953Z" fill="white"/>
<path d="M429.028 192.278C427.1 199.407 424.719 212.566 429.377 217.354C429.377 217.354 423.231 222.284 410.201 227.032C406.319 226.036 407.134 217.354 407.134 217.354C415.273 215.439 415.506 209.59 414.523 203.962L429.028 192.278Z" fill="#CE7A63"/>
<path opacity="0.2" d="M423.115 197.039L414.51 203.949C414.752 205.229 414.882 206.528 414.898 207.831C417.991 207.391 422.429 204.052 422.998 200.843C423.256 199.592 423.295 198.305 423.115 197.039Z" fill="black"/>
<path d="M415.674 166.076C407.202 177.528 403.547 191.842 405.491 205.954C401.402 198.191 397.727 202.422 397.43 193.675C397.3 189.276 399.591 171.432 401.544 167.486C403.498 163.539 407.496 160.356 411.896 160.538C413.485 160.547 415.009 161.168 416.153 162.271C417.227 163.423 416.645 164.82 415.674 166.076Z" fill="#263238"/>
<path d="M435.148 177.902C432.987 189.47 432.301 194.413 425.663 199.899C415.726 208.206 402.088 203.781 400.742 192.045C399.565 181.422 403.33 164.29 415.247 160.473C417.783 159.546 420.521 159.318 423.175 159.811C425.83 160.304 428.303 161.501 430.336 163.277C432.37 165.052 433.889 167.342 434.736 169.905C435.582 172.469 435.724 175.213 435.148 177.85V177.902Z" fill="#CE7A63"/>
<path d="M415.066 180.555C414.795 181.499 414.057 182.159 413.462 182.03C412.867 181.9 412.569 181.02 412.841 180.076C413.112 179.131 413.85 178.458 414.458 178.588C415.066 178.717 415.351 179.597 415.066 180.555Z" fill="#263238"/>
<path d="M405.232 178.187C404.961 179.131 404.236 179.791 403.628 179.662C403.02 179.532 402.735 178.64 403.02 177.708C403.304 176.776 404.016 176.091 404.624 176.233C405.232 176.375 405.517 177.268 405.232 178.187Z" fill="#263238"/>
<path d="M404.883 176.336L402.813 175.185C402.813 175.185 403.46 177.268 404.883 176.336Z" fill="#263238"/>
<path d="M407.988 180.451C406.516 182.432 404.798 184.219 402.877 185.769C403.262 186.225 403.748 186.586 404.295 186.824C404.843 187.062 405.438 187.17 406.034 187.141L407.988 180.451Z" fill="#BA4D3C"/>
<path d="M410.408 191.825C409.867 191.799 409.329 191.721 408.803 191.592C408.768 191.586 408.734 191.573 408.703 191.553C408.673 191.533 408.647 191.507 408.628 191.476C408.608 191.446 408.596 191.411 408.59 191.376C408.585 191.34 408.587 191.303 408.596 191.268C408.62 191.195 408.671 191.133 408.738 191.095C408.804 191.057 408.883 191.045 408.959 191.061C410.16 191.326 411.406 191.319 412.604 191.039C413.802 190.759 414.922 190.214 415.881 189.444C415.934 189.391 416.007 189.361 416.082 189.361C416.157 189.361 416.229 189.391 416.282 189.444C416.332 189.499 416.36 189.57 416.36 189.645C416.36 189.719 416.332 189.79 416.282 189.845C414.636 191.208 412.543 191.913 410.408 191.825Z" fill="#263238"/>
<path d="M406.94 162.026C410.563 157.044 420.41 155.685 426.181 157.057C446.625 161.935 437.244 178.924 449.084 188.473C445.642 194.645 442.329 193.339 438.318 196.121C435.976 197.751 429.765 202.836 426.957 202.59C427.1 196.806 429.636 190.156 428.458 184.475C427.432 178.823 424.938 173.539 421.225 169.155C417.46 165.015 412.375 161.741 406.94 162.026Z" fill="#263238"/>
<path opacity="0.2" d="M406.94 162.026C410.563 157.044 420.41 155.685 426.181 157.057C446.625 161.935 437.244 178.924 449.084 188.473C445.642 194.645 442.329 193.339 438.318 196.121C435.976 197.751 429.765 202.836 426.957 202.59C427.1 196.806 429.636 190.156 428.458 184.475C427.432 178.823 424.938 173.539 421.225 169.155C417.46 165.015 412.375 161.741 406.94 162.026Z" fill="black"/>
<path d="M406.94 162.026C410.563 157.044 420.41 155.685 426.181 157.057C446.625 161.935 437.244 178.924 449.084 188.473C445.642 194.645 442.329 193.339 438.318 196.121C435.976 197.751 429.765 202.836 426.957 202.59C427.1 196.806 429.636 190.156 428.458 184.475C427.432 178.823 424.938 173.539 421.225 169.155C417.46 165.015 412.375 161.741 406.94 162.026Z" fill="#263238"/>
<path opacity="0.1" d="M406.94 162.026C410.563 157.044 420.41 155.685 426.181 157.057C446.625 161.935 437.244 178.924 449.084 188.473C445.642 194.645 442.329 193.339 438.318 196.121C435.976 197.751 429.765 202.836 426.957 202.59C427.1 196.806 429.636 190.156 428.458 184.475C427.432 178.823 424.938 173.539 421.225 169.155C417.46 165.015 412.375 161.741 406.94 162.026Z" fill="black"/>
<path d="M434.462 189.612C433.869 190.57 433.08 191.392 432.149 192.025C431.217 192.658 430.162 193.088 429.054 193.287C426.297 193.675 425.495 190.466 426.776 187.516C427.967 184.928 430.723 181.46 433.246 182.444C435.769 183.427 436.054 187.089 434.462 189.612Z" fill="#CE7A63"/>
<path d="M419.478 176.776C419.408 176.755 419.345 176.716 419.293 176.664C419.241 176.612 419.203 176.549 419.181 176.479C418.942 175.82 418.545 175.231 418.023 174.764C417.501 174.297 416.872 173.966 416.192 173.8C416.056 173.781 415.934 173.709 415.852 173.6C415.769 173.491 415.733 173.354 415.752 173.218C415.746 173.197 415.746 173.174 415.752 173.153C415.786 173.001 415.878 172.867 416.008 172.78C416.138 172.694 416.297 172.66 416.451 172.688C417.316 172.879 418.12 173.286 418.785 173.873C419.45 174.459 419.956 175.204 420.255 176.039C420.305 176.183 420.296 176.341 420.231 176.479C420.166 176.617 420.049 176.724 419.905 176.776C419.768 176.83 419.616 176.83 419.478 176.776Z" fill="#263238"/>
<path d="M403.058 172.584C402.988 172.582 402.918 172.567 402.853 172.538C402.789 172.509 402.73 172.467 402.682 172.415C402.634 172.363 402.597 172.302 402.572 172.236C402.548 172.169 402.537 172.098 402.541 172.028C402.545 171.945 402.568 171.865 402.608 171.793C402.649 171.721 402.705 171.66 402.774 171.614C403.464 170.985 404.291 170.525 405.189 170.269C406.087 170.014 407.031 169.969 407.949 170.139C408.086 170.178 408.203 170.268 408.275 170.391C408.347 170.514 408.37 170.66 408.338 170.798C408.285 170.944 408.181 171.065 408.045 171.139C407.909 171.212 407.751 171.234 407.6 171.2C406.876 171.078 406.134 171.123 405.429 171.331C404.725 171.54 404.078 171.906 403.537 172.403C403.475 172.465 403.4 172.514 403.317 172.545C403.235 172.576 403.146 172.59 403.058 172.584Z" fill="#263238"/>
<path d="M414.717 178.704L412.646 177.553C412.646 177.553 413.293 179.584 414.717 178.704Z" fill="#263238"/>
<path d="M408.7 161.534C407.821 162.489 407.12 163.593 406.63 164.795C406.386 165.395 406.278 166.041 406.314 166.688C406.35 167.334 406.528 167.965 406.837 168.534C407.489 169.478 408.421 170.193 409.502 170.578C410.561 171.041 411.667 171.384 412.802 171.601C412.205 171.104 411.764 170.445 411.535 169.703C411.305 168.961 411.296 168.168 411.508 167.421C411.634 168.154 411.916 168.852 412.336 169.466C412.756 170.08 413.303 170.596 413.94 170.98C415.105 171.665 416.412 172.041 417.615 172.649C421.406 174.551 428.471 184.514 423.244 205.23C427.863 203.522 434.346 187.257 433.272 182.444C432.198 177.63 431.978 165.26 419.672 160.939C416.347 159.787 412.077 160.576 408.7 161.534Z" fill="#263238"/>
<path d="M348.933 449.485L337.818 450.559L331.232 419.246L344.34 417.732L348.933 449.485Z" fill="#CE7A63"/>
<path d="M333.225 447.971C334.255 446.922 335.639 446.295 337.107 446.211L349.024 445.383C349.292 445.349 349.564 445.42 349.781 445.582C349.998 445.744 350.144 445.983 350.188 446.25L352.492 457.313C352.623 457.92 352.509 458.554 352.174 459.078C351.84 459.601 351.312 459.972 350.706 460.108H350.654C346.151 461.272 343.318 460.328 336.421 460.806C332.177 461.104 323.158 462.786 317.374 461.829C311.591 460.871 312.328 455.139 314.787 455.023C323.663 454.738 330.935 450.287 333.225 447.971Z" fill="#263238"/>
<g opacity="0.2">
<path d="M331.232 419.259L335.062 437.464L346.85 435.006L344.353 417.745L331.232 419.259Z" fill="black"/>
</g>
<path d="M400.898 354.329C400.458 354.329 400.005 354.329 399.539 354.329C398.782 354.318 398.025 354.262 397.275 354.161L337.754 350.978C347.368 359.79 348.946 430.399 348.946 430.399L346.1 431.007L333.161 433.764L330.793 434.268C330.793 434.268 325.397 411.146 319.147 384.62C315.99 371.189 311.901 357.305 310.09 343.978C309.597 340.435 309.312 336.866 309.236 333.29C309.236 332.19 309.236 331.103 309.236 330.016C309.229 329.904 309.229 329.792 309.236 329.68C309.236 329.214 309.236 328.774 309.339 328.386C309.639 326.233 310.536 324.207 311.927 322.537L312.367 322.033C312.512 321.864 312.668 321.704 312.833 321.554C313.145 321.231 313.473 320.925 313.816 320.635C314.179 320.338 314.541 320.04 314.929 319.756L315.925 319.07C316.339 318.811 316.754 318.565 317.219 318.319C317.437 318.19 317.661 318.073 317.892 317.97C318.565 317.608 319.264 317.271 320.001 316.961L320.635 316.689L321.502 316.365C321.761 316.249 322.02 316.158 322.279 316.068C323.068 315.783 323.883 315.511 324.724 315.291L325.151 315.162H325.268C347.847 308.77 386.25 313.7 386.25 313.7C386.25 313.7 396.395 306.195 407.173 304.772L408.7 304.94L413.501 305.471C413.569 305.464 413.639 305.464 413.708 305.471C429.584 333.122 419.737 354.122 400.898 354.329Z" fill="#407BFF"/>
<g opacity="0.1">
<path d="M400.898 354.329C400.458 354.329 400.005 354.329 399.539 354.329C398.782 354.318 398.025 354.262 397.275 354.161L337.754 350.978C347.368 359.79 348.946 430.399 348.946 430.399L346.1 431.007L333.161 433.764L330.793 434.268C330.793 434.268 325.397 411.146 319.147 384.62C315.99 371.189 311.901 357.305 310.09 343.978C309.597 340.435 309.312 336.866 309.236 333.29C309.236 332.19 309.236 331.103 309.236 330.016C309.229 329.904 309.229 329.792 309.236 329.68C309.236 329.214 309.236 328.774 309.339 328.386C309.639 326.233 310.536 324.207 311.927 322.537L312.367 322.033C312.512 321.864 312.668 321.704 312.833 321.554C313.145 321.231 313.473 320.925 313.816 320.635C314.179 320.338 314.541 320.04 314.929 319.756L315.925 319.07C316.339 318.811 316.754 318.565 317.219 318.319C317.437 318.19 317.661 318.073 317.892 317.97C318.565 317.608 319.264 317.271 320.001 316.961L320.635 316.689L321.502 316.365C321.761 316.249 322.02 316.158 322.279 316.068C323.068 315.783 323.883 315.511 324.724 315.291L325.151 315.162H325.268C347.847 308.77 386.25 313.7 386.25 313.7C386.25 313.7 396.395 306.195 407.173 304.772L408.7 304.94L413.501 305.471C413.569 305.464 413.639 305.464 413.708 305.471C429.584 333.122 419.737 354.122 400.898 354.329Z" fill="black"/>
</g>
<path d="M275.348 396.317L272.165 401.195L265.074 412.064L253.209 413.306L262.202 394.415L268.309 381.553L275.348 396.317Z" fill="#CE7A63"/>
<path d="M256.198 405.168L266.018 411.301C266.239 411.424 266.406 411.624 266.49 411.862C266.573 412.101 266.567 412.361 266.471 412.595L261.658 423.826C261.522 424.095 261.335 424.334 261.106 424.53C260.878 424.726 260.613 424.875 260.327 424.969C260.041 425.063 259.74 425.099 259.44 425.076C259.139 425.053 258.847 424.972 258.578 424.835H258.514C253.933 422.053 251.876 420.488 246.066 417.072L231.613 408.687C226.67 405.789 229.336 400.794 231.678 401.558C242.029 405 249.055 405.439 253.674 404.715C254.543 404.562 255.437 404.722 256.198 405.168Z" fill="#263238"/>
<g opacity="0.2">
<path d="M275.348 396.317L272.178 401.195H272.165L262.201 394.415L268.309 381.553L275.348 396.317Z" fill="black"/>
</g>
<path d="M404.727 355.416C403.417 355.259 402.12 355.008 400.846 354.666C400.406 354.562 399.953 354.433 399.487 354.29C388.566 351.146 372.845 342.542 358.211 334.066C344.728 326.303 332.216 318.539 325.28 315.382H325.164L324.737 315.511C323.896 315.744 323.08 316.016 322.291 316.301C322.026 316.378 321.767 316.473 321.515 316.585L320.648 316.909L320.014 317.181C319.276 317.491 318.578 317.84 317.905 318.19C317.672 318.293 317.452 318.423 317.232 318.539C316.792 318.785 316.378 319.031 315.938 319.29L314.942 319.988C314.553 320.273 314.191 320.558 313.829 320.855C313.486 321.145 313.158 321.451 312.846 321.774C312.677 321.929 312.522 322.097 312.38 322.253L311.94 322.757C310.548 324.427 309.652 326.453 309.352 328.606C309.352 329.046 309.261 329.499 309.248 329.9C309.248 330.987 309.248 332.074 309.248 333.173C309.312 336.77 309.584 340.361 310.064 343.926V344.198C293.812 373.505 276.913 400.083 276.913 400.083L274.041 398.103L263.689 391.012L261.904 389.718C261.904 389.718 279.941 347.458 292.35 309.805C294.619 302.881 299.031 296.858 304.948 292.606C310.865 288.355 317.981 286.094 325.267 286.152C355.895 286.424 396.11 303.348 396.11 303.348L407.147 304.526L408.674 304.694L413.474 305.225C413.543 305.219 413.612 305.219 413.681 305.225C416.269 305.509 419.168 305.716 421.975 305.923C425.078 306.147 428.035 307.329 430.436 309.307C432.837 311.284 434.565 313.959 435.381 316.961C443.61 346.954 424.033 357.784 404.727 355.416Z" fill="#407BFF"/>
<path d="M404.727 355.416C403.417 355.259 402.12 355.008 400.846 354.666C400.406 354.562 399.953 354.433 399.487 354.29C388.566 351.146 372.845 342.542 358.211 334.066C344.728 326.303 332.216 318.539 325.28 315.382H325.164L324.737 315.511C323.896 315.744 323.08 316.016 322.291 316.301C322.026 316.378 321.767 316.473 321.515 316.585L320.648 316.909L320.014 317.181C319.276 317.491 318.578 317.84 317.905 318.19C317.672 318.293 317.452 318.423 317.232 318.539C316.792 318.785 316.378 319.031 315.938 319.29L314.942 319.988C314.553 320.273 314.191 320.558 313.829 320.855C313.486 321.145 313.158 321.451 312.846 321.774C312.677 321.929 312.522 322.097 312.38 322.253L311.94 322.757C310.548 324.427 309.652 326.453 309.352 328.606C309.352 329.046 309.261 329.499 309.248 329.9C309.248 330.987 309.248 332.074 309.248 333.173C309.312 336.77 309.584 340.361 310.064 343.926V344.198C293.812 373.505 276.913 400.083 276.913 400.083L274.041 398.103L263.689 391.012L261.904 389.718C261.904 389.718 279.941 347.458 292.35 309.805C294.619 302.881 299.031 296.858 304.948 292.606C310.865 288.355 317.981 286.094 325.267 286.152C355.895 286.424 396.11 303.348 396.11 303.348L407.147 304.526L408.674 304.694L413.474 305.225C413.543 305.219 413.612 305.219 413.681 305.225C416.269 305.509 419.168 305.716 421.975 305.923C425.078 306.147 428.035 307.329 430.436 309.307C432.837 311.284 434.565 313.959 435.381 316.961C443.61 346.954 424.033 357.784 404.727 355.416Z" fill="#407BFF"/>
<path d="M429.882 216.241C429.882 216.241 421.458 223.72 418.948 241.77C414.937 270.871 417.033 326.976 418.534 359.026C418.588 360.12 418.899 361.186 419.443 362.136C419.987 363.086 420.748 363.895 421.664 364.495C422.58 365.096 423.625 365.471 424.713 365.591C425.802 365.711 426.903 365.572 427.928 365.185C437.93 361.459 454.272 364.383 461.57 358.056C462.1 348.403 445.305 299.078 446.936 273.549C448.566 248.02 451.749 225.777 448.449 220.964C445.15 216.151 429.882 216.241 429.882 216.241Z" fill="#407BFF"/>
<path opacity="0.7" d="M429.882 216.241C429.882 216.241 421.458 223.72 418.948 241.77C414.937 270.871 417.253 326.976 418.767 359.026C418.819 360.119 419.128 361.185 419.671 362.136C420.213 363.086 420.973 363.895 421.888 364.496C422.803 365.096 423.847 365.472 424.935 365.592C426.023 365.712 427.124 365.572 428.148 365.185C438.15 361.459 454.272 364.383 461.609 358.056C462.139 348.403 445.344 299.078 446.974 273.549C448.605 248.02 451.788 225.777 448.488 220.964C445.189 216.151 429.882 216.241 429.882 216.241Z" fill="white"/>
<path d="M429.506 254.541C429.45 254.538 429.395 254.524 429.345 254.499C429.294 254.475 429.249 254.44 429.212 254.398C429.175 254.356 429.146 254.307 429.128 254.254C429.109 254.201 429.102 254.145 429.105 254.088C429.109 254.013 429.132 253.939 429.173 253.876C429.214 253.812 429.271 253.76 429.338 253.726L431.137 252.846C432.817 252.041 434.213 250.743 435.137 249.125C436.062 247.507 436.472 245.646 436.313 243.789L434.85 226.282C434.742 224.978 434.198 223.749 433.306 222.793C432.414 221.836 431.225 221.208 429.933 221.009C428.64 220.81 427.318 221.053 426.179 221.697C425.041 222.341 424.153 223.35 423.658 224.561L416.981 240.787C416.265 242.507 416.088 244.404 416.474 246.227C416.86 248.05 417.79 249.713 419.142 250.996L420.604 252.38C420.683 252.462 420.726 252.571 420.726 252.685C420.726 252.798 420.683 252.907 420.604 252.989C420.565 253.029 420.517 253.061 420.465 253.083C420.413 253.105 420.357 253.116 420.3 253.116C420.244 253.116 420.188 253.105 420.135 253.083C420.083 253.061 420.036 253.029 419.996 252.989L418.534 251.604C417.059 250.199 416.046 248.378 415.63 246.384C415.214 244.389 415.414 242.315 416.205 240.438L422.933 224.25C423.506 222.864 424.528 221.711 425.835 220.975C427.143 220.239 428.659 219.964 430.141 220.194C431.623 220.424 432.985 221.146 434.008 222.243C435.031 223.34 435.656 224.748 435.782 226.243L437.231 243.724C437.398 245.757 436.941 247.792 435.922 249.558C434.902 251.324 433.369 252.738 431.525 253.61L429.726 254.477C429.663 254.524 429.585 254.547 429.506 254.541Z" fill="#263238"/>
<path d="M435.536 230.112C435.432 230.107 435.334 230.065 435.258 229.994C435.182 229.923 435.134 229.827 435.122 229.724C434.83 228.351 434.129 227.1 433.11 226.135C432.091 225.171 430.803 224.538 429.416 224.322C428.03 224.106 426.611 224.316 425.347 224.925C424.082 225.534 423.033 226.513 422.338 227.731C422.326 227.794 422.301 227.854 422.264 227.906C422.227 227.958 422.179 228.001 422.123 228.033C422.068 228.065 422.006 228.084 421.942 228.089C421.879 228.094 421.814 228.086 421.754 228.064C421.694 228.042 421.64 228.007 421.595 227.962C421.549 227.917 421.514 227.863 421.492 227.803C421.47 227.743 421.462 227.679 421.467 227.615C421.472 227.551 421.491 227.489 421.523 227.434C422.289 226.034 423.468 224.905 424.9 224.2C426.331 223.495 427.945 223.248 429.521 223.493C431.098 223.737 432.561 224.462 433.711 225.567C434.862 226.673 435.643 228.106 435.95 229.672C435.961 229.783 435.928 229.895 435.857 229.982C435.787 230.069 435.686 230.125 435.575 230.138L435.536 230.112Z" fill="#263238"/>
<path d="M429.959 221.003C429.904 221 429.849 220.985 429.799 220.96C429.749 220.936 429.705 220.901 429.669 220.859C429.633 220.817 429.605 220.767 429.588 220.714C429.572 220.661 429.566 220.605 429.571 220.55C429.752 218.441 429.571 214.585 427.591 213.537C427.542 213.51 427.499 213.473 427.463 213.429C427.428 213.385 427.402 213.335 427.387 213.281C427.371 213.226 427.366 213.17 427.372 213.114C427.379 213.058 427.396 213.004 427.423 212.955C427.45 212.905 427.487 212.862 427.531 212.827C427.575 212.792 427.625 212.765 427.679 212.75C427.733 212.734 427.79 212.729 427.846 212.736C427.902 212.742 427.956 212.759 428.005 212.786C430.852 214.339 430.438 219.981 430.373 220.628C430.364 220.731 430.316 220.826 430.239 220.896C430.162 220.965 430.063 221.003 429.959 221.003Z" fill="#263238"/>
<path d="M421.251 252.821C421.122 253.636 420.591 254.218 420.061 254.114C419.53 254.011 419.207 253.325 419.336 252.523C419.465 251.721 419.983 251.125 420.513 251.229C421.044 251.333 421.367 252.031 421.251 252.821Z" fill="#263238"/>
<path d="M430.477 254.27C430.36 255.059 429.83 255.641 429.299 255.564C428.769 255.486 428.445 254.762 428.575 253.959C428.704 253.157 429.221 252.588 429.752 252.665C430.282 252.743 430.606 253.455 430.477 254.27Z" fill="#263238"/>
<path d="M407.147 237.487C406.707 239.286 405.388 240.515 404.249 240.231C403.11 239.946 402.463 238.29 402.955 236.439C403.447 234.589 404.715 233.412 405.853 233.709C406.992 234.007 407.587 235.689 407.147 237.487Z" fill="#263238"/>
<path d="M403.473 236.866H403.382C403.326 236.863 403.271 236.849 403.221 236.824C403.17 236.8 403.125 236.765 403.088 236.723C403.05 236.681 403.022 236.632 403.003 236.579C402.985 236.526 402.978 236.47 402.981 236.413C403.434 229.167 407.743 217.173 412.466 213.252C412.504 213.21 412.551 213.177 412.604 213.154C412.656 213.131 412.713 213.119 412.77 213.119C412.827 213.119 412.883 213.131 412.936 213.154C412.988 213.177 413.035 213.21 413.074 213.252C413.114 213.292 413.146 213.339 413.168 213.391C413.19 213.444 413.201 213.5 413.201 213.556C413.201 213.613 413.19 213.669 413.168 213.721C413.146 213.773 413.114 213.821 413.074 213.86C413.045 213.893 413.01 213.92 412.97 213.938C408.416 217.82 404.223 229.349 403.796 236.478C403.793 236.569 403.759 236.657 403.701 236.727C403.642 236.798 403.562 236.846 403.473 236.866Z" fill="#263238"/>
<path d="M408.428 237.669C408.131 239.209 406.992 240.257 405.84 240.088C405.233 239.85 404.738 239.391 404.455 238.803C404.172 238.215 404.122 237.542 404.314 236.918C404.598 235.366 405.75 234.331 406.901 234.499C407.509 234.737 408.003 235.197 408.287 235.784C408.57 236.372 408.62 237.045 408.428 237.669Z" fill="white"/>
<path d="M408.519 237.811C408.118 239.713 407.07 241.11 406.203 240.929C405.336 240.748 404.909 239.04 405.375 237.125C405.84 235.21 406.824 233.826 407.691 234.02C408.558 234.214 408.881 235.896 408.519 237.811Z" fill="#263238"/>
<path d="M391.051 279.191L364.059 279.682C363.548 279.684 363.054 279.5 362.668 279.164C362.283 278.829 362.032 278.364 361.963 277.858L356.787 236.556C356.754 236.321 356.772 236.081 356.839 235.853C356.906 235.626 357.022 235.415 357.178 235.236C357.333 235.057 357.526 234.913 357.742 234.815C357.958 234.717 358.193 234.666 358.431 234.667L385.461 234.201C385.972 234.199 386.466 234.383 386.852 234.719C387.237 235.055 387.488 235.519 387.557 236.025L392.733 277.327C392.763 277.564 392.741 277.804 392.67 278.031C392.598 278.259 392.479 278.468 392.319 278.645C392.159 278.822 391.963 278.962 391.744 279.056C391.526 279.15 391.289 279.196 391.051 279.191Z" fill="#263238"/>
<path d="M375.601 237.63L369.132 237.746C368.496 237.751 367.881 237.521 367.403 237.101C366.926 236.681 366.62 236.1 366.544 235.469L366.052 231.613L377.18 231.406L377.646 235.21C377.699 235.508 377.686 235.814 377.608 236.106C377.529 236.398 377.387 236.669 377.192 236.9C376.997 237.131 376.753 237.317 376.478 237.443C376.203 237.569 375.904 237.633 375.601 237.63Z" fill="#263238"/>
<path opacity="0.7" d="M375.601 237.63L369.132 237.746C368.496 237.751 367.881 237.521 367.403 237.101C366.926 236.681 366.62 236.1 366.544 235.469L366.052 231.613L377.18 231.406L377.646 235.21C377.699 235.508 377.686 235.814 377.608 236.106C377.529 236.398 377.387 236.669 377.192 236.9C376.997 237.131 376.753 237.317 376.478 237.443C376.203 237.569 375.904 237.633 375.601 237.63Z" fill="white"/>
<path d="M386.703 234.266H385.409C385.919 234.269 386.41 234.456 386.795 234.79C387.179 235.125 387.431 235.586 387.505 236.09L392.681 277.405C392.714 277.64 392.697 277.88 392.629 278.108C392.562 278.335 392.447 278.546 392.291 278.725C392.135 278.904 391.942 279.048 391.726 279.146C391.51 279.244 391.275 279.295 391.038 279.294H392.332C392.569 279.295 392.803 279.245 393.019 279.146C393.234 279.048 393.426 278.904 393.581 278.725C393.736 278.545 393.85 278.334 393.916 278.107C393.982 277.879 393.997 277.64 393.962 277.405L388.786 236.09C388.712 235.588 388.462 235.129 388.081 234.794C387.699 234.46 387.21 234.273 386.703 234.266Z" fill="white"/>
<path opacity="0.2" d="M439.172 227.032C439.573 227.912 430.826 262.771 430.826 262.771L437.49 265.708L439.172 227.032Z" fill="black"/>
<path d="M453.522 249.547C452.008 263.224 450.61 268.568 449.64 270.056C444.619 288.598 428.652 279.268 426.349 278.505C422.364 277.211 418.249 274.494 414.445 272.734C407.044 269.383 400.057 266.73 393.134 262.473L396.679 254.826C396.679 254.826 423.244 260.597 426.724 261.296C428.238 261.632 435.782 262.874 435.614 258.824C436.39 257.453 437.076 234.02 439.25 224.665C439.501 223.616 439.963 222.63 440.608 221.766L440.828 221.482C442.277 219.515 443.235 219.528 445.888 219.631C451.671 219.864 454.402 224.328 455.01 230.086C455.579 235.495 454.169 244.216 453.522 249.547Z" fill="#407BFF"/>
<g opacity="0.7">
<path d="M453.522 249.547C452.008 263.224 450.61 268.568 449.64 270.056C444.619 288.598 428.652 279.268 426.349 278.505C422.364 277.211 418.249 274.494 414.445 272.734C407.044 269.383 400.057 266.73 393.134 262.473L396.679 254.826C396.679 254.826 423.244 260.597 426.724 261.296C428.238 261.632 435.782 262.874 435.614 258.824C436.39 257.453 437.076 234.02 439.25 224.665C439.501 223.616 439.963 222.63 440.608 221.766L440.828 221.482C442.277 219.515 443.235 219.528 445.888 219.631C451.671 219.864 454.402 224.328 455.01 230.086C455.579 235.495 454.169 244.216 453.522 249.547Z" fill="white"/>
</g>
<path d="M396.99 255.732C397.198 256.664 397.212 257.629 397.032 258.566C396.851 259.504 396.48 260.395 395.942 261.183C395.403 261.972 394.708 262.641 393.9 263.15C393.093 263.659 392.189 263.997 391.245 264.142C389.129 264.454 386.986 264.536 384.853 264.388L384.361 251.255L394.415 253.222C395.042 253.343 395.62 253.646 396.078 254.092C396.536 254.538 396.853 255.108 396.99 255.732Z" fill="#CE7A63"/>
<path d="M384.361 251.255L384.892 264.427L380.013 264.712C378.581 264.802 377.162 264.383 376.009 263.528C374.856 262.673 374.042 261.438 373.712 260.041L373.647 259.73C373.458 258.929 373.434 258.097 373.576 257.286C373.718 256.475 374.024 255.701 374.474 255.011C374.924 254.321 375.509 253.73 376.195 253.274C376.88 252.817 377.651 252.505 378.461 252.355L384.361 251.255Z" fill="#CE7A63"/>
<path d="M265.501 243.672L261.994 279.23H267.726L265.501 243.672Z" fill="#263238"/>
<path d="M308.291 279.023L267.131 279.191L265.126 243.685L306.273 243.504L308.291 279.023Z" fill="#407BFF"/>
<path opacity="0.6" d="M308.291 279.023L267.131 279.191L265.126 243.685L306.273 243.504L308.291 279.023Z" fill="white"/>
<path d="M306.273 243.504L265.126 243.685L264.737 237.035L305.897 236.866L306.273 243.504Z" fill="#263238"/>
<path d="M270.896 234.809C270.877 234.516 270.747 234.241 270.534 234.04C270.32 233.838 270.039 233.725 269.745 233.722C269.603 233.72 269.462 233.747 269.331 233.803C269.2 233.858 269.082 233.94 268.985 234.044C268.887 234.147 268.812 234.27 268.765 234.404C268.718 234.538 268.699 234.68 268.71 234.822C268.71 235.21 268.93 238.82 268.956 239.208C268.975 239.503 269.104 239.779 269.317 239.983C269.531 240.186 269.812 240.302 270.107 240.308C270.249 240.309 270.389 240.28 270.519 240.224C270.649 240.168 270.766 240.086 270.863 239.983C270.96 239.879 271.035 239.758 271.083 239.624C271.131 239.491 271.151 239.35 271.142 239.208C271.129 238.898 270.922 235.12 270.896 234.809Z" fill="#407BFF"/>
<path d="M278.815 234.783C278.799 234.488 278.671 234.21 278.457 234.006C278.243 233.802 277.96 233.686 277.664 233.683C277.521 233.683 277.38 233.712 277.249 233.769C277.118 233.826 277 233.909 276.903 234.014C276.806 234.118 276.731 234.242 276.684 234.376C276.637 234.511 276.618 234.654 276.629 234.796C276.629 235.184 276.849 238.794 276.874 239.183C276.897 239.477 277.029 239.752 277.245 239.953C277.461 240.154 277.744 240.267 278.039 240.27C278.181 240.27 278.321 240.241 278.451 240.185C278.581 240.129 278.698 240.047 278.795 239.944C278.892 239.841 278.967 239.719 279.015 239.586C279.063 239.453 279.083 239.311 279.074 239.17C279.048 238.859 278.841 235.094 278.815 234.783Z" fill="#407BFF"/>
<path d="M286.747 234.744C286.724 234.45 286.592 234.175 286.376 233.974C286.161 233.773 285.878 233.66 285.583 233.657C285.44 233.655 285.299 233.683 285.168 233.738C285.038 233.793 284.92 233.875 284.822 233.979C284.725 234.082 284.65 234.205 284.603 234.339C284.555 234.473 284.537 234.616 284.547 234.757C284.547 235.145 284.78 238.755 284.793 239.144C284.813 239.44 284.944 239.718 285.16 239.922C285.376 240.126 285.661 240.241 285.958 240.243C286.1 240.242 286.24 240.212 286.37 240.154C286.5 240.097 286.617 240.013 286.714 239.909C286.811 239.805 286.886 239.683 286.934 239.549C286.982 239.415 287.002 239.273 286.993 239.131C286.967 238.82 286.76 235.055 286.747 234.744Z" fill="#407BFF"/>
<path d="M294.666 234.718C294.647 234.422 294.516 234.144 294.3 233.94C294.084 233.736 293.799 233.621 293.502 233.619C293.361 233.62 293.221 233.65 293.092 233.707C292.963 233.764 292.847 233.846 292.75 233.948C292.653 234.051 292.578 234.172 292.53 234.305C292.481 234.437 292.46 234.578 292.466 234.718C292.466 235.107 292.699 238.73 292.725 239.118C292.745 239.411 292.874 239.686 293.088 239.887C293.301 240.089 293.583 240.202 293.877 240.205C294.019 240.207 294.16 240.18 294.291 240.124C294.422 240.069 294.54 239.987 294.637 239.883C294.735 239.78 294.809 239.657 294.857 239.523C294.904 239.389 294.923 239.247 294.912 239.105C294.899 238.794 294.679 235.029 294.666 234.718Z" fill="#407BFF"/>
<path d="M302.585 234.68C302.566 234.387 302.436 234.112 302.222 233.91C302.009 233.709 301.727 233.595 301.433 233.593C301.291 233.591 301.15 233.618 301.019 233.673C300.889 233.729 300.771 233.811 300.673 233.914C300.576 234.018 300.501 234.141 300.454 234.275C300.406 234.409 300.388 234.551 300.398 234.693C300.398 235.081 300.618 238.691 300.644 239.079C300.658 239.374 300.785 239.653 301 239.856C301.215 240.058 301.5 240.17 301.796 240.166C301.938 240.168 302.079 240.141 302.21 240.085C302.341 240.03 302.459 239.948 302.556 239.844C302.653 239.741 302.728 239.618 302.776 239.484C302.823 239.35 302.842 239.208 302.831 239.066C302.779 238.756 302.598 234.99 302.585 234.68Z" fill="#407BFF"/>
<g opacity="0.7">
<path d="M270.896 234.809C270.877 234.516 270.747 234.241 270.534 234.04C270.32 233.838 270.039 233.725 269.745 233.722C269.603 233.72 269.462 233.747 269.331 233.803C269.2 233.858 269.082 233.94 268.985 234.044C268.887 234.147 268.812 234.27 268.765 234.404C268.718 234.538 268.699 234.68 268.71 234.822C268.71 235.21 268.93 238.82 268.956 239.208C268.975 239.503 269.104 239.779 269.317 239.983C269.531 240.186 269.812 240.302 270.107 240.308C270.249 240.309 270.389 240.28 270.519 240.224C270.649 240.168 270.766 240.086 270.863 239.983C270.96 239.879 271.035 239.758 271.083 239.624C271.131 239.491 271.151 239.35 271.142 239.208C271.129 238.898 270.922 235.12 270.896 234.809Z" fill="white"/>
<path d="M278.815 234.783C278.799 234.488 278.671 234.21 278.457 234.006C278.243 233.802 277.96 233.686 277.664 233.683C277.521 233.683 277.38 233.712 277.249 233.769C277.118 233.826 277 233.909 276.903 234.014C276.806 234.118 276.731 234.242 276.684 234.376C276.637 234.511 276.618 234.654 276.629 234.796C276.629 235.184 276.849 238.794 276.874 239.183C276.897 239.477 277.029 239.752 277.245 239.953C277.461 240.154 277.744 240.267 278.039 240.27C278.181 240.27 278.321 240.241 278.451 240.185C278.581 240.129 278.698 240.047 278.795 239.944C278.892 239.841 278.967 239.719 279.015 239.586C279.063 239.453 279.083 239.311 279.074 239.17C279.048 238.859 278.841 235.094 278.815 234.783Z" fill="white"/>
<path d="M286.747 234.744C286.724 234.45 286.592 234.175 286.376 233.974C286.161 233.773 285.878 233.66 285.583 233.658C285.44 233.655 285.299 233.683 285.168 233.738C285.038 233.794 284.92 233.876 284.822 233.979C284.725 234.083 284.65 234.205 284.603 234.339C284.555 234.473 284.537 234.616 284.547 234.757C284.547 235.146 284.78 238.756 284.793 239.144C284.813 239.44 284.944 239.718 285.16 239.922C285.376 240.126 285.661 240.241 285.958 240.244C286.1 240.242 286.24 240.212 286.37 240.154C286.5 240.097 286.617 240.014 286.714 239.91C286.811 239.805 286.886 239.683 286.934 239.549C286.982 239.415 287.002 239.273 286.993 239.131C286.967 238.82 286.76 235.055 286.747 234.744Z" fill="white"/>
<path d="M294.666 234.719C294.647 234.422 294.516 234.144 294.3 233.94C294.084 233.736 293.799 233.621 293.502 233.619C293.361 233.62 293.221 233.65 293.092 233.707C292.963 233.764 292.847 233.846 292.75 233.948C292.653 234.051 292.578 234.172 292.53 234.305C292.481 234.437 292.46 234.578 292.466 234.719C292.466 235.107 292.699 238.73 292.725 239.118C292.745 239.411 292.874 239.686 293.088 239.887C293.301 240.089 293.583 240.202 293.877 240.205C294.019 240.207 294.16 240.18 294.291 240.124C294.422 240.069 294.54 239.987 294.637 239.883C294.735 239.78 294.809 239.657 294.857 239.523C294.904 239.389 294.923 239.247 294.912 239.105C294.899 238.794 294.679 235.029 294.666 234.719Z" fill="white"/>
<path d="M302.585 234.68C302.566 234.387 302.436 234.112 302.222 233.91C302.009 233.709 301.727 233.595 301.433 233.593C301.291 233.591 301.15 233.618 301.019 233.673C300.889 233.729 300.771 233.811 300.673 233.914C300.576 234.018 300.501 234.141 300.454 234.275C300.406 234.409 300.388 234.551 300.398 234.693C300.398 235.081 300.618 238.691 300.644 239.079C300.658 239.374 300.785 239.653 301 239.856C301.215 240.058 301.5 240.17 301.796 240.166C301.938 240.168 302.079 240.141 302.21 240.085C302.341 240.03 302.459 239.948 302.556 239.844C302.653 239.741 302.728 239.618 302.776 239.484C302.823 239.35 302.842 239.208 302.831 239.066C302.779 238.756 302.598 234.99 302.585 234.68Z" fill="white"/>
</g>
<path d="M309.443 278.026L268.283 278.194L265.126 243.685L306.273 243.504L309.443 278.026Z" fill="#407BFF"/>
<path opacity="0.8" d="M309.443 278.026L268.283 278.194L265.126 243.685L306.273 243.504L309.443 278.026Z" fill="white"/>
<path d="M297.564 252.031L277.185 252.109L276.629 246.04L297.008 245.95L297.564 252.031Z" fill="#407BFF"/>
<path opacity="0.6" d="M297.564 252.031L277.185 252.109L276.629 246.04L297.008 245.95L297.564 252.031Z" fill="white"/>
<path d="M274.481 259.976L269.033 260.002L268.529 254.554L273.976 254.529L274.481 259.976Z" fill="white"/>
<path d="M282.192 259.937L276.758 259.963L276.253 254.529L281.701 254.503L282.192 259.937Z" fill="white"/>
<path d="M275.141 267.312L269.706 267.338L269.202 261.891L274.649 261.865L275.141 267.312Z" fill="#407BFF"/>
<path d="M275.814 274.649L270.379 274.675L269.874 269.228L275.322 269.215L275.814 274.649Z" fill="#407BFF"/>
<path d="M282.865 267.287L277.431 267.3L276.926 261.865L282.361 261.839L282.865 267.287Z" fill="#407BFF"/>
<path opacity="0.2" d="M282.865 267.287L277.431 267.3L276.926 261.865L282.361 261.839L282.865 267.287Z" fill="white"/>
<path d="M290.59 267.248L285.143 267.274L284.651 261.826L290.086 261.8L290.59 267.248Z" fill="#407BFF"/>
<path opacity="0.2" d="M290.59 267.248L285.143 267.274L284.651 261.826L290.086 261.8L290.59 267.248Z" fill="white"/>
<path d="M298.302 267.222L292.867 267.235L292.363 261.8L297.81 261.775L298.302 267.222Z" fill="#407BFF"/>
<path opacity="0.2" d="M298.302 267.222L292.867 267.235L292.363 261.8L297.81 261.775L298.302 267.222Z" fill="white"/>
<path d="M306.027 267.183L300.579 267.209L300.087 261.762L305.522 261.749L306.027 267.183Z" fill="#407BFF"/>
<path opacity="0.2" d="M306.027 267.183L300.579 267.209L300.087 261.762L305.522 261.749L306.027 267.183Z" fill="white"/>
<path d="M283.538 274.623L278.091 274.649L277.599 269.202L283.047 269.176L283.538 274.623Z" fill="#407BFF"/>
<path opacity="0.2" d="M283.538 274.623L278.091 274.649L277.599 269.202L283.047 269.176L283.538 274.623Z" fill="white"/>
<path d="M291.25 274.584L285.816 274.61L285.311 269.163L290.758 269.15L291.25 274.584Z" fill="#407BFF"/>
<path opacity="0.2" d="M291.25 274.584L285.816 274.61L285.311 269.163L290.758 269.15L291.25 274.584Z" fill="white"/>
<path d="M298.975 274.559L293.541 274.584L293.036 269.137L298.483 269.111L298.975 274.559Z" fill="#407BFF"/>
<path opacity="0.2" d="M298.975 274.559L293.541 274.584L293.036 269.137L298.483 269.111L298.975 274.559Z" fill="white"/>
<path d="M289.917 259.911L284.47 259.937L283.978 254.49L289.413 254.464L289.917 259.911Z" fill="#407BFF"/>
<path opacity="0.2" d="M289.917 259.911L284.47 259.937L283.978 254.49L289.413 254.464L289.917 259.911Z" fill="white"/>
<path d="M297.629 259.872L292.195 259.898L291.69 254.464L297.137 254.438L297.629 259.872Z" fill="#407BFF"/>
<path opacity="0.2" d="M297.629 259.872L292.195 259.898L291.69 254.464L297.137 254.438L297.629 259.872Z" fill="white"/>
<path d="M305.354 259.847L299.906 259.872L299.415 254.425L304.849 254.399L305.354 259.847Z" fill="#407BFF"/>
<path opacity="0.2" d="M305.354 259.847L299.906 259.872L299.415 254.425L304.849 254.399L305.354 259.847Z" fill="white"/>
<path d="M306.699 274.52L301.252 274.546L300.76 269.111L306.195 269.085L306.699 274.52Z" fill="white"/>
<path d="M211.402 289.516V297.409H165.027L160.02 462.036H155.763V289.516H211.402Z" fill="#263238"/>
<path opacity="0.7" d="M211.402 289.516V297.409H165.027L160.02 462.036H155.763V289.516H211.402Z" fill="white"/>
<path d="M155.763 462.036H151.739L150.445 289.516H155.763V462.036Z" fill="#263238"/>
<g opacity="0.3">
<path d="M155.763 462.036H151.739L150.445 289.516H155.763V462.036Z" fill="white"/>
</g>
<path d="M224.6 289.516V462.036H220.382L216.629 297.409H211.661V289.516H224.6Z" fill="#263238"/>
<path d="M220.86 462.036H216.836L211.661 289.516H216.979L220.86 462.036Z" fill="#263238"/>
<g opacity="0.3">
<path d="M220.86 462.036H216.836L211.661 289.516H216.979L220.86 462.036Z" fill="white"/>
</g>
<path opacity="0.7" d="M224.6 289.516V462.036H220.382L216.629 297.409H211.661V289.516H224.6Z" fill="white"/>
<path d="M477.653 462.036H473.642L468.466 289.516H473.771L477.653 462.036Z" fill="#263238"/>
<path opacity="0.3" d="M468.466 289.516H473.771L477.653 462.036H473.642" fill="white"/>
<path d="M408.713 289.516H155.788V302.598H408.713V289.516Z" fill="#263238"/>
<path opacity="0.5" d="M408.713 289.516H155.788V302.598H408.713V289.516Z" fill="white"/>
<path d="M412.828 289.516V462.036H417.072L422.079 297.396H473.435L477.188 462.036H481.406V289.516H412.828Z" fill="#263238"/>
<path opacity="0.7" d="M412.828 289.516V462.036H417.072L422.079 297.396H473.435L477.188 462.036H481.406V289.516H412.828Z" fill="white"/>
<path d="M412.827 462.036H408.803L407.509 289.516H412.827V462.036Z" fill="#263238"/>
<path opacity="0.3" d="M412.827 462.036H408.803L407.509 289.516H412.827V462.036Z" fill="white"/>
<path d="M409.502 279.592H143.406V289.516H409.502V279.592Z" fill="#263238"/>
<path opacity="0.6" d="M409.502 279.592H143.406V289.516H409.502V279.592Z" fill="white"/>
<path d="M488.445 279.592H403.33V289.516H488.445V279.592Z" fill="#263238"/>
<path opacity="0.7" d="M488.445 279.592H403.33V289.516H488.445V279.592Z" fill="white"/>
<path d="M252.51 258.527H97.1609C118.912 179.856 75.41 101.224 97.1609 22.566H252.51C230.759 101.224 274.313 179.856 252.51 258.527Z" fill="#407BFF"/>
<path opacity="0.7" d="M252.51 258.527H97.1609C118.912 179.856 75.41 101.224 97.1609 22.566H252.51C230.759 101.224 274.313 179.856 252.51 258.527Z" fill="white"/>
<path d="M234.447 71.9683H164.251C164.069 71.9683 163.895 71.896 163.766 71.7674C163.637 71.6388 163.565 71.4643 163.565 71.2825C163.565 71.1006 163.637 70.9262 163.766 70.7975C163.895 70.6689 164.069 70.5967 164.251 70.5967H234.447C234.628 70.5967 234.803 70.6689 234.931 70.7975C235.06 70.9262 235.132 71.1006 235.132 71.2825C235.132 71.4643 235.06 71.6388 234.931 71.7674C234.803 71.896 234.628 71.9683 234.447 71.9683Z" fill="#263238"/>
<path d="M234.783 85.9168H164.588C164.404 85.9138 164.229 85.8414 164.097 85.7141C163.965 85.5868 163.886 85.4142 163.876 85.231C163.871 85.1429 163.883 85.0546 163.914 84.9715C163.944 84.8885 163.991 84.8125 164.051 84.7483C164.112 84.684 164.185 84.6329 164.266 84.5979C164.347 84.563 164.435 84.5451 164.523 84.5453H234.718C234.903 84.548 235.08 84.6201 235.214 84.747C235.348 84.874 235.43 85.0468 235.443 85.231C235.447 85.3199 235.432 85.4085 235.4 85.4915C235.369 85.5746 235.321 85.6504 235.259 85.7145C235.198 85.7785 235.124 85.8295 235.042 85.8642C234.96 85.899 234.872 85.9169 234.783 85.9168Z" fill="#263238"/>
<path d="M235.689 99.9301H103.708C103.522 99.9251 103.343 99.8531 103.205 99.7271C103.067 99.6012 102.98 99.4297 102.958 99.2443C102.949 99.1575 102.958 99.0697 102.985 98.9867C103.012 98.9037 103.057 98.8274 103.115 98.7627C103.174 98.698 103.245 98.6463 103.325 98.6111C103.405 98.576 103.492 98.558 103.579 98.5585H235.56C235.746 98.561 235.924 98.6326 236.06 98.7593C236.197 98.886 236.281 99.0589 236.297 99.2443C236.306 99.33 236.297 99.4167 236.271 99.4988C236.244 99.5809 236.201 99.6566 236.144 99.7211C236.087 99.7857 236.017 99.8376 235.939 99.8735C235.86 99.9095 235.775 99.9287 235.689 99.9301Z" fill="#263238"/>
<path d="M246.662 219.541H114.642C114.553 219.543 114.464 219.526 114.381 219.492C114.298 219.458 114.224 219.407 114.162 219.342C114.1 219.278 114.052 219.201 114.021 219.118C113.99 219.034 113.977 218.944 113.982 218.855C113.995 218.672 114.077 218.501 114.212 218.376C114.346 218.251 114.523 218.182 114.707 218.182H246.687C246.775 218.18 246.862 218.196 246.943 218.23C247.024 218.263 247.098 218.313 247.159 218.376C247.219 218.44 247.266 218.515 247.297 218.597C247.327 218.68 247.34 218.767 247.334 218.855C247.328 219.033 247.256 219.202 247.131 219.328C247.007 219.455 246.839 219.531 246.662 219.541Z" fill="#263238"/>
<path d="M156.565 243.517H112.002C111.917 243.52 111.832 243.502 111.755 243.467C111.677 243.431 111.609 243.378 111.555 243.312C111.501 243.245 111.463 243.167 111.444 243.084C111.425 243.001 111.426 242.914 111.446 242.831C111.483 242.644 111.583 242.474 111.728 242.35C111.874 242.225 112.057 242.154 112.248 242.146H156.772C156.857 242.143 156.942 242.161 157.02 242.196C157.097 242.232 157.166 242.285 157.22 242.351C157.273 242.418 157.311 242.495 157.33 242.579C157.349 242.662 157.348 242.748 157.329 242.831C157.293 243.013 157.199 243.178 157.061 243.302C156.924 243.425 156.749 243.501 156.565 243.517Z" fill="#263238"/>
<path d="M244.475 243.517H199.951C199.865 243.52 199.781 243.502 199.703 243.467C199.625 243.431 199.557 243.378 199.503 243.312C199.45 243.245 199.412 243.167 199.393 243.084C199.374 243.001 199.374 242.914 199.394 242.831C199.43 242.643 199.529 242.472 199.674 242.347C199.82 242.222 200.005 242.151 200.197 242.146H244.721C244.806 242.143 244.891 242.161 244.968 242.196C245.046 242.232 245.114 242.285 245.168 242.351C245.222 242.418 245.26 242.495 245.279 242.579C245.297 242.662 245.297 242.748 245.277 242.831C245.239 243.019 245.14 243.189 244.995 243.313C244.849 243.437 244.666 243.509 244.475 243.517Z" fill="#263238"/>
<path d="M138.722 54.5002C138.722 60.3617 134.309 64.0106 127.283 64.0106H121.978V71.2695H115.884V44.9381H127.283C134.309 44.9381 138.722 48.587 138.722 54.5002ZM132.55 54.5002C132.55 51.6018 130.661 49.9068 126.947 49.9068H121.978V59.0419H126.947C130.686 59.0419 132.55 57.3598 132.55 54.5002Z" fill="#407BFF"/>
<path d="M142.901 86.3179L136.548 77.1827L130.298 86.3179H123.298L133.042 72.9257L123.79 59.9864H130.687L136.742 68.5263L142.694 59.9864H149.28L140.094 72.7057L149.914 86.3179H142.901Z" fill="#407BFF"/>
<path d="M112.028 108.69C112.028 110.139 110.941 111.045 109.194 111.045H107.9V112.843H106.374V106.374H109.194C110.941 106.257 112.028 107.163 112.028 108.69ZM110.501 108.69C110.501 107.978 110.035 107.551 109.117 107.551H107.823V109.816H109.117C109.984 109.751 110.501 109.337 110.501 108.69Z" fill="#263238"/>
<path d="M116.104 107.694V108.987H115.768C115.589 108.987 115.412 109.023 115.247 109.095C115.083 109.166 114.936 109.271 114.814 109.402C114.692 109.534 114.599 109.689 114.541 109.858C114.482 110.027 114.459 110.207 114.474 110.385V112.753H112.986V107.745H114.37V108.405C114.581 108.156 114.848 107.961 115.15 107.837C115.452 107.714 115.779 107.664 116.104 107.694Z" fill="#263238"/>
<path d="M121.784 110.683H118.006C118.075 110.998 118.259 111.277 118.522 111.463C118.786 111.65 119.109 111.732 119.43 111.692C119.668 111.706 119.906 111.669 120.129 111.584C120.352 111.499 120.555 111.369 120.723 111.2L121.5 112.041C121.108 112.419 120.619 112.68 120.087 112.795C119.555 112.909 119.001 112.871 118.489 112.687C117.977 112.502 117.527 112.178 117.19 111.75C116.853 111.323 116.643 110.81 116.583 110.269C116.583 109.922 116.652 109.579 116.787 109.26C116.922 108.941 117.12 108.652 117.368 108.411C117.617 108.169 117.911 107.98 118.234 107.855C118.557 107.73 118.902 107.67 119.248 107.681C119.592 107.666 119.935 107.723 120.256 107.848C120.576 107.973 120.868 108.163 121.111 108.406C121.354 108.649 121.544 108.941 121.669 109.261C121.794 109.582 121.851 109.925 121.836 110.269C121.823 110.398 121.797 110.566 121.784 110.683ZM117.98 109.829H120.452C120.37 109.565 120.206 109.334 119.983 109.171C119.761 109.007 119.492 108.918 119.216 108.918C118.94 108.918 118.671 109.007 118.449 109.171C118.226 109.334 118.062 109.565 117.98 109.829Z" fill="#263238"/>
<path d="M122.289 112.313L122.781 111.265C123.302 111.586 123.902 111.756 124.514 111.757C125.187 111.757 125.446 111.575 125.446 111.291C125.446 110.476 122.418 111.291 122.418 109.311C122.418 108.366 123.272 107.694 124.734 107.694C125.403 107.68 126.066 107.831 126.662 108.134L126.171 109.169C125.734 108.917 125.238 108.787 124.734 108.793C124.087 108.793 123.803 109 123.803 109.259C123.803 110.113 126.831 109.259 126.831 111.265C126.831 112.184 125.964 112.856 124.463 112.856C123.703 112.871 122.953 112.683 122.289 112.313Z" fill="#263238"/>
<path d="M127.348 110.268C127.347 109.912 127.42 109.559 127.562 109.231C127.704 108.904 127.912 108.609 128.173 108.366C128.435 108.123 128.743 107.937 129.08 107.819C129.417 107.701 129.774 107.654 130.13 107.681C130.592 107.643 131.055 107.747 131.457 107.978C131.859 108.209 132.181 108.556 132.382 108.975L131.256 109.57C131.147 109.365 130.985 109.193 130.787 109.073C130.589 108.952 130.362 108.887 130.13 108.884C129.763 108.884 129.411 109.03 129.151 109.289C128.892 109.549 128.746 109.901 128.746 110.268C128.746 110.636 128.892 110.988 129.151 111.247C129.411 111.507 129.763 111.653 130.13 111.653C130.364 111.659 130.594 111.597 130.794 111.476C130.994 111.354 131.154 111.178 131.256 110.967L132.382 111.588C132.177 112.003 131.854 112.348 131.453 112.578C131.052 112.809 130.592 112.914 130.13 112.882C129.772 112.909 129.413 112.861 129.074 112.742C128.735 112.622 128.426 112.434 128.164 112.188C127.902 111.942 127.695 111.644 127.554 111.314C127.414 110.983 127.344 110.627 127.348 110.268Z" fill="#263238"/>
<path d="M136.315 107.694V108.988H135.992C135.813 108.987 135.636 109.024 135.471 109.095C135.307 109.166 135.16 109.271 135.038 109.402C134.917 109.534 134.824 109.689 134.765 109.858C134.706 110.027 134.684 110.207 134.698 110.385V112.753H133.275V107.745H134.568V108.405C134.78 108.153 135.049 107.957 135.354 107.833C135.658 107.709 135.988 107.661 136.315 107.694Z" fill="#263238"/>
<path d="M137.001 106.257C137.004 106.144 137.03 106.032 137.078 105.929C137.126 105.827 137.195 105.735 137.279 105.66C137.364 105.584 137.464 105.527 137.572 105.492C137.68 105.457 137.794 105.444 137.906 105.455C138.018 105.443 138.13 105.453 138.237 105.486C138.344 105.519 138.443 105.573 138.528 105.646C138.613 105.719 138.682 105.809 138.731 105.909C138.78 106.01 138.808 106.12 138.812 106.231C138.812 106.472 138.717 106.702 138.547 106.872C138.377 107.042 138.147 107.137 137.906 107.137C137.666 107.137 137.436 107.042 137.266 106.872C137.096 106.702 137.001 106.472 137.001 106.231V106.257ZM137.182 107.771H138.631V112.779H137.156L137.182 107.771Z" fill="#263238"/>
<path d="M145.437 110.269C145.457 110.606 145.407 110.944 145.29 111.26C145.172 111.577 144.99 111.867 144.756 112.11C144.521 112.353 144.239 112.545 143.926 112.673C143.614 112.802 143.278 112.864 142.94 112.856C142.659 112.868 142.379 112.819 142.118 112.714C141.857 112.61 141.621 112.451 141.426 112.248V114.577H139.977V107.771H141.362V108.341C141.56 108.122 141.804 107.95 142.078 107.838C142.351 107.726 142.645 107.677 142.94 107.694C143.277 107.686 143.611 107.748 143.923 107.876C144.235 108.003 144.516 108.194 144.751 108.436C144.985 108.678 145.167 108.965 145.285 109.281C145.404 109.596 145.455 109.932 145.437 110.269ZM143.962 110.269C143.945 110.017 143.854 109.777 143.702 109.576C143.549 109.375 143.341 109.224 143.104 109.14C142.867 109.055 142.61 109.042 142.365 109.102C142.12 109.162 141.898 109.292 141.726 109.476C141.554 109.66 141.44 109.89 141.397 110.138C141.354 110.386 141.384 110.642 141.484 110.873C141.584 111.104 141.749 111.301 141.96 111.44C142.17 111.578 142.417 111.652 142.668 111.653C142.846 111.653 143.022 111.617 143.185 111.547C143.349 111.476 143.496 111.373 143.617 111.243C143.738 111.113 143.832 110.959 143.891 110.792C143.951 110.624 143.975 110.446 143.962 110.269Z" fill="#263238"/>
<path d="M149.63 112.572C149.275 112.798 148.86 112.911 148.439 112.895C148.192 112.93 147.94 112.908 147.703 112.831C147.465 112.754 147.249 112.624 147.069 112.45C146.89 112.277 146.752 112.065 146.666 111.83C146.581 111.596 146.55 111.345 146.576 111.097V109.039H145.8V107.914H146.576V106.697H148.025V107.914H149.319V109.039H148.025V111.071C148.013 111.157 148.021 111.245 148.047 111.327C148.074 111.41 148.119 111.486 148.178 111.549C148.238 111.612 148.311 111.662 148.392 111.693C148.473 111.724 148.56 111.737 148.646 111.731C148.855 111.734 149.059 111.671 149.229 111.55L149.63 112.572Z" fill="#263238"/>
<path d="M150.264 106.257C150.267 106.144 150.293 106.032 150.341 105.93C150.389 105.827 150.457 105.735 150.542 105.66C150.627 105.584 150.727 105.527 150.835 105.492C150.942 105.457 151.056 105.444 151.169 105.455C151.28 105.444 151.391 105.456 151.496 105.49C151.602 105.524 151.699 105.579 151.783 105.651C151.866 105.724 151.934 105.813 151.982 105.913C152.03 106.012 152.057 106.121 152.062 106.231C152.036 106.451 151.93 106.654 151.764 106.801C151.598 106.948 151.384 107.029 151.163 107.029C150.941 107.029 150.727 106.948 150.562 106.801C150.396 106.654 150.29 106.451 150.264 106.231V106.257ZM150.432 107.771H151.894V112.779H150.432V107.771Z" fill="#263238"/>
<path d="M152.864 110.269C152.831 109.717 152.963 109.169 153.245 108.694C153.527 108.219 153.944 107.84 154.444 107.606C154.944 107.371 155.502 107.292 156.048 107.378C156.593 107.465 157.099 107.713 157.502 108.091C157.904 108.469 158.184 108.959 158.305 109.498C158.425 110.036 158.382 110.599 158.179 111.112C157.976 111.626 157.624 112.067 157.168 112.378C156.712 112.689 156.173 112.855 155.62 112.856C155.267 112.879 154.912 112.83 154.578 112.71C154.245 112.59 153.939 112.403 153.681 112.161C153.422 111.918 153.217 111.625 153.076 111.299C152.936 110.974 152.864 110.623 152.864 110.269ZM156.889 110.269C156.871 110.017 156.78 109.777 156.628 109.576C156.475 109.375 156.268 109.224 156.03 109.14C155.793 109.055 155.536 109.042 155.291 109.102C155.046 109.162 154.824 109.292 154.652 109.476C154.48 109.66 154.366 109.89 154.323 110.138C154.28 110.386 154.31 110.642 154.41 110.873C154.51 111.104 154.676 111.301 154.886 111.44C155.096 111.578 155.343 111.652 155.595 111.653C155.772 111.653 155.948 111.617 156.112 111.547C156.275 111.476 156.422 111.373 156.543 111.243C156.665 111.113 156.758 110.959 156.817 110.792C156.877 110.624 156.901 110.446 156.889 110.269Z" fill="#263238"/>
<path d="M164.445 109.906V112.779H163.035V110.191C163.035 109.389 162.659 109.013 162.012 109.013C161.365 109.013 160.822 109.44 160.822 110.307V112.792H159.36V107.784H160.757V108.366C160.972 108.146 161.23 107.974 161.515 107.86C161.8 107.746 162.107 107.694 162.414 107.707C162.699 107.693 162.983 107.742 163.247 107.85C163.511 107.958 163.749 108.123 163.942 108.333C164.136 108.542 164.281 108.792 164.368 109.064C164.455 109.336 164.481 109.623 164.445 109.906Z" fill="#263238"/>
<path d="M165.403 108.599C165.397 108.481 165.417 108.362 165.459 108.251C165.502 108.14 165.568 108.04 165.652 107.956C165.736 107.872 165.837 107.806 165.947 107.763C166.058 107.72 166.177 107.701 166.296 107.706C166.415 107.701 166.534 107.72 166.645 107.763C166.757 107.806 166.858 107.871 166.943 107.955C167.028 108.039 167.095 108.139 167.14 108.25C167.184 108.361 167.205 108.48 167.201 108.599C167.205 108.719 167.184 108.839 167.14 108.95C167.095 109.062 167.029 109.163 166.944 109.248C166.859 109.333 166.758 109.399 166.646 109.443C166.535 109.488 166.416 109.509 166.296 109.505C166.177 109.507 166.059 109.485 165.949 109.44C165.839 109.394 165.739 109.328 165.656 109.243C165.572 109.158 165.507 109.058 165.463 108.947C165.42 108.836 165.399 108.718 165.403 108.599ZM165.403 111.938C165.397 111.819 165.417 111.7 165.459 111.59C165.502 111.479 165.568 111.378 165.652 111.294C165.736 111.21 165.837 111.144 165.947 111.102C166.058 111.059 166.177 111.039 166.296 111.045C166.415 111.039 166.534 111.059 166.645 111.101C166.757 111.144 166.858 111.21 166.943 111.293C167.028 111.377 167.095 111.478 167.14 111.589C167.184 111.699 167.205 111.818 167.201 111.938C167.205 112.058 167.184 112.178 167.14 112.29C167.096 112.402 167.029 112.505 166.945 112.59C166.86 112.676 166.759 112.744 166.647 112.79C166.536 112.835 166.416 112.858 166.296 112.856C166.176 112.858 166.057 112.836 165.946 112.79C165.835 112.744 165.734 112.676 165.651 112.59C165.567 112.504 165.502 112.401 165.459 112.289C165.417 112.177 165.397 112.057 165.403 111.938Z" fill="#263238"/>
<path d="M285.301 107.347L262.294 100.022C258.133 98.6979 253.687 100.997 252.362 105.157L227.244 184.054C225.919 188.214 228.218 192.661 232.379 193.986L255.386 201.31C259.546 202.635 263.993 200.336 265.317 196.175L290.436 117.279C291.76 113.118 289.461 108.672 285.301 107.347Z" fill="black"/>
<path opacity="0.8" d="M290.797 115.16C290.783 115.894 290.661 116.622 290.435 117.32L265.32 196.25C265.234 196.518 265.135 196.782 265.022 197.039C264.238 198.825 262.821 200.258 261.043 201.061C259.266 201.864 257.254 201.98 255.395 201.387L232.376 194.063C230.414 193.434 228.775 192.064 227.808 190.244C226.841 188.424 226.623 186.298 227.201 184.32L241.693 138.813L252.316 105.158C252.627 104.165 253.13 103.244 253.797 102.447C254.465 101.65 255.283 100.992 256.205 100.511C257.126 100.03 258.134 99.7361 259.17 99.6453C260.205 99.5545 261.249 99.6688 262.24 99.9818L285.311 107.396C285.815 107.557 286.3 107.769 286.76 108.03C288.023 108.733 289.068 109.77 289.78 111.028C290.492 112.285 290.844 113.715 290.797 115.16Z" fill="white"/>
<g opacity="0.6">
<path opacity="0.5" d="M235.132 159.295L245.574 126.52L275.141 104.109L286.786 107.991C288.051 108.695 289.097 109.734 289.809 110.994C290.522 112.255 290.872 113.687 290.823 115.134L235.132 159.295Z" fill="white"/>
</g>
<path opacity="0.5" d="M249.728 113.348L252.316 105.158C252.627 104.165 253.13 103.244 253.798 102.447C254.465 101.65 255.283 100.992 256.205 100.511C257.127 100.03 258.134 99.7361 259.17 99.6453C260.206 99.5545 261.249 99.6688 262.241 99.9818L265.695 101.082L249.728 113.348Z" fill="white"/>
<path d="M265.605 113.025C265.423 113.595 265.076 114.099 264.608 114.473C264.14 114.846 263.572 115.072 262.975 115.123C262.378 115.173 261.78 115.046 261.256 114.756C260.732 114.467 260.305 114.028 260.03 113.496C259.755 112.964 259.644 112.363 259.711 111.768C259.778 111.173 260.019 110.611 260.406 110.153C260.792 109.695 261.305 109.363 261.88 109.197C262.456 109.031 263.067 109.039 263.638 109.22C264.018 109.34 264.37 109.533 264.675 109.789C264.98 110.045 265.231 110.359 265.414 110.713C265.597 111.066 265.708 111.453 265.741 111.85C265.773 112.246 265.727 112.646 265.605 113.025Z" fill="#407BFF"/>
<path d="M259.834 131.114C259.652 131.682 259.306 132.183 258.839 132.554C258.373 132.925 257.806 133.149 257.212 133.199C256.618 133.248 256.023 133.12 255.501 132.832C254.98 132.543 254.556 132.105 254.282 131.575C254.009 131.046 253.899 130.447 253.967 129.854C254.034 129.262 254.275 128.703 254.66 128.247C255.046 127.792 255.557 127.461 256.13 127.297C256.703 127.132 257.312 127.141 257.88 127.323C258.257 127.443 258.607 127.637 258.909 127.893C259.212 128.148 259.461 128.461 259.642 128.813C259.824 129.165 259.934 129.55 259.967 129.944C260 130.339 259.954 130.737 259.834 131.114Z" fill="#407BFF"/>
<path d="M254.076 149.216C253.896 149.788 253.551 150.293 253.083 150.669C252.616 151.044 252.048 151.273 251.45 151.325C250.853 151.377 250.254 151.251 249.729 150.962C249.203 150.673 248.775 150.235 248.499 149.703C248.223 149.171 248.111 148.569 248.178 147.973C248.244 147.377 248.486 146.814 248.873 146.356C249.259 145.898 249.773 145.565 250.349 145.399C250.925 145.233 251.538 145.242 252.109 145.424C252.487 145.544 252.839 145.736 253.142 145.992C253.446 146.247 253.697 146.56 253.879 146.912C254.062 147.264 254.173 147.649 254.207 148.044C254.241 148.44 254.196 148.838 254.076 149.216Z" fill="#407BFF"/>
<path d="M248.318 167.318C248.136 167.888 247.789 168.392 247.321 168.766C246.853 169.139 246.285 169.365 245.688 169.416C245.091 169.466 244.493 169.339 243.969 169.049C243.445 168.76 243.018 168.321 242.743 167.789C242.468 167.257 242.357 166.656 242.424 166.061C242.491 165.466 242.733 164.904 243.119 164.446C243.505 163.989 244.018 163.656 244.593 163.49C245.169 163.324 245.78 163.332 246.351 163.514C246.731 163.633 247.084 163.826 247.388 164.082C247.693 164.338 247.944 164.652 248.127 165.006C248.31 165.36 248.421 165.746 248.454 166.143C248.486 166.54 248.44 166.939 248.318 167.318Z" fill="#407BFF"/>
<path d="M242.56 185.407C242.38 185.979 242.035 186.485 241.568 186.86C241.1 187.236 240.532 187.464 239.935 187.516C239.337 187.568 238.738 187.442 238.213 187.153C237.687 186.864 237.26 186.426 236.984 185.894C236.708 185.362 236.596 184.76 236.662 184.164C236.729 183.568 236.97 183.005 237.357 182.547C237.744 182.089 238.258 181.756 238.834 181.59C239.41 181.424 240.022 181.433 240.593 181.616C241.353 181.862 241.986 182.398 242.354 183.108C242.722 183.817 242.796 184.643 242.56 185.407Z" fill="#407BFF"/>
<path d="M280.148 117.657C279.869 118.375 279.327 118.96 278.631 119.292C277.936 119.624 277.14 119.679 276.406 119.445C275.672 119.21 275.054 118.705 274.68 118.031C274.305 117.358 274.202 116.567 274.39 115.819C274.491 115.419 274.674 115.043 274.925 114.715C275.177 114.387 275.494 114.115 275.855 113.914C276.216 113.713 276.615 113.588 277.026 113.547C277.437 113.506 277.853 113.55 278.247 113.676C278.64 113.801 279.004 114.006 279.316 114.278C279.627 114.549 279.88 114.882 280.058 115.255C280.236 115.628 280.336 116.034 280.352 116.447C280.367 116.86 280.298 117.272 280.148 117.657Z" fill="#407BFF"/>
<path d="M274.39 135.746C274.209 136.314 273.864 136.815 273.398 137.187C272.933 137.558 272.367 137.784 271.774 137.834C271.18 137.885 270.585 137.758 270.063 137.471C269.541 137.183 269.116 136.748 268.842 136.219C268.567 135.69 268.456 135.091 268.521 134.499C268.587 133.907 268.826 133.347 269.209 132.891C269.593 132.435 270.102 132.103 270.674 131.936C271.247 131.769 271.855 131.776 272.423 131.955C273.186 132.198 273.821 132.734 274.189 133.444C274.558 134.155 274.63 134.982 274.39 135.746Z" fill="#407BFF"/>
<path d="M268.632 153.848C268.453 154.42 268.107 154.926 267.64 155.301C267.173 155.677 266.604 155.905 266.007 155.957C265.41 156.009 264.811 155.883 264.285 155.594C263.76 155.306 263.332 154.867 263.056 154.335C262.78 153.803 262.668 153.201 262.735 152.605C262.801 152.009 263.043 151.447 263.43 150.988C263.816 150.53 264.33 150.197 264.906 150.031C265.482 149.865 266.095 149.874 266.666 150.057C267.426 150.303 268.059 150.84 268.427 151.549C268.795 152.259 268.869 153.084 268.632 153.848Z" fill="#407BFF"/>
<path d="M262.861 171.95C262.582 172.668 262.04 173.253 261.344 173.585C260.649 173.918 259.853 173.972 259.119 173.738C258.385 173.504 257.767 172.998 257.393 172.325C257.018 171.651 256.915 170.86 257.103 170.113C257.205 169.712 257.387 169.336 257.639 169.008C257.89 168.681 258.207 168.408 258.568 168.207C258.929 168.006 259.328 167.881 259.739 167.84C260.151 167.8 260.566 167.843 260.96 167.969C261.354 168.095 261.717 168.3 262.029 168.571C262.341 168.843 262.593 169.175 262.771 169.548C262.95 169.921 263.049 170.327 263.065 170.74C263.08 171.153 263.011 171.565 262.861 171.95Z" fill="#407BFF"/>
<path d="M257.103 190.039C256.922 190.607 256.577 191.108 256.112 191.48C255.646 191.852 255.081 192.077 254.487 192.128C253.893 192.178 253.298 192.052 252.776 191.764C252.254 191.477 251.829 191.041 251.555 190.512C251.28 189.983 251.169 189.385 251.234 188.793C251.3 188.2 251.539 187.641 251.922 187.185C252.306 186.728 252.816 186.396 253.388 186.229C253.96 186.063 254.568 186.069 255.137 186.248C255.899 186.492 256.534 187.027 256.902 187.738C257.271 188.448 257.343 189.276 257.103 190.039Z" fill="#407BFF"/>
<g opacity="0.4">
<path d="M265.605 113.025C265.423 113.595 265.076 114.099 264.608 114.473C264.14 114.846 263.572 115.072 262.975 115.123C262.378 115.173 261.78 115.046 261.256 114.756C260.732 114.467 260.305 114.028 260.03 113.496C259.755 112.964 259.644 112.363 259.711 111.768C259.778 111.173 260.02 110.611 260.406 110.153C260.792 109.695 261.305 109.363 261.88 109.197C262.456 109.031 263.067 109.039 263.638 109.22C264.018 109.34 264.371 109.533 264.675 109.789C264.98 110.045 265.231 110.359 265.414 110.713C265.597 111.066 265.708 111.453 265.741 111.85C265.773 112.246 265.727 112.646 265.605 113.025Z" fill="white"/>
<path d="M259.834 131.114C259.652 131.682 259.306 132.183 258.839 132.554C258.373 132.925 257.807 133.149 257.213 133.199C256.618 133.248 256.023 133.12 255.501 132.832C254.98 132.543 254.556 132.105 254.283 131.575C254.01 131.046 253.9 130.447 253.967 129.854C254.034 129.262 254.276 128.703 254.661 128.247C255.046 127.792 255.557 127.461 256.13 127.297C256.703 127.132 257.312 127.141 257.88 127.323C258.257 127.443 258.607 127.637 258.91 127.893C259.212 128.148 259.461 128.461 259.643 128.813C259.824 129.165 259.934 129.55 259.967 129.944C260 130.339 259.955 130.737 259.834 131.114Z" fill="white"/>
<path d="M254.076 149.216C253.896 149.788 253.551 150.293 253.084 150.669C252.616 151.044 252.048 151.273 251.451 151.325C250.854 151.377 250.254 151.251 249.729 150.962C249.204 150.673 248.776 150.235 248.5 149.703C248.224 149.171 248.112 148.569 248.178 147.973C248.245 147.377 248.487 146.814 248.873 146.356C249.26 145.898 249.774 145.565 250.35 145.399C250.926 145.233 251.538 145.242 252.109 145.424C252.488 145.544 252.839 145.736 253.143 145.992C253.447 146.247 253.697 146.56 253.88 146.912C254.062 147.264 254.174 147.649 254.208 148.044C254.241 148.44 254.197 148.838 254.076 149.216Z" fill="white"/>
<path d="M248.318 167.318C248.136 167.888 247.789 168.392 247.321 168.766C246.853 169.139 246.285 169.365 245.688 169.416C245.091 169.466 244.493 169.339 243.969 169.049C243.445 168.76 243.018 168.321 242.743 167.789C242.468 167.257 242.357 166.656 242.424 166.061C242.491 165.466 242.733 164.904 243.119 164.446C243.505 163.989 244.018 163.656 244.594 163.49C245.169 163.324 245.781 163.332 246.351 163.514C246.731 163.633 247.084 163.826 247.389 164.082C247.693 164.338 247.944 164.652 248.127 165.006C248.31 165.36 248.421 165.746 248.454 166.143C248.487 166.54 248.44 166.939 248.318 167.318Z" fill="white"/>
<path d="M242.56 185.407C242.38 185.979 242.035 186.485 241.568 186.86C241.1 187.236 240.532 187.464 239.935 187.516C239.337 187.568 238.738 187.442 238.213 187.153C237.687 186.864 237.26 186.426 236.984 185.894C236.708 185.362 236.596 184.76 236.662 184.164C236.729 183.568 236.97 183.005 237.357 182.547C237.744 182.089 238.258 181.756 238.834 181.59C239.41 181.424 240.022 181.433 240.593 181.616C241.353 181.862 241.986 182.398 242.354 183.108C242.722 183.817 242.796 184.643 242.56 185.407Z" fill="white"/>
</g>
<g opacity="0.4">
<path d="M280.148 117.657C279.869 118.375 279.327 118.96 278.631 119.292C277.936 119.624 277.14 119.679 276.406 119.445C275.672 119.21 275.054 118.705 274.68 118.031C274.305 117.358 274.202 116.567 274.39 115.819C274.491 115.419 274.674 115.043 274.925 114.715C275.177 114.387 275.494 114.115 275.855 113.914C276.216 113.713 276.615 113.588 277.026 113.547C277.437 113.506 277.853 113.55 278.247 113.676C278.64 113.801 279.004 114.006 279.316 114.278C279.627 114.549 279.88 114.882 280.058 115.255C280.236 115.628 280.336 116.034 280.352 116.447C280.367 116.86 280.298 117.272 280.148 117.657Z" fill="white"/>
<path d="M274.39 135.746C274.209 136.314 273.864 136.815 273.399 137.187C272.933 137.558 272.368 137.784 271.774 137.834C271.18 137.885 270.585 137.758 270.063 137.471C269.541 137.183 269.116 136.748 268.842 136.219C268.567 135.69 268.456 135.091 268.521 134.499C268.587 133.907 268.826 133.347 269.209 132.891C269.593 132.435 270.103 132.103 270.675 131.936C271.247 131.769 271.855 131.776 272.424 131.955C273.186 132.198 273.821 132.734 274.189 133.444C274.558 134.155 274.63 134.982 274.39 135.746Z" fill="white"/>
<path d="M268.632 153.848C268.453 154.42 268.107 154.926 267.64 155.301C267.173 155.677 266.604 155.905 266.007 155.957C265.41 156.009 264.811 155.883 264.285 155.594C263.76 155.306 263.332 154.867 263.056 154.335C262.78 153.803 262.668 153.201 262.735 152.605C262.801 152.009 263.043 151.447 263.43 150.988C263.816 150.53 264.33 150.197 264.906 150.031C265.482 149.865 266.095 149.874 266.666 150.057C267.426 150.303 268.059 150.84 268.427 151.549C268.795 152.259 268.869 153.084 268.632 153.848Z" fill="white"/>
<path d="M262.862 171.95C262.582 172.668 262.04 173.253 261.344 173.585C260.649 173.918 259.853 173.972 259.119 173.738C258.385 173.504 257.768 172.998 257.393 172.325C257.019 171.651 256.915 170.86 257.104 170.113C257.205 169.712 257.387 169.336 257.639 169.008C257.891 168.681 258.207 168.408 258.568 168.207C258.929 168.006 259.328 167.881 259.739 167.84C260.151 167.799 260.566 167.843 260.96 167.969C261.354 168.094 261.718 168.299 262.029 168.571C262.341 168.843 262.593 169.175 262.772 169.548C262.95 169.921 263.05 170.327 263.065 170.74C263.081 171.153 263.011 171.565 262.862 171.95Z" fill="white"/>
<path d="M257.104 190.039C256.923 190.607 256.578 191.108 256.112 191.48C255.646 191.852 255.081 192.077 254.487 192.128C253.893 192.178 253.298 192.052 252.776 191.764C252.254 191.477 251.829 191.041 251.555 190.512C251.281 189.983 251.169 189.385 251.235 188.793C251.3 188.2 251.539 187.641 251.923 187.185C252.306 186.728 252.816 186.396 253.388 186.229C253.96 186.063 254.569 186.069 255.137 186.248C255.899 186.492 256.534 187.027 256.903 187.738C257.271 188.448 257.343 189.276 257.104 190.039Z" fill="white"/>
</g>
<path opacity="0.7" d="M241.758 197.971L202.008 206.175C200.179 206.549 198.276 206.184 196.717 205.158C195.157 204.132 194.068 202.529 193.688 200.701L182.25 145.243C181.505 141.67 181.943 137.951 183.498 134.648C185.052 131.345 187.639 128.638 190.867 126.934C192.271 126.19 193.775 125.649 195.331 125.33L215.866 121.099C218.033 120.649 220.267 120.63 222.441 121.045C224.615 121.46 226.685 122.3 228.534 123.516C230.382 124.733 231.973 126.302 233.214 128.134C234.455 129.966 235.323 132.025 235.767 134.193L247.218 189.651C247.407 190.556 247.416 191.489 247.244 192.398C247.072 193.306 246.722 194.172 246.215 194.944C245.707 195.717 245.053 196.383 244.288 196.902C243.523 197.421 242.663 197.785 241.758 197.971Z" fill="white"/>
<path d="M236.286 136.736L182.758 147.782L191.252 188.942L244.779 177.896L236.286 136.736Z" fill="#407BFF"/>
<path opacity="0.4" d="M236.286 136.736L182.758 147.782L191.252 188.942L244.779 177.896L236.286 136.736Z" fill="white"/>
<path d="M189.007 113.369L218.154 107.355C218.625 107.257 219.11 107.254 219.582 107.344C220.055 107.435 220.505 107.617 220.906 107.882C221.308 108.146 221.654 108.487 221.924 108.885C222.194 109.283 222.383 109.73 222.48 110.201L223.618 115.713L187.248 123.218L186.1 117.655C186.01 117.183 186.013 116.697 186.11 116.226C186.207 115.755 186.396 115.308 186.666 114.91C186.936 114.512 187.282 114.171 187.683 113.907C188.085 113.642 188.535 113.46 189.007 113.369Z" fill="#407BFF"/>
<path opacity="0.7" d="M222.129 120.982C220.052 120.633 217.928 120.673 215.866 121.099L195.383 125.33C193.826 125.649 192.323 126.19 190.919 126.934L190.039 122.651L221.197 116.182L222.129 120.982Z" fill="white"/>
<path opacity="0.3" d="M190.337 129.988C190.32 129.777 190.236 129.577 190.098 129.417C189.959 129.257 189.774 129.145 189.568 129.098C189.362 129.05 189.146 129.07 188.951 129.153C188.757 129.236 188.594 129.379 188.486 129.561C187.041 131.88 186.379 134.601 186.597 137.325C187.296 141.983 197.233 192.769 198.76 200.546C198.892 201.186 199.239 201.761 199.744 202.176C200.079 202.444 200.472 202.631 200.892 202.723C201.311 202.815 201.746 202.809 202.163 202.707L203.677 202.332L190.738 135.94C190.738 135.94 190.505 132.757 190.337 129.988Z" fill="white"/>
</svg>
